<svg width="24" height="24" viewBox="0 0 24 24" fill="none" xmlns="http://www.w3.org/2000/svg">
<path d="M6.40258 18.9484C6.40057 19.522 6.62678 20.0729 7.03125 20.4795C7.43585 20.8862 7.98549 21.1152 8.55909 21.1162C9.13269 21.117 9.68314 20.8897 10.0889 20.4844L16.9797 13.5858C17.387 13.1786 17.6144 12.6255 17.6114 12.0497V11.9788V11.9786C17.6325 11.3819 17.4043 10.8031 16.9817 10.3813L10.0869 3.50012C9.53695 2.97712 8.7528 2.78104 8.02142 2.98381C7.29004 3.18644 6.7187 3.75819 6.51645 4.48971C6.31422 5.22109 6.51069 6.0051 7.03409 6.55474L12.4677 11.9883L7.03409 17.4219C6.62921 17.8267 6.40193 18.3758 6.40234 18.9483L6.40258 18.9484Z" fill="#273469"/>
</svg>
