<svg width="100" height="100" viewBox="0 0 100 100" fill="none" xmlns="http://www.w3.org/2000/svg">
<path d="M20.5796 64.6519H20.713C21.6695 64.6385 45.8159 64.3288 56.353 64.1954L61.1829 64.1324C67.1728 64.0559 72.1627 60.0755 73.9127 54.6692C75.3691 54.6492 76.2994 54.6391 76.4227 54.6391C80.0627 54.5889 83.4596 53.1291 85.9991 50.5258C88.5393 47.9225 89.9127 44.4857 89.8657 40.849C89.8026 36.036 87.219 31.6425 83.0788 29.2424C81.869 24.6921 77.729 21.4824 72.9756 21.4824H72.8422C71.9996 21.4919 71.1698 21.6018 70.3662 21.8088C67.8896 17.782 63.5559 15.3457 58.7798 15.3457H58.5995C52.6625 15.4222 47.4661 19.459 45.7798 25.0688C44.993 24.9355 44.19 24.8423 43.363 24.8423H43.3596C37.3429 24.9221 32.2129 28.8317 30.5098 34.4919C30.3931 34.4919 30.2798 34.4751 30.1498 34.4885C27.3562 34.522 24.743 35.6453 22.7932 37.6454C21.1565 39.3257 20.1498 41.4584 19.8931 43.7587C17.3132 43.9289 14.92 45.0287 13.0995 46.8954C11.1498 48.8954 10.0962 51.5354 10.1297 54.3257C10.2028 60.0188 14.8897 64.6521 20.5794 64.6521L20.5796 64.6519ZM58.6339 18.0119C62.7203 17.8986 66.6372 20.2552 68.5475 24.0119C68.8578 24.6218 69.5743 24.8953 70.2111 24.652C71.0609 24.3289 71.9578 24.1587 72.8812 24.1453H72.9811C76.6775 24.1453 79.8812 26.7553 80.6178 30.3853C80.6942 30.782 80.9509 31.1185 81.3075 31.3055C84.894 33.1755 87.1541 36.8423 87.2042 40.8819C87.2444 43.8055 86.1412 46.5689 84.0977 48.6653C82.0575 50.7585 79.3175 51.9321 76.4107 51.9689C76.3141 51.9689 75.6038 51.979 74.4838 51.9924C74.5441 51.4455 74.6373 50.9092 74.6306 50.3456C74.5642 45.5292 71.9804 41.1392 67.8404 38.7356C66.6373 34.2055 62.4804 30.9789 57.6106 30.9789H57.6072C56.764 30.989 55.9304 31.0989 55.1239 31.3087C53.5341 28.7256 51.1574 26.802 48.3538 25.7519C49.7372 21.282 53.8906 18.075 58.6339 18.0119L58.6339 18.0119ZM15.0068 48.7548C16.4599 47.2648 18.4069 46.4283 20.5698 46.4015L21.0698 46.4182C21.4364 46.4417 21.803 46.2916 22.0731 46.0382C22.3432 45.7815 22.4933 45.4115 22.49 45.0382C22.4632 42.9645 23.25 40.9981 24.7031 39.5081C26.1563 38.0181 28.1033 37.1816 30.293 37.1548C30.6462 37.1548 30.9994 37.1782 31.3432 37.2245C32.0363 37.3211 32.6797 36.8612 32.8265 36.1776C33.8734 31.2178 38.3165 27.5711 43.5396 27.5075C47.6831 27.5075 51.4231 29.8044 53.3031 33.5042C53.61 34.1141 54.3298 34.3909 54.9666 34.1476C55.8199 33.8245 56.7166 33.6543 57.7435 33.6409C61.4332 33.6409 64.6436 36.2642 65.3702 39.8775C65.45 40.2743 65.7067 40.6108 66.0633 40.7977C69.6464 42.6643 71.9099 46.3379 71.9634 50.3741C71.9735 51.1409 71.9004 51.8909 71.757 52.6174C71.6102 52.8339 71.507 53.0839 71.5103 53.3641C71.5103 53.3808 71.5203 53.3942 71.5203 53.411C70.2536 57.9807 66.1303 61.3942 61.1538 61.4578L56.3239 61.5209C45.7871 61.6648 21.6439 61.9712 20.6868 61.9813L20.5835 61.9846C16.347 61.9846 12.8537 58.5349 12.8001 54.2915C12.77 52.2145 13.5568 50.2479 15.0065 48.7546L15.0068 48.7548Z" fill="#273469"/>
</svg>
