<svg width="24" height="24" viewBox="0 0 24 24" fill="none" xmlns="http://www.w3.org/2000/svg">
<path d="M4.93981 15.5171H4.97182C5.20138 15.5139 10.9965 15.4395 13.5254 15.4075L14.6846 15.3924C16.1222 15.374 17.3198 14.4188 17.7398 13.1212C18.0893 13.1164 18.3126 13.114 18.3422 13.114C19.2158 13.102 20.031 12.7516 20.6405 12.1268C21.2501 11.502 21.5798 10.6772 21.5685 9.80438C21.5533 8.64926 20.9333 7.59483 19.9396 7.0188C19.6493 5.92673 18.6557 5.1564 17.5148 5.1564H17.4828C17.2806 5.15867 17.0814 5.18506 16.8886 5.23475C16.2942 4.2683 15.2541 3.68359 14.1078 3.68359H14.0646C12.6397 3.70194 11.3926 4.67078 10.9879 6.01715C10.799 5.98514 10.6063 5.96277 10.4078 5.96277H10.407C8.963 5.98193 7.7318 6.92024 7.32304 8.27867C7.29505 8.27867 7.26786 8.27465 7.23666 8.27787C6.5662 8.2859 5.93901 8.5555 5.47108 9.03551C5.07827 9.43878 4.83666 9.95063 4.77505 10.5027C4.15588 10.5436 3.58149 10.8075 3.14459 11.2555C2.67666 11.7355 2.4238 12.3691 2.43183 13.0388C2.44937 14.4051 3.57423 15.5171 4.93976 15.5171L4.93981 15.5171ZM14.0728 4.32348C15.0536 4.2963 15.9936 4.86187 16.4521 5.76348C16.5266 5.90987 16.6985 5.97549 16.8514 5.9171C17.0553 5.83956 17.2706 5.79871 17.4922 5.79549H17.5162C18.4033 5.79549 19.1722 6.42189 19.349 7.29309C19.3673 7.38831 19.4289 7.46907 19.5145 7.51394C20.3753 7.96274 20.9177 8.84279 20.9297 9.81228C20.9394 10.5139 20.6746 11.1772 20.1841 11.6803C19.6945 12.1827 19.0369 12.4643 18.3393 12.4732C18.3161 12.4732 18.1456 12.4756 17.8768 12.4788C17.8913 12.3475 17.9136 12.2188 17.912 12.0836C17.8961 10.9276 17.276 9.87403 16.2824 9.29718C15.9937 8.20994 14.996 7.43557 13.8272 7.43557H13.8264C13.6241 7.43798 13.424 7.46436 13.2304 7.51472C12.8489 6.89476 12.2785 6.43311 11.6056 6.18107C11.9376 5.10831 12.9345 4.33863 14.0728 4.32347L14.0728 4.32348ZM3.60233 11.7018C3.95108 11.3442 4.41836 11.1434 4.93745 11.137L5.05745 11.141C5.14544 11.1466 5.23343 11.1106 5.29825 11.0498C5.36307 10.9882 5.3991 10.8994 5.3983 10.8098C5.39187 10.3121 5.58071 9.84016 5.92945 9.48256C6.2782 9.12496 6.74548 8.92422 7.27102 8.91777C7.35579 8.91777 7.44057 8.92339 7.52307 8.93451C7.68941 8.95768 7.84383 8.84732 7.87906 8.68326C8.13031 7.49289 9.19666 6.61768 10.4502 6.60243C11.4446 6.60243 12.3422 7.15367 12.7934 8.04164C12.8671 8.18802 13.0399 8.25445 13.1927 8.19606C13.3975 8.11851 13.6127 8.07767 13.8591 8.07445C14.7447 8.07445 15.5152 8.70404 15.6896 9.57123C15.7087 9.66645 15.7703 9.74721 15.8559 9.79207C16.7158 10.2401 17.2591 11.1217 17.2719 12.0904C17.2743 12.2744 17.2568 12.4544 17.2224 12.6288C17.1872 12.6808 17.1624 12.7408 17.1632 12.808C17.1632 12.812 17.1656 12.8152 17.1656 12.8193C16.8616 13.916 15.872 14.7352 14.6776 14.7505L13.5184 14.7656C10.9896 14.8002 5.19524 14.8737 4.96553 14.8761L4.94075 14.8769C3.92397 14.8769 3.08559 14.049 3.07273 13.0306C3.0655 12.5321 3.25434 12.0601 3.60227 11.7017L3.60233 11.7018Z" fill="#273469"/>
</svg>
