<svg width="200" height="115" viewBox="0 0 200 115" fill="none" xmlns="http://www.w3.org/2000/svg">
<path d="M115.142 24.7474L117.729 33.2267L123.37 25.2541C123.559 24.9858 123.7 24.812 123.795 24.7325C123.889 24.653 124.03 24.6133 124.219 24.6133C124.407 24.6133 124.648 24.8269 124.94 25.2541L130.2 33.1373L132.745 24.7474H140.832L133.452 47.935C133.131 48.9285 132.589 49.4252 131.826 49.4252C131.062 49.4252 130.379 48.9682 129.775 48.0542L123.455 38.4424L116.654 48.084C116.042 48.9384 115.358 49.3656 114.604 49.3656C113.85 49.3656 113.299 48.8689 112.95 47.8754L105.004 24.7474H115.142Z" fill="#273469"/>
<path d="M161.716 34.0809C161.716 32.402 160.883 31.5626 159.216 31.5626C158.496 31.5626 157.693 31.9997 156.808 32.8739C155.481 34.1952 154.555 35.7698 154.03 37.5977C153.865 38.1738 153.783 38.7053 153.783 39.1921C153.783 40.8412 154.647 41.6657 156.376 41.6657C157.065 41.6757 157.852 41.2336 158.737 40.3395C160.024 39.0282 160.934 37.4387 161.469 35.5711C161.634 34.9949 161.716 34.4982 161.716 34.0809ZM157.503 49.4144C153.85 49.4144 150.68 48.272 147.995 45.9871C147.141 45.2619 146.4 44.4324 145.772 43.4986C144.434 41.5217 143.766 39.3113 143.766 36.8675C143.766 34.4137 144.383 32.2431 145.618 30.3556C146.853 28.4681 148.509 26.9978 150.588 25.9448C152.666 24.8917 154.817 24.3652 157.04 24.3652C159.272 24.3652 161.238 24.6533 162.936 25.2295C164.634 25.8057 166.11 26.6352 167.365 27.718C168.631 28.7909 169.624 30.1072 170.344 31.6669C171.065 33.2266 171.425 34.9899 171.425 36.9569C171.425 39.4007 170.782 41.5763 169.495 43.4837C168.209 45.3811 166.496 46.8464 164.356 47.8796C162.215 48.9028 159.931 49.4144 157.503 49.4144Z" fill="#273469"/>
<path d="M108.25 76.4622L120.077 53.8802C120.484 53.0759 121.234 52.5396 122.326 52.2715C122.644 52.1921 123.037 52.1523 123.503 52.1523C123.97 52.1523 124.476 52.2864 125.023 52.5545C125.579 52.8127 126.016 53.2248 126.333 53.7909L139.025 76.4622H126.944L126.006 74.1087H119.571L118.766 76.4622H108.25ZM120.301 69.3867H125.112L122.833 62.9518L120.301 69.3867Z" fill="#273469"/>
<path d="M145.041 52.349C150.433 52.1007 154.306 51.9766 156.66 51.9766C161.039 51.9766 164.182 52.4731 166.089 53.4661C167.797 54.3599 168.651 55.7154 168.651 57.5327C168.651 58.625 168.363 59.5436 167.787 60.2884C167.221 61.0232 166.352 61.6588 165.18 62.195C166.65 62.6916 167.782 63.3966 168.576 64.3102C169.619 65.5118 170.14 67.1603 170.14 69.2556C170.14 73.774 166.645 76.1623 159.654 76.4205C158.651 76.4602 157.871 76.4801 157.315 76.4801C156.759 76.4801 156.277 76.4751 155.87 76.4652C155.463 76.4552 154.996 76.4403 154.47 76.4205C153.954 76.4105 153.388 76.3956 152.772 76.3758C152.166 76.3659 151.55 76.346 150.925 76.3162C150.299 76.2963 149.684 76.2765 149.078 76.2566C148.472 76.2368 147.906 76.2119 147.38 76.1821C146.853 76.1623 146.387 76.1474 145.979 76.1375C145.572 76.1176 145.259 76.0977 145.041 76.0779V52.349ZM160.235 66.8872C160.235 66.053 159.743 65.636 158.76 65.636C158.015 65.626 156.858 66.058 155.289 66.9319C154.922 67.1305 154.609 67.2993 154.351 67.4383V71.1921C154.49 71.1424 154.619 71.0928 154.738 71.0431C154.867 70.9935 155.155 70.8842 155.602 70.7154C157.191 70.1196 158.273 69.628 158.849 69.2407C159.783 68.6151 160.245 67.8306 160.235 66.8872ZM154.351 63.2377C156.039 62.5823 157.161 62.061 157.717 61.6737C158.869 60.8991 159.445 60.0649 159.445 59.1712C159.445 58.5456 159.117 58.1434 158.462 57.9647C158.283 57.915 158.095 57.8902 157.896 57.8902C157.697 57.8902 157.464 57.9249 157.196 57.9944C156.938 58.064 156.68 58.1533 156.421 58.2626C156.024 58.4115 155.582 58.63 155.096 58.918C154.619 59.196 154.371 59.345 154.351 59.3649V63.2377Z" fill="#273469"/>
<path d="M87.6005 64.5454C86.8864 64.3001 86.1084 64.68 85.8626 65.3936C85.411 66.7076 84.5624 68.3151 83.1258 68.5275C81.6886 68.7394 79.5265 67.4259 77.7953 65.0379C77.5232 64.6627 77.0803 64.4503 76.6173 64.4737C76.1548 64.4971 75.7353 64.7534 75.5028 65.1544C74.2847 67.2616 73.0122 68.4048 71.726 68.5346C70.1933 68.6921 68.2569 67.4807 65.985 64.9286C65.6991 64.6059 65.2786 64.4365 64.8491 64.4713C64.4195 64.5066 64.0319 64.7414 63.8023 65.1061C62.434 67.2888 61.0656 68.4386 59.6966 68.5274C58.1707 68.63 56.3507 67.4325 54.3183 64.9763C54.0343 64.6231 53.5933 64.4332 53.1413 64.4699C52.7108 64.4914 52.3151 64.7143 52.074 65.0723C50.5481 67.3576 49.0221 68.5757 47.8107 68.5208C46.2914 68.5208 44.8481 66.6527 43.9035 65.0995H43.904C43.6801 64.7086 43.2782 64.4528 42.8296 64.4151C42.3881 64.386 41.9599 64.5721 41.6798 64.9148C39.6957 67.3233 37.8752 68.5274 36.2056 68.4659C34.6797 68.411 33.0855 67.2412 31.4841 64.9897L31.4845 64.9902C31.0459 64.374 30.1915 64.2298 29.5753 64.6685C28.9592 65.1066 28.8155 65.9615 29.2537 66.5772C31.3814 69.5603 33.6878 71.114 36.0962 71.1961C38.2584 71.2782 40.3866 70.2243 42.5627 68.0006C44.1774 70.1078 45.8746 71.1617 47.7219 71.2028C49.5695 71.2438 51.4782 70.1766 53.292 67.9523C55.5295 70.2719 57.6712 71.3325 59.8061 71.2028C61.7015 71.0796 63.467 69.9847 65.0817 67.9318C67.5518 70.3541 69.8098 71.4285 71.9721 71.2028C73.7305 71.0248 75.3385 69.9781 76.7618 68.0894C78.6432 70.1423 80.7239 71.2372 82.7147 71.2372C82.9739 71.2396 83.2321 71.2215 83.4879 71.1828C85.0483 70.9504 87.1693 69.9031 88.4351 66.2289V66.2284C88.647 65.5349 88.2809 64.7965 87.6003 64.5455L87.6005 64.5454Z" fill="#1A96F0"/>
<path d="M57.9213 55.35C60.11 55.4321 62.2644 54.3782 64.4672 52.1545C66.1018 54.2618 67.8198 55.3157 69.6897 55.3567C71.5601 55.3978 73.4922 54.3305 75.3283 52.1062C77.4687 54.2961 79.4845 55.3633 81.562 55.3633H81.9292C84.2498 55.213 86.3897 53.6389 88.2809 50.6763L88.2804 50.6768C88.6896 50.0381 88.4973 49.1924 87.8509 48.7881C87.2044 48.3838 86.3487 48.5738 85.9395 49.2124C84.5543 51.3951 83.1691 52.5449 81.7833 52.6337C80.2386 52.7363 78.3963 51.5388 76.3389 49.0826C76.0568 48.7328 75.62 48.5414 75.1683 48.5691C74.7324 48.5905 74.3319 48.8134 74.0879 49.1714C72.5433 51.4567 70.9985 52.6748 69.7722 52.62C68.2343 52.5856 66.7733 50.7518 65.817 49.1987H65.8175C65.5909 48.8078 65.1841 48.5519 64.7299 48.5147C64.283 48.4856 63.8496 48.6717 63.566 49.0139C61.5575 51.4224 59.7146 52.6266 58.0245 52.565C56.4799 52.5101 54.8661 51.3403 53.2451 49.0888L53.2455 49.0893C52.8015 48.4731 51.9367 48.3295 51.3129 48.7676C50.6891 49.2063 50.5437 50.0606 50.9872 50.6768C53.1485 53.7148 55.469 55.2679 57.9211 55.3501L57.9213 55.35Z" fill="#6BC7FF"/>
<path d="M88.4926 30.2639C88.4926 35.9323 83.8972 40.5277 78.2287 40.5277C72.5598 40.5277 67.9648 35.9323 67.9648 30.2639C67.9648 24.5949 72.5598 20 78.2287 20C83.8972 20 88.4926 24.5949 88.4926 30.2639Z" fill="#FFB74D"/>
<path d="M59.8139 93.9948L58.4219 87.7788H59.4059L60.0659 91.0188C60.1299 91.3548 60.1939 91.6908 60.2579 92.0268C60.3219 92.3628 60.3859 92.6948 60.4499 93.0228H60.4859C60.5579 92.6948 60.6339 92.3628 60.7139 92.0268C60.8019 91.6908 60.8859 91.3548 60.9659 91.0188L61.8539 87.7788H62.7179L63.5819 91.0188C63.6619 91.3468 63.7419 91.6788 63.8219 92.0148C63.9099 92.3508 63.9939 92.6868 64.0739 93.0228H64.1219C64.1859 92.6868 64.2459 92.3508 64.3019 92.0148C64.3579 91.6788 64.4179 91.3468 64.4819 91.0188L65.1419 87.7788H66.0659L64.7099 93.9948H63.5459L62.5859 90.5148C62.5299 90.2668 62.4739 90.0268 62.4179 89.7948C62.3699 89.5548 62.3219 89.3188 62.2739 89.0868H62.2259C62.1699 89.3188 62.1179 89.5548 62.0699 89.7948C62.0219 90.0268 61.9659 90.2668 61.9019 90.5148L60.9659 93.9948H59.8139Z" fill="#273469"/>
<path d="M67.189 93.9948V87.7788H71.101V88.5708H68.185V90.3708H70.657V91.1268H68.185V93.2028H71.221V93.9948H67.189Z" fill="#273469"/>
<path d="M72.6443 93.9948V87.7788H73.6403V93.1668H76.4843V93.9948H72.6443Z" fill="#273469"/>
<path d="M77.6426 93.9948V87.7788H78.6386V93.1668H81.4826V93.9948H77.6426Z" fill="#273469"/>
<path d="M82.6409 93.9948V87.7788H83.6369V93.9948H82.6409Z" fill="#273469"/>
<path d="M85.5532 93.9948V87.7788H86.5612L88.8532 91.4508L89.5732 92.7828H89.6212C89.5972 92.4708 89.5692 92.1308 89.5372 91.7628C89.5052 91.3868 89.4892 91.0308 89.4892 90.6948V87.7788H90.4132V93.9948H89.4172L87.1132 90.3228L86.3932 88.9908H86.3452C86.3692 89.3108 86.3972 89.6508 86.4292 90.0108C86.4612 90.3708 86.4772 90.7188 86.4772 91.0548V93.9948H85.5532Z" fill="#273469"/>
<path d="M94.9368 94.1388C94.3448 94.1388 93.8167 94.0148 93.3527 93.7668C92.8967 93.5108 92.5368 93.1428 92.2728 92.6628C92.0088 92.1748 91.8768 91.5868 91.8768 90.8988C91.8768 90.2188 92.0128 89.6348 92.2848 89.1468C92.5568 88.6588 92.9287 88.2868 93.4007 88.0308C93.8727 87.7668 94.4088 87.6348 95.0088 87.6348C95.4648 87.6348 95.8488 87.7188 96.1608 87.8868C96.4808 88.0468 96.7407 88.2228 96.9408 88.4148L96.3888 89.0268C96.2208 88.8668 96.0288 88.7348 95.8128 88.6308C95.6048 88.5268 95.3408 88.4748 95.0208 88.4748C94.3728 88.4748 93.8568 88.6908 93.4728 89.1228C93.0888 89.5468 92.8968 90.1388 92.8968 90.8988C92.8968 91.6428 93.0768 92.2308 93.4368 92.6628C93.8048 93.0948 94.3328 93.3108 95.0208 93.3108C95.5008 93.3108 95.8727 93.1988 96.1367 92.9748V91.4508H94.7928V90.7188H97.0488V93.4308C96.8248 93.6308 96.5288 93.7988 96.1608 93.9348C95.7928 94.0708 95.3848 94.1388 94.9368 94.1388Z" fill="#273469"/>
<path d="M99.8324 93.9948V88.6068H97.8644V87.7788H102.796V88.6068H100.828V93.9948H99.8324Z" fill="#273469"/>
<path d="M106.114 94.1388C105.546 94.1388 105.042 94.0068 104.602 93.7428C104.162 93.4788 103.818 93.1028 103.57 92.6148C103.322 92.1268 103.198 91.5468 103.198 90.8748C103.198 90.1948 103.322 89.6148 103.57 89.1348C103.818 88.6468 104.162 88.2748 104.602 88.0188C105.042 87.7628 105.546 87.6348 106.114 87.6348C106.682 87.6348 107.186 87.7628 107.626 88.0188C108.066 88.2748 108.41 88.6468 108.658 89.1348C108.906 89.6148 109.03 90.1948 109.03 90.8748C109.03 91.5468 108.906 92.1268 108.658 92.6148C108.41 93.1028 108.066 93.4788 107.626 93.7428C107.186 94.0068 106.682 94.1388 106.114 94.1388ZM106.114 93.2988C106.682 93.2988 107.138 93.0828 107.482 92.6508C107.826 92.2108 107.998 91.6188 107.998 90.8748C107.998 90.1228 107.826 89.5348 107.482 89.1108C107.138 88.6868 106.682 88.4748 106.114 88.4748C105.546 88.4748 105.09 88.6868 104.746 89.1108C104.402 89.5348 104.23 90.1228 104.23 90.8748C104.23 91.6188 104.402 92.2108 104.746 92.6508C105.09 93.0828 105.546 93.2988 106.114 93.2988Z" fill="#273469"/>
<path d="M110.48 93.9948V87.7788H111.488L113.78 91.4508L114.5 92.7828H114.548C114.524 92.4708 114.496 92.1308 114.464 91.7628C114.432 91.3868 114.416 91.0308 114.416 90.6948V87.7788H115.34V93.9948H114.344L112.04 90.3228L111.32 88.9908H111.272C111.296 89.3108 111.324 89.6508 111.356 90.0108C111.388 90.3708 111.404 90.7188 111.404 91.0548V93.9948H110.48Z" fill="#273469"/>
<path d="M121.882 94.1388C121.314 94.1388 120.81 94.0068 120.37 93.7428C119.93 93.4788 119.586 93.1028 119.338 92.6148C119.09 92.1268 118.966 91.5468 118.966 90.8748C118.966 90.1948 119.09 89.6148 119.338 89.1348C119.586 88.6468 119.93 88.2748 120.37 88.0188C120.81 87.7628 121.314 87.6348 121.882 87.6348C122.45 87.6348 122.954 87.7628 123.394 88.0188C123.834 88.2748 124.178 88.6468 124.426 89.1348C124.674 89.6148 124.798 90.1948 124.798 90.8748C124.798 91.5468 124.674 92.1268 124.426 92.6148C124.178 93.1028 123.834 93.4788 123.394 93.7428C122.954 94.0068 122.45 94.1388 121.882 94.1388ZM121.882 93.2988C122.45 93.2988 122.906 93.0828 123.25 92.6508C123.594 92.2108 123.766 91.6188 123.766 90.8748C123.766 90.1228 123.594 89.5348 123.25 89.1108C122.906 88.6868 122.45 88.4748 121.882 88.4748C121.314 88.4748 120.858 88.6868 120.514 89.1108C120.17 89.5348 119.998 90.1228 119.998 90.8748C119.998 91.6188 120.17 92.2108 120.514 92.6508C120.858 93.0828 121.314 93.2988 121.882 93.2988Z" fill="#273469"/>
<path d="M126.248 93.9948V87.7788H127.256L129.548 91.4508L130.268 92.7828H130.316C130.292 92.4708 130.264 92.1308 130.232 91.7628C130.2 91.3868 130.184 91.0308 130.184 90.6948V87.7788H131.108V93.9948H130.112L127.808 90.3228L127.088 88.9908H127.04C127.064 89.3108 127.092 89.6508 127.124 90.0108C127.156 90.3708 127.172 90.7188 127.172 91.0548V93.9948H126.248Z" fill="#273469"/>
<path d="M136.27 90.6108L135.982 91.4988H137.854L137.566 90.6108C137.454 90.2668 137.35 89.9308 137.254 89.6028C137.158 89.2668 137.054 88.9268 136.942 88.5828H136.894C136.79 88.9268 136.686 89.2668 136.582 89.6028C136.486 89.9308 136.382 90.2668 136.27 90.6108ZM134.146 93.9948L136.366 87.7788H137.494L139.726 93.9948H138.67L138.094 92.2428H135.73L135.154 93.9948H134.146Z" fill="#273469"/>
<path d="M142.749 93.9948V87.7788H144.789C145.245 87.7788 145.649 87.8308 146.001 87.9348C146.353 88.0308 146.629 88.1908 146.829 88.4148C147.029 88.6388 147.129 88.9388 147.129 89.3148C147.129 89.6108 147.037 89.8828 146.853 90.1308C146.677 90.3788 146.409 90.5508 146.049 90.6468V90.6948C146.489 90.7748 146.837 90.9388 147.093 91.1868C147.357 91.4268 147.489 91.7588 147.489 92.1828C147.489 92.7988 147.249 93.2548 146.769 93.5508C146.297 93.8468 145.689 93.9948 144.945 93.9948H142.749ZM143.745 90.4068H144.681C145.225 90.4068 145.613 90.3228 145.845 90.1548C146.085 89.9868 146.205 89.7428 146.205 89.4228C146.205 89.1028 146.081 88.8748 145.833 88.7388C145.585 88.5948 145.213 88.5228 144.717 88.5228H143.745V90.4068ZM143.745 93.2508H144.825C145.345 93.2508 145.757 93.1668 146.061 92.9988C146.373 92.8228 146.529 92.5308 146.529 92.1228C146.529 91.7708 146.381 91.5108 146.085 91.3428C145.797 91.1668 145.377 91.0788 144.825 91.0788H143.745V93.2508Z" fill="#273469"/>
<path d="M148.826 93.9948V87.7788H152.738V88.5708H149.822V90.3708H152.294V91.1268H149.822V93.2028H152.858V93.9948H148.826Z" fill="#273469"/>
<path d="M155.361 90.6108L155.073 91.4988H156.945L156.657 90.6108C156.545 90.2668 156.441 89.9308 156.345 89.6028C156.249 89.2668 156.145 88.9268 156.033 88.5828H155.985C155.881 88.9268 155.777 89.2668 155.673 89.6028C155.577 89.9308 155.473 90.2668 155.361 90.6108ZM153.237 93.9948L155.457 87.7788H156.585L158.817 93.9948H157.761L157.185 92.2428H154.821L154.245 93.9948H153.237Z" fill="#273469"/>
<path d="M162.174 94.1388C161.614 94.1388 161.11 94.0148 160.662 93.7668C160.214 93.5108 159.862 93.1428 159.606 92.6628C159.35 92.1748 159.222 91.5868 159.222 90.8988C159.222 90.2188 159.354 89.6388 159.618 89.1588C159.89 88.6708 160.254 88.2948 160.71 88.0308C161.166 87.7668 161.682 87.6348 162.258 87.6348C162.658 87.6348 163.014 87.7148 163.326 87.8748C163.646 88.0348 163.91 88.2188 164.118 88.4268L163.554 89.0388C163.378 88.8628 163.186 88.7268 162.978 88.6308C162.778 88.5268 162.542 88.4748 162.27 88.4748C161.662 88.4748 161.17 88.6908 160.794 89.1228C160.426 89.5468 160.242 90.1308 160.242 90.8748C160.242 91.6268 160.418 92.2188 160.77 92.6508C161.13 93.0828 161.614 93.2988 162.222 93.2988C162.534 93.2988 162.806 93.2428 163.038 93.1308C163.278 93.0108 163.498 92.8468 163.698 92.6388L164.25 93.2388C163.978 93.5348 163.67 93.7588 163.326 93.9108C162.99 94.0628 162.606 94.1388 162.174 94.1388Z" fill="#273469"/>
<path d="M165.473 93.9948V87.7788H166.469V90.3108H169.445V87.7788H170.441V93.9948H169.445V91.1748H166.469V93.9948H165.473Z" fill="#273469"/>
</svg>
