<svg width="500" height="168" viewBox="0 0 500 168" fill="none" xmlns="http://www.w3.org/2000/svg" role="img" aria-labelledby="Wellington on a beach: WOAB helps you decide which beach to go to in Wellington">
<title id="title">Wellington on a beach</title>
<desc id="desc">WOAB helps you decide which beach to go to in Wellington</desc>
<path d="M305.138 77.454L302.104 61.7031H305.09L306.439 69.6508C306.567 70.4857 306.688 71.3286 306.8 72.1796C306.912 73.0145 307.017 73.8896 307.113 74.8048H307.209C307.354 73.8896 307.506 73.0145 307.667 72.1796C307.827 71.3286 307.996 70.4857 308.173 69.6508L310.003 61.7031H312.749L314.531 69.6508C314.707 70.4696 314.884 71.3046 315.061 72.1555C315.237 73.0065 315.398 73.8896 315.542 74.8048H315.639C315.735 73.8896 315.839 73.0145 315.952 72.1796C316.08 71.3286 316.201 70.4857 316.313 69.6508L317.662 61.7031H320.504L317.469 77.454H313.76L311.978 69.1691C311.866 68.5911 311.753 67.997 311.641 67.3869C311.544 66.7607 311.448 66.0864 311.352 65.3638H311.255C311.191 66.0864 311.111 66.7607 311.015 67.3869C310.918 67.997 310.806 68.5911 310.677 69.1691L308.847 77.454H305.138Z" fill="#273469"/>
<path d="M325.34 77.454V61.7031H334.829V64.0633H328.134V68.0853H333.793V70.4456H328.134V75.0938H335.07V77.454H325.34Z" fill="#273469"/>
<path d="M340.708 77.454V61.7031H343.501V75.0938H350.052V77.454H340.708Z" fill="#273469"/>
<path d="M355.205 77.454V61.7031H357.999V75.0938H364.55V77.454H355.205Z" fill="#273469"/>
<path d="M369.702 77.454V61.7031H372.496V77.454H369.702Z" fill="#273469"/>
<path d="M378.908 77.454V61.7031H381.967L386.687 70.3733C386.976 70.9032 387.249 71.4731 387.506 72.0833C387.779 72.6934 388.036 73.3116 388.277 73.9377H388.373C388.309 73.0868 388.236 72.2037 388.156 71.2885C388.076 70.3573 388.036 69.4581 388.036 68.5911V61.7031H390.709V77.454H387.65L382.93 68.7838C382.641 68.2539 382.352 67.6839 382.063 67.0738C381.79 66.4637 381.533 65.8455 381.292 65.2193H381.196C381.292 66.0382 381.381 66.9132 381.461 67.8445C381.541 68.7597 381.581 69.6668 381.581 70.566V77.454H378.908Z" fill="#273469"/>
<path d="M403.744 77.743C402.331 77.743 401.063 77.4299 399.939 76.8037C398.815 76.1775 397.932 75.2624 397.289 74.0582C396.647 72.8379 396.326 71.3608 396.326 69.6267C396.326 68.3422 396.511 67.1942 396.88 66.1827C397.265 65.1712 397.795 64.3122 398.47 63.6057C399.16 62.8832 399.955 62.3373 400.854 61.968C401.753 61.5987 402.724 61.4141 403.768 61.4141C404.892 61.4141 405.847 61.6148 406.634 62.0162C407.421 62.4176 408.055 62.8832 408.537 63.413L407.043 65.123C406.658 64.7377 406.217 64.4326 405.719 64.2078C405.221 63.967 404.603 63.8465 403.864 63.8465C402.933 63.8465 402.114 64.0794 401.408 64.545C400.701 64.9945 400.155 65.6448 399.77 66.4958C399.385 67.3468 399.192 68.3663 399.192 69.5545C399.192 70.7426 399.377 71.7702 399.746 72.6372C400.115 73.5042 400.653 74.1705 401.36 74.6362C402.082 75.0857 402.965 75.3105 404.009 75.3105C404.458 75.3105 404.884 75.2543 405.285 75.1419C405.687 75.0135 406.016 74.8369 406.273 74.6121V71.2162H403.286V68.9283H408.778V75.8645C408.248 76.3943 407.541 76.8439 406.658 77.2132C405.791 77.5664 404.82 77.743 403.744 77.743Z" fill="#273469"/>
<path d="M417.385 77.454V64.0633H412.833V61.7031H424.731V64.0633H420.179V77.454H417.385Z" fill="#273469"/>
<path d="M435.268 77.743C433.903 77.743 432.699 77.4139 431.655 76.7556C430.611 76.0812 429.793 75.1339 429.198 73.9137C428.62 72.6773 428.331 71.2082 428.331 69.5063C428.331 67.8043 428.62 66.3513 429.198 65.1471C429.793 63.9429 430.611 63.0197 431.655 62.3774C432.699 61.7352 433.903 61.4141 435.268 61.4141C436.648 61.4141 437.861 61.7352 438.904 62.3774C439.948 63.0197 440.759 63.9429 441.337 65.1471C441.931 66.3513 442.228 67.8043 442.228 69.5063C442.228 71.2082 441.931 72.6773 441.337 73.9137C440.759 75.1339 439.948 76.0812 438.904 76.7556C437.861 77.4139 436.648 77.743 435.268 77.743ZM435.268 75.3105C436.103 75.3105 436.817 75.0777 437.411 74.6121C438.021 74.1304 438.495 73.4561 438.832 72.589C439.169 71.706 439.338 70.6784 439.338 69.5063C439.338 68.3342 439.169 67.3307 438.832 66.4958C438.495 65.6448 438.021 64.9945 437.411 64.545C436.817 64.0794 436.103 63.8465 435.268 63.8465C434.449 63.8465 433.734 64.0794 433.124 64.545C432.514 64.9945 432.04 65.6448 431.703 66.4958C431.366 67.3307 431.197 68.3342 431.197 69.5063C431.197 70.6784 431.366 71.706 431.703 72.589C432.04 73.4561 432.514 74.1304 433.124 74.6121C433.734 75.0777 434.449 75.3105 435.268 75.3105Z" fill="#273469"/>
<path d="M447.787 77.454V61.7031H450.846L455.566 70.3733C455.855 70.9032 456.128 71.4731 456.385 72.0833C456.658 72.6934 456.915 73.3116 457.156 73.9377H457.252C457.188 73.0868 457.116 72.2037 457.035 71.2885C456.955 70.3573 456.915 69.4581 456.915 68.5911V61.7031H459.588V77.454H456.53L451.809 68.7838C451.52 68.2539 451.231 67.6839 450.942 67.0738C450.669 66.4637 450.412 65.8455 450.171 65.2193H450.075C450.171 66.0382 450.26 66.9132 450.34 67.8445C450.42 68.7597 450.46 69.6668 450.46 70.566V77.454H447.787Z" fill="#273469"/>
<path d="M309.786 106.644C308.422 106.644 307.217 106.315 306.174 105.656C305.13 104.982 304.311 104.035 303.717 102.814C303.139 101.578 302.85 100.109 302.85 98.4071C302.85 96.7051 303.139 95.2521 303.717 94.0479C304.311 92.8437 305.13 91.9204 306.174 91.2782C307.217 90.636 308.422 90.3148 309.786 90.3148C311.167 90.3148 312.379 90.636 313.423 91.2782C314.467 91.9204 315.277 92.8437 315.855 94.0479C316.45 95.2521 316.747 96.7051 316.747 98.4071C316.747 100.109 316.45 101.578 315.855 102.814C315.277 104.035 314.467 104.982 313.423 105.656C312.379 106.315 311.167 106.644 309.786 106.644ZM309.786 104.211C310.621 104.211 311.336 103.978 311.93 103.513C312.54 103.031 313.014 102.357 313.351 101.49C313.688 100.607 313.857 99.5792 313.857 98.4071C313.857 97.235 313.688 96.2315 313.351 95.3966C313.014 94.5456 312.54 93.8953 311.93 93.4458C311.336 92.9801 310.621 92.7473 309.786 92.7473C308.967 92.7473 308.253 92.9801 307.643 93.4458C307.033 93.8953 306.559 94.5456 306.222 95.3966C305.885 96.2315 305.716 97.235 305.716 98.4071C305.716 99.5792 305.885 100.607 306.222 101.49C306.559 102.357 307.033 103.031 307.643 103.513C308.253 103.978 308.967 104.211 309.786 104.211Z" fill="#273469"/>
<path d="M322.306 106.355V90.6039H325.365L330.085 99.2741C330.374 99.8039 330.647 100.374 330.904 100.984C331.177 101.594 331.434 102.212 331.675 102.839H331.771C331.707 101.988 331.634 101.104 331.554 100.189C331.474 99.258 331.434 98.3589 331.434 97.4919V90.6039H334.107V106.355H331.048L326.328 97.6845C326.039 97.1547 325.75 96.5847 325.461 95.9746C325.188 95.3645 324.931 94.7463 324.69 94.1201H324.594C324.69 94.939 324.778 95.814 324.859 96.7453C324.939 97.6605 324.979 98.5676 324.979 99.4668V106.355H322.306Z" fill="#273469"/>
<path d="M345.726 106.355L350.856 90.6039H354.131L359.261 106.355H356.323L353.914 97.9736C353.657 97.1386 353.408 96.2796 353.168 95.3966C352.943 94.5135 352.718 93.6384 352.493 92.7714H352.397C352.188 93.6545 351.963 94.5376 351.723 95.4207C351.498 96.2877 351.257 97.1386 351 97.9736L348.568 106.355H345.726ZM348.76 102.092V99.9003H356.178V102.092H348.76Z" fill="#273469"/>
<path d="M370.841 106.355V90.6039H375.874C376.966 90.6039 377.929 90.7323 378.764 90.9892C379.615 91.23 380.282 91.6314 380.763 92.1934C381.261 92.7554 381.51 93.518 381.51 94.4814C381.51 95.2842 381.317 95.9987 380.932 96.6249C380.563 97.235 380.025 97.6605 379.318 97.9013V97.9976C380.25 98.1903 380.98 98.5837 381.51 99.1778C382.056 99.7558 382.329 100.567 382.329 101.61C382.329 102.686 382.064 103.577 381.534 104.284C381.02 104.99 380.306 105.512 379.391 105.849C378.475 106.186 377.44 106.355 376.284 106.355H370.841ZM373.634 97.1065H375.633C376.725 97.1065 377.52 96.9058 378.018 96.5044C378.515 96.103 378.764 95.5652 378.764 94.8908C378.764 94.1201 378.507 93.5742 377.994 93.2531C377.48 92.932 376.709 92.7714 375.682 92.7714H373.634V97.1065ZM373.634 104.187H375.995C377.151 104.187 378.042 103.978 378.668 103.561C379.294 103.128 379.607 102.469 379.607 101.586C379.607 100.751 379.302 100.149 378.692 99.7799C378.082 99.3945 377.183 99.2018 375.995 99.2018H373.634V104.187Z" fill="#273469"/>
<path d="M387.62 106.355V90.6039H397.109V92.9641H390.413V96.9861H396.073V99.3463H390.413V103.995H397.349V106.355H387.62Z" fill="#273469"/>
<path d="M400.94 106.355L406.07 90.6039H409.345L414.475 106.355H411.537L409.129 97.9736C408.872 97.1386 408.623 96.2796 408.382 95.3966C408.157 94.5135 407.932 93.6384 407.708 92.7714H407.611C407.403 93.6545 407.178 94.5376 406.937 95.4207C406.712 96.2877 406.471 97.1386 406.214 97.9736L403.782 106.355H400.94ZM403.975 102.092V99.9003H411.393V102.092H403.975Z" fill="#273469"/>
<path d="M424.924 106.644C423.591 106.644 422.379 106.331 421.287 105.705C420.212 105.078 419.353 104.163 418.71 102.959C418.084 101.739 417.771 100.262 417.771 98.5275C417.771 97.243 417.956 96.095 418.325 95.0835C418.694 94.0559 419.208 93.1889 419.866 92.4824C420.541 91.7759 421.312 91.2381 422.179 90.8688C423.046 90.4995 423.977 90.3148 424.972 90.3148C425.968 90.3148 426.851 90.5155 427.622 90.9169C428.392 91.3023 429.026 91.7679 429.524 92.3138L428.031 94.0238C427.63 93.6063 427.18 93.2932 426.682 93.0845C426.201 92.8597 425.655 92.7473 425.045 92.7473C424.21 92.7473 423.455 92.9801 422.781 93.4458C422.122 93.9114 421.601 94.5697 421.215 95.4207C420.83 96.2716 420.637 97.2831 420.637 98.4552C420.637 99.6594 420.822 100.695 421.191 101.562C421.56 102.413 422.082 103.071 422.757 103.537C423.431 103.987 424.218 104.211 425.117 104.211C425.791 104.211 426.393 104.075 426.923 103.802C427.453 103.529 427.935 103.168 428.368 102.718L429.789 104.38C429.147 105.118 428.424 105.68 427.622 106.066C426.819 106.451 425.92 106.644 424.924 106.644Z" fill="#273469"/>
<path d="M434.875 106.355V90.6039H437.669V96.9379H444.051V90.6039H446.845V106.355H444.051V99.3704H437.669V106.355H434.875Z" fill="#273469"/>
<path d="M166.006 47.1674L169.913 59.9715L178.432 47.9325C178.716 47.5274 178.93 47.2649 179.072 47.1449C179.215 47.0249 179.428 46.9648 179.713 46.9648C179.997 46.9648 180.36 47.2874 180.802 47.9325L188.744 59.8365L192.587 47.1674H204.8L193.655 82.1819C193.171 83.682 192.352 84.4321 191.199 84.4321C190.046 84.4321 189.014 83.7421 188.103 82.3619L178.56 67.8475L168.29 82.4069C167.365 83.697 166.333 84.3421 165.194 84.3421C164.056 84.3421 163.223 83.592 162.696 82.0918L150.697 47.1674H166.006Z" fill="#273469"/>
<path d="M236.335 61.261C236.335 58.7258 235.076 57.4582 232.559 57.4582C231.472 57.4582 230.26 58.1183 228.923 59.4384C226.919 61.4336 225.52 63.8113 224.728 66.5715C224.479 67.4415 224.355 68.2441 224.355 68.9792C224.355 71.4694 225.66 72.7145 228.271 72.7145C229.312 72.7295 230.5 72.0619 231.837 70.7118C233.779 68.7317 235.154 66.3315 235.962 63.5112C236.211 62.6412 236.335 61.8911 236.335 61.261ZM229.972 84.4154C224.456 84.4154 219.67 82.6903 215.615 79.24C214.325 78.1449 213.206 76.8923 212.258 75.4822C210.239 72.497 209.229 69.1592 209.229 65.4689C209.229 61.7636 210.161 58.4858 212.025 55.6356C213.89 52.7853 216.392 50.5652 219.53 48.975C222.669 47.3849 225.917 46.5898 229.273 46.5898C232.645 46.5898 235.612 47.0249 238.176 47.895C240.74 48.765 242.97 50.0176 244.865 51.6528C246.777 53.2729 248.276 55.2606 249.364 57.6157C250.451 59.9709 250.995 62.6337 250.995 65.6039C250.995 69.2942 250.024 72.5795 248.082 75.4597C246.14 78.3249 243.553 80.5376 240.321 82.0977C237.089 83.6429 233.639 84.4154 229.972 84.4154Z" fill="#273469"/>
<path d="M155.6 125.26L173.459 91.16C174.074 89.9454 175.206 89.1356 176.856 88.7307C177.336 88.6108 177.928 88.5508 178.633 88.5508C179.338 88.5508 180.102 88.7532 180.927 89.1581C181.767 89.548 182.427 90.1703 182.907 91.025L202.071 125.26H183.829L182.412 121.706H172.695L171.48 125.26H155.6ZM173.797 114.576H181.062L177.621 104.858L173.797 114.576Z" fill="#273469"/>
<path d="M211.156 88.8436C219.299 88.4687 225.147 88.2812 228.701 88.2812C235.314 88.2812 240.06 89.031 242.939 90.5306C245.519 91.8802 246.808 93.9271 246.808 96.6713C246.808 98.3208 246.373 99.7079 245.504 100.833C244.649 101.942 243.337 102.902 241.567 103.712C243.787 104.461 245.496 105.526 246.696 106.906C248.27 108.72 249.058 111.209 249.058 114.374C249.058 121.196 243.779 124.803 233.222 125.193C231.708 125.253 230.531 125.283 229.691 125.283C228.851 125.283 228.124 125.275 227.509 125.26C226.894 125.245 226.189 125.223 225.395 125.193C224.615 125.178 223.76 125.155 222.83 125.125C221.916 125.11 220.986 125.08 220.041 125.035C219.096 125.005 218.167 124.975 217.252 124.945C216.337 124.915 215.482 124.878 214.688 124.833C213.893 124.803 213.188 124.78 212.573 124.765C211.959 124.735 211.486 124.705 211.156 124.675V88.8436ZM234.099 110.797C234.099 109.537 233.357 108.908 231.873 108.908C230.748 108.893 229.001 109.545 226.632 110.865C226.077 111.164 225.604 111.419 225.215 111.629V117.298C225.425 117.223 225.619 117.148 225.799 117.073C225.994 116.998 226.429 116.833 227.104 116.578C229.503 115.678 231.138 114.936 232.008 114.351C233.417 113.406 234.114 112.222 234.099 110.797ZM225.215 105.286C227.764 104.297 229.458 103.509 230.298 102.924C232.038 101.755 232.907 100.495 232.907 99.1455C232.907 98.2008 232.412 97.5935 231.423 97.3236C231.153 97.2486 230.868 97.2111 230.568 97.2111C230.268 97.2111 229.916 97.2636 229.511 97.3686C229.121 97.4735 228.731 97.6085 228.341 97.7734C227.741 97.9984 227.074 98.3283 226.339 98.7631C225.619 99.183 225.245 99.408 225.215 99.4379V105.286Z" fill="#273469"/>
<path d="M140.458 119.957C139.246 119.54 137.926 120.185 137.508 121.396C136.742 123.626 135.302 126.355 132.863 126.715C130.424 127.075 126.755 124.846 123.816 120.793C123.355 120.156 122.603 119.795 121.817 119.835C121.032 119.875 120.32 120.31 119.926 120.99C117.858 124.567 115.699 126.507 113.515 126.727C110.914 126.995 107.628 124.939 103.772 120.607C103.287 120.059 102.573 119.772 101.844 119.831C101.115 119.891 100.457 120.289 100.067 120.908C97.7448 124.613 95.4224 126.564 93.0989 126.715C90.5091 126.889 87.4201 124.857 83.9708 120.688C83.4888 120.089 82.7402 119.766 81.9731 119.829C81.2424 119.865 80.5708 120.243 80.1617 120.851C77.572 124.73 74.982 126.797 72.926 126.704C70.3474 126.704 67.8978 123.533 66.2945 120.897H66.2954C65.9154 120.234 65.2333 119.8 64.4719 119.736C63.7225 119.686 62.9959 120.002 62.5204 120.584C59.1529 124.671 56.0631 126.715 53.2295 126.611C50.6397 126.517 47.934 124.532 45.216 120.711L45.2168 120.712C44.4724 119.666 43.0223 119.421 41.9765 120.166C40.9307 120.909 40.6868 122.36 41.4305 123.405C45.0418 128.468 48.9562 131.105 53.0439 131.244C56.7135 131.384 60.3257 129.595 64.0189 125.821C66.7595 129.397 69.64 131.186 72.7752 131.256C75.911 131.325 79.1505 129.514 82.2289 125.739C86.0264 129.676 89.6614 131.476 93.2848 131.256C96.5017 131.047 99.4982 129.188 102.239 125.704C106.431 129.815 110.263 131.639 113.933 131.256C116.918 130.954 119.647 129.177 122.062 125.972C125.256 129.456 128.787 131.314 132.166 131.314C132.606 131.318 133.044 131.287 133.478 131.222C136.126 130.827 139.726 129.05 141.875 122.814V122.813C142.234 121.636 141.613 120.383 140.458 119.957L140.458 119.957Z" fill="#1A96F0"/>
<path d="M90.0872 104.354C93.8019 104.493 97.4585 102.705 101.197 98.9307C103.971 102.507 106.887 104.296 110.061 104.366C113.235 104.435 116.515 102.624 119.631 98.8488C123.264 102.565 126.685 104.377 130.211 104.377H130.834C134.773 104.122 138.404 101.45 141.614 96.4218L141.613 96.4226C142.308 95.3387 141.982 93.9033 140.884 93.2171C139.787 92.5309 138.335 92.8534 137.64 93.9373C135.289 97.6417 132.938 99.5932 130.586 99.7439C127.965 99.9181 124.838 97.8856 121.346 93.717C120.867 93.1232 120.126 92.7984 119.359 92.8454C118.619 92.8818 117.94 93.2601 117.526 93.8677C114.904 97.7464 112.282 99.8138 110.201 99.7206C107.591 99.6623 105.111 96.55 103.488 93.914H103.489C103.104 93.2505 102.414 92.8163 101.643 92.7531C100.884 92.7037 100.149 93.0196 99.6675 93.6004C96.2587 97.6881 93.1309 99.7319 90.2625 99.6274C87.6409 99.5342 84.9019 97.5488 82.1506 93.7276L82.1514 93.7284C81.3978 92.6825 79.93 92.4387 78.8713 93.1824C77.8126 93.9268 77.5658 95.3769 78.3186 96.4227C81.9867 101.579 85.9252 104.215 90.087 104.354L90.0872 104.354Z" fill="#6BC7FF"/>
<path d="M141.969 61.7755C141.969 71.3962 134.17 79.1956 124.549 79.1956C114.927 79.1956 107.129 71.3962 107.129 61.7755C107.129 52.1541 114.927 44.3555 124.549 44.3555C134.17 44.3555 141.969 52.1541 141.969 61.7755Z" fill="#FFB74D"/>
<path fill-rule="evenodd" clip-rule="evenodd" d="M273.631 141.158C272.448 141.158 271.49 140.2 271.49 139.017V29.1408C271.49 27.9585 272.448 27 273.631 27C274.813 27 275.771 27.9585 275.771 29.1408V139.017C275.771 140.2 274.813 141.158 273.631 141.158Z" fill="#1A96F0"/>
</svg>
