<svg width="1000" height="272" viewBox="0 0 1000 272" fill="none" xmlns="http://www.w3.org/2000/svg">
<path d="M632.262 120.126L625.037 82.6237H632.148L635.359 101.547C635.665 103.535 635.951 105.542 636.219 107.568C636.487 109.556 636.735 111.639 636.964 113.818H637.194C637.538 111.639 637.901 109.556 638.283 107.568C638.666 105.542 639.067 103.535 639.487 101.547L643.846 82.6237H650.383L654.626 101.547C655.047 103.496 655.467 105.484 655.888 107.51C656.308 109.537 656.69 111.639 657.034 113.818H657.264C657.493 111.639 657.742 109.556 658.009 107.568C658.315 105.542 658.602 103.535 658.869 101.547L662.081 82.6237H668.847L661.622 120.126H652.791L648.548 100.4C648.28 99.0237 648.012 97.6092 647.745 96.1566C647.515 94.6656 647.286 93.06 647.057 91.3398H646.827C646.674 93.06 646.483 94.6656 646.254 96.1566C646.025 97.6092 645.757 99.0237 645.451 100.4L641.093 120.126H632.262Z" fill="#273469"/>
<path d="M680.362 120.126V82.6237H702.955V88.2433H687.013V97.8195H700.489V103.439H687.013V114.506H703.528V120.126H680.362Z" fill="#273469"/>
<path d="M716.951 120.126V82.6237H723.603V114.506H739.2V120.126H716.951Z" fill="#273469"/>
<path d="M751.469 120.126V82.6237H758.121V114.506H773.718V120.126H751.469Z" fill="#273469"/>
<path d="M785.987 120.126V82.6237H792.638V120.126H785.987Z" fill="#273469"/>
<path d="M807.905 120.126V82.6237H815.187L826.426 103.267C827.114 104.529 827.764 105.886 828.376 107.338C829.026 108.791 829.638 110.263 830.211 111.754H830.44C830.287 109.728 830.115 107.625 829.924 105.446C829.733 103.229 829.638 101.088 829.638 99.0237V82.6237H836.003V120.126H828.72L817.481 99.4824C816.793 98.2209 816.105 96.8638 815.417 95.4111C814.767 93.9584 814.155 92.4866 813.582 90.9957H813.352C813.582 92.9454 813.792 95.0288 813.983 97.2461C814.174 99.4251 814.27 101.585 814.27 103.726V120.126H807.905Z" fill="#273469"/>
<path d="M867.038 120.814C863.674 120.814 860.654 120.069 857.978 118.578C855.302 117.087 853.199 114.908 851.67 112.041C850.141 109.135 849.376 105.618 849.376 101.489C849.376 98.4312 849.816 95.6978 850.695 93.2894C851.613 90.881 852.874 88.8358 854.48 87.1537C856.124 85.4335 858.016 84.1337 860.157 83.2544C862.298 82.3752 864.61 81.9355 867.095 81.9355C869.771 81.9355 872.046 82.4134 873.919 83.3691C875.792 84.3248 877.302 85.4335 878.449 86.695L874.894 90.7663C873.976 89.8489 872.925 89.1225 871.74 88.5873C870.555 88.0139 869.083 87.7272 867.325 87.7272C865.107 87.7272 863.158 88.2815 861.476 89.3901C859.794 90.4605 858.494 92.0088 857.576 94.0349C856.659 96.061 856.2 98.4885 856.2 101.317C856.2 104.146 856.64 106.593 857.519 108.657C858.398 110.722 859.679 112.308 861.361 113.417C863.081 114.487 865.184 115.022 867.669 115.022C868.739 115.022 869.752 114.889 870.708 114.621C871.664 114.315 872.447 113.895 873.059 113.359V105.274H865.948V99.8265H879.023V116.341C877.761 117.603 876.079 118.673 873.976 119.552C871.912 120.393 869.599 120.814 867.038 120.814Z" fill="#273469"/>
<path d="M899.517 120.126V88.2433H888.679V82.6237H917.006V88.2433H906.169V120.126H899.517Z" fill="#273469"/>
<path d="M942.094 120.814C938.845 120.814 935.978 120.03 933.493 118.463C931.008 116.857 929.058 114.602 927.644 111.696C926.268 108.753 925.58 105.255 925.58 101.203C925.58 97.1505 926.268 93.6908 927.644 90.8237C929.058 87.9565 931.008 85.7584 933.493 84.2293C935.978 82.7001 938.845 81.9355 942.094 81.9355C945.382 81.9355 948.268 82.7001 950.753 84.2293C953.238 85.7584 955.168 87.9565 956.545 90.8237C957.959 93.6908 958.666 97.1505 958.666 101.203C958.666 105.255 957.959 108.753 956.545 111.696C955.168 114.602 953.238 116.857 950.753 118.463C948.268 120.03 945.382 120.814 942.094 120.814ZM942.094 115.022C944.082 115.022 945.783 114.468 947.198 113.359C948.651 112.213 949.778 110.607 950.581 108.543C951.384 106.44 951.785 103.993 951.785 101.203C951.785 98.412 951.384 96.0228 950.581 94.0349C949.778 92.0088 948.651 90.4605 947.198 89.3901C945.783 88.2815 944.082 87.7272 942.094 87.7272C940.145 87.7272 938.444 88.2815 936.991 89.3901C935.538 90.4605 934.41 92.0088 933.608 94.0349C932.805 96.0228 932.403 98.412 932.403 101.203C932.403 103.993 932.805 106.44 933.608 108.543C934.41 110.607 935.538 112.213 936.991 113.359C938.444 114.468 940.145 115.022 942.094 115.022Z" fill="#273469"/>
<path d="M971.903 120.126V82.6237H979.185L990.424 103.267C991.113 104.529 991.762 105.886 992.374 107.338C993.024 108.791 993.636 110.263 994.209 111.754H994.438C994.286 109.728 994.113 107.625 993.922 105.446C993.731 103.229 993.636 101.088 993.636 99.0237V82.6237H1000V120.126H992.718L981.479 99.4824C980.791 98.2209 980.103 96.8638 979.415 95.4111C978.765 93.9584 978.153 92.4866 977.58 90.9957H977.35C977.58 92.9454 977.79 95.0288 977.981 97.2461C978.172 99.4251 978.268 101.585 978.268 103.726V120.126H971.903Z" fill="#273469"/>
<path d="M643.329 189.625C640.08 189.625 637.213 188.842 634.728 187.274C632.243 185.669 630.294 183.413 628.879 180.508C627.503 177.564 626.815 174.066 626.815 170.014C626.815 165.962 627.503 162.502 628.879 159.635C630.294 156.768 632.243 154.57 634.728 153.041C637.213 151.511 640.08 150.747 643.329 150.747C646.617 150.747 649.503 151.511 651.988 153.041C654.473 154.57 656.404 156.768 657.78 159.635C659.194 162.502 659.902 165.962 659.902 170.014C659.902 174.066 659.194 177.564 657.78 180.508C656.404 183.413 654.473 185.669 651.988 187.274C649.503 188.842 646.617 189.625 643.329 189.625ZM643.329 183.834C645.317 183.834 647.019 183.279 648.433 182.171C649.886 181.024 651.013 179.418 651.816 177.354C652.619 175.251 653.02 172.805 653.02 170.014C653.02 167.223 652.619 164.834 651.816 162.846C651.013 160.82 649.886 159.272 648.433 158.201C647.019 157.093 645.317 156.539 643.329 156.539C641.38 156.539 639.679 157.093 638.226 158.201C636.773 159.272 635.646 160.82 634.843 162.846C634.04 164.834 633.639 167.223 633.639 170.014C633.639 172.805 634.04 175.251 634.843 177.354C635.646 179.418 636.773 181.024 638.226 182.171C639.679 183.279 641.38 183.834 643.329 183.834Z" fill="#273469"/>
<path d="M673.138 188.937V151.435H680.42L691.66 172.078C692.348 173.34 692.998 174.697 693.609 176.15C694.259 177.602 694.871 179.074 695.444 180.565H695.674C695.521 178.539 695.349 176.436 695.157 174.257C694.966 172.04 694.871 169.899 694.871 167.835V151.435H701.236V188.937H693.953L682.714 168.294C682.026 167.032 681.338 165.675 680.65 164.222C680 162.77 679.388 161.298 678.815 159.807H678.585C678.815 161.757 679.025 163.84 679.216 166.057C679.407 168.236 679.503 170.396 679.503 172.537V188.937H673.138Z" fill="#273469"/>
<path d="M728.899 188.937L741.113 151.435H748.912L761.126 188.937H754.13L748.396 168.982C747.784 166.994 747.192 164.949 746.618 162.846C746.083 160.744 745.548 158.66 745.013 156.596H744.783C744.286 158.698 743.751 160.801 743.178 162.904C742.642 164.968 742.069 166.994 741.457 168.982L735.666 188.937H728.899ZM736.124 178.788V173.569H753.786V178.788H736.124Z" fill="#273469"/>
<path d="M788.697 188.937V151.435H800.682C803.281 151.435 805.575 151.741 807.563 152.353C809.589 152.926 811.175 153.882 812.322 155.22C813.507 156.558 814.1 158.373 814.1 160.667C814.1 162.579 813.641 164.28 812.724 165.771C811.844 167.223 810.564 168.236 808.882 168.81V169.039C811.099 169.498 812.838 170.435 814.1 171.849C815.4 173.225 816.05 175.156 816.05 177.641C816.05 180.202 815.419 182.324 814.157 184.006C812.934 185.688 811.233 186.93 809.054 187.733C806.875 188.536 804.409 188.937 801.656 188.937H788.697ZM795.349 166.918H800.108C802.708 166.918 804.6 166.44 805.785 165.484C806.97 164.528 807.563 163.248 807.563 161.642C807.563 159.807 806.951 158.507 805.728 157.743C804.505 156.978 802.67 156.596 800.223 156.596H795.349V166.918ZM795.349 183.776H800.968C803.721 183.776 805.842 183.279 807.333 182.285C808.824 181.253 809.57 179.686 809.57 177.583C809.57 175.595 808.843 174.162 807.391 173.283C805.938 172.365 803.797 171.906 800.968 171.906H795.349V183.776Z" fill="#273469"/>
<path d="M828.647 188.937V151.435H851.24V157.055H835.298V166.631H848.774V172.25H835.298V183.318H851.813V188.937H828.647Z" fill="#273469"/>
<path d="M860.362 188.937L872.576 151.435H880.375L892.589 188.937H885.593L879.859 168.982C879.247 166.994 878.654 164.949 878.081 162.846C877.546 160.744 877.011 158.66 876.475 156.596H876.246C875.749 158.698 875.214 160.801 874.64 162.904C874.105 164.968 873.532 166.994 872.92 168.982L867.128 188.937H860.362ZM867.587 178.788V173.569H885.249V178.788H867.587Z" fill="#273469"/>
<path d="M917.467 189.625C914.294 189.625 911.408 188.88 908.808 187.389C906.247 185.898 904.202 183.719 902.673 180.852C901.182 177.946 900.436 174.429 900.436 170.301C900.436 167.243 900.876 164.509 901.755 162.101C902.634 159.654 903.858 157.59 905.425 155.908C907.031 154.226 908.866 152.945 910.93 152.066C912.994 151.187 915.211 150.747 917.582 150.747C919.952 150.747 922.054 151.225 923.889 152.18C925.724 153.098 927.234 154.207 928.419 155.506L924.864 159.578C923.908 158.584 922.838 157.838 921.653 157.341C920.506 156.806 919.206 156.539 917.754 156.539C915.766 156.539 913.969 157.093 912.363 158.201C910.796 159.31 909.554 160.877 908.636 162.904C907.719 164.93 907.26 167.338 907.26 170.129C907.26 172.996 907.7 175.462 908.579 177.526C909.458 179.552 910.7 181.119 912.306 182.228C913.912 183.298 915.785 183.834 917.926 183.834C919.531 183.834 920.965 183.509 922.226 182.859C923.488 182.209 924.635 181.349 925.667 180.278L929.05 184.235C927.521 185.994 925.801 187.332 923.889 188.249C921.978 189.167 919.837 189.625 917.467 189.625Z" fill="#273469"/>
<path d="M941.159 188.937V151.435H947.811V166.516H963.007V151.435H969.659V188.937H963.007V172.308H947.811V188.937H941.159Z" fill="#273469"/>
<path d="M300.989 48.0135L310.292 78.4995L330.575 49.8351C331.253 48.8707 331.761 48.2456 332.1 47.9599C332.439 47.6741 332.948 47.5312 333.625 47.5312C334.303 47.5312 335.167 48.2992 336.218 49.8351L355.128 78.178L364.279 48.0135H393.356L366.82 131.381C365.668 134.953 363.719 136.739 360.974 136.739C358.229 136.739 355.772 135.096 353.603 131.81L330.88 97.2519L306.429 131.917C304.226 134.989 301.769 136.525 299.058 136.525C296.347 136.525 294.364 134.739 293.11 131.167L264.541 48.0135H300.989Z" fill="#273469"/>
<path d="M468.44 81.5701C468.44 75.5339 465.443 72.5158 459.45 72.5158C456.86 72.5158 453.974 74.0873 450.793 77.2304C446.02 81.9808 442.691 87.642 440.804 94.214C440.212 96.2856 439.916 98.1964 439.916 99.9466C439.916 105.876 443.023 108.84 449.239 108.84C451.717 108.876 454.548 107.286 457.729 104.072C462.354 99.3572 465.628 93.6425 467.552 86.9277C468.144 84.8561 468.44 83.0702 468.44 81.5701ZM453.29 136.7C440.156 136.7 428.762 132.592 419.106 124.377C416.035 121.77 413.371 118.787 411.115 115.43C406.305 108.322 403.9 100.375 403.9 91.5887C403.9 82.7666 406.12 74.9624 410.56 68.1761C414.999 61.3899 420.955 56.1037 428.429 52.3177C435.902 48.5317 443.634 46.6387 451.625 46.6387C459.653 46.6387 466.719 47.6745 472.824 49.7461C478.928 51.8177 484.237 54.8 488.75 58.6932C493.301 62.5507 496.871 67.2832 499.461 72.8908C502.05 78.4984 503.345 84.8382 503.345 91.9102C503.345 100.697 501.033 108.519 496.408 115.376C491.784 122.198 485.624 127.467 477.929 131.181C470.234 134.86 462.021 136.7 453.29 136.7Z" fill="#273469"/>
<path d="M276.217 233.946L318.74 152.755C320.204 149.863 322.899 147.935 326.827 146.971C327.969 146.686 329.38 146.543 331.058 146.543C332.736 146.543 334.557 147.025 336.52 147.989C338.52 148.917 340.091 150.399 341.233 152.434L386.863 233.946H343.429L340.055 225.484H316.919L314.027 233.946H276.217ZM319.543 208.507H336.842L328.648 185.371L319.543 208.507Z" fill="#273469"/>
<path d="M408.488 147.245C427.875 146.353 441.8 145.906 450.262 145.906C466.007 145.906 477.307 147.691 484.162 151.262C490.303 154.475 493.374 159.349 493.374 165.882C493.374 169.81 492.338 173.112 490.268 175.79C488.232 178.432 485.108 180.717 480.895 182.645C486.179 184.431 490.25 186.965 493.106 190.25C496.855 194.57 498.729 200.497 498.729 208.031C498.729 224.276 486.162 232.863 461.026 233.791C457.42 233.934 454.617 234.005 452.618 234.005C450.619 234.005 448.887 233.987 447.423 233.952C445.959 233.916 444.281 233.862 442.389 233.791C440.532 233.755 438.497 233.702 436.284 233.63C434.106 233.594 431.892 233.523 429.643 233.416C427.393 233.345 425.18 233.273 423.002 233.202C420.824 233.13 418.789 233.041 416.896 232.934C415.004 232.863 413.326 232.809 411.862 232.773C410.398 232.702 409.274 232.63 408.488 232.559V147.245ZM463.115 199.515C463.115 196.516 461.348 195.017 457.813 195.017C455.135 194.981 450.976 196.534 445.334 199.676C444.013 200.39 442.889 200.997 441.96 201.497V214.993C442.46 214.814 442.924 214.636 443.353 214.457C443.817 214.279 444.852 213.886 446.459 213.279C452.172 211.137 456.063 209.37 458.134 207.977C461.49 205.728 463.151 202.907 463.115 199.515ZM441.96 186.394C448.03 184.038 452.065 182.163 454.064 180.771C458.206 177.986 460.276 174.987 460.276 171.774C460.276 169.524 459.098 168.078 456.742 167.436C456.099 167.257 455.421 167.168 454.707 167.168C453.993 167.168 453.154 167.293 452.19 167.543C451.261 167.793 450.333 168.114 449.405 168.507C447.977 169.042 446.388 169.828 444.638 170.863C442.924 171.863 442.032 172.398 441.96 172.47V186.394Z" fill="#273469"/>
<path d="M225.438 208.195C222.691 207.251 219.698 208.712 218.752 211.457C217.015 216.513 213.75 222.697 208.224 223.514C202.695 224.329 194.377 219.276 187.717 210.089C186.67 208.646 184.966 207.829 183.185 207.919C181.406 208.009 179.792 208.995 178.898 210.537C174.212 218.644 169.317 223.042 164.368 223.541C158.472 224.147 151.023 219.487 142.283 209.668C141.183 208.427 139.565 207.775 137.913 207.909C136.26 208.045 134.769 208.949 133.886 210.351C128.622 218.748 123.357 223.172 118.091 223.513C112.221 223.908 105.219 219.301 97.4003 209.852C96.3078 208.494 94.6111 207.763 92.8723 207.904C91.216 207.987 89.6938 208.844 88.7665 210.221C82.8964 219.013 77.0257 223.699 72.3655 223.488C66.5207 223.488 60.9683 216.301 57.3343 210.326H57.3361C56.475 208.822 54.9289 207.838 53.2028 207.693C51.5043 207.581 49.8573 208.297 48.7794 209.616C41.1465 218.881 34.143 223.513 27.7201 223.277C21.8499 223.065 15.717 218.565 9.55631 209.904L9.55814 209.906C7.87071 207.535 4.58392 206.98 2.21339 208.668C-0.157149 210.354 -0.70985 213.642 0.975802 216.011C9.1615 227.487 18.034 233.464 27.2994 233.78C35.6172 234.096 43.8048 230.041 52.1762 221.487C58.3881 229.593 64.9173 233.648 72.0237 233.806C79.1315 233.963 86.4744 229.858 93.452 221.301C102.06 230.225 110.299 234.305 118.512 233.806C125.804 233.332 132.596 229.12 138.808 221.222C148.31 230.541 156.997 234.674 165.315 233.806C172.08 233.121 178.266 229.094 183.741 221.828C190.979 229.726 198.983 233.938 206.642 233.938C207.639 233.947 208.633 233.878 209.617 233.729C215.62 232.835 223.779 228.806 228.649 214.671V214.669C229.464 212.001 228.056 209.16 225.437 208.195L225.438 208.195Z" fill="#1A96F0"/>
<path d="M111.265 172.823C119.685 173.139 127.973 169.084 136.447 160.53C142.735 168.636 149.345 172.691 156.539 172.849C163.734 173.006 171.167 168.901 178.23 160.344C186.464 168.768 194.219 172.874 202.211 172.874H203.624C212.552 172.296 220.784 166.24 228.059 154.843L228.057 154.845C229.632 152.388 228.892 149.134 226.405 147.579C223.918 146.024 220.626 146.754 219.052 149.211C213.723 157.608 208.394 162.031 203.063 162.373C197.12 162.768 190.033 158.161 182.118 148.712C181.033 147.366 179.352 146.63 177.615 146.736C175.938 146.819 174.397 147.676 173.458 149.054C167.516 157.845 161.573 162.531 156.856 162.32C150.939 162.188 145.319 155.133 141.64 149.158H141.642C140.77 147.655 139.205 146.67 137.458 146.527C135.739 146.415 134.071 147.131 132.98 148.448C125.253 157.713 118.164 162.346 111.662 162.109C105.72 161.898 99.5116 157.397 93.2752 148.736L93.2771 148.738C91.5689 146.367 88.2418 145.814 85.8421 147.5C83.4425 149.188 82.883 152.474 84.5893 154.845C92.9037 166.532 101.831 172.507 111.264 172.823L111.265 172.823Z" fill="#99C4EC"/>
<path d="M228.867 76.3135C228.867 98.1203 211.189 115.799 189.382 115.799C167.573 115.799 149.896 98.1203 149.896 76.3135C149.896 54.5049 167.573 36.8281 189.382 36.8281C211.189 36.8281 228.867 54.5049 228.867 76.3135Z" fill="#F3B700"/>
<path fill-rule="evenodd" clip-rule="evenodd" d="M557.245 271.805C554.43 271.805 552.148 269.523 552.148 266.708V5.09714C552.148 2.28207 554.43 0 557.245 0V0C560.06 0 562.342 2.28207 562.342 5.09714V266.708C562.342 269.523 560.06 271.805 557.245 271.805V271.805Z" fill="#1A96F0"/>
</svg>
