<svg width="600" height="164" viewBox="0 0 600 164" fill="none" xmlns="http://www.w3.org/2000/svg">
<path d="M379.357 72.0763L375.021 49.575H379.288L381.215 60.9289C381.398 62.1216 381.57 63.3258 381.731 64.5414C381.891 65.7342 382.04 66.9842 382.178 68.2917H382.315C382.522 66.9842 382.74 65.7342 382.969 64.5414C383.199 63.3258 383.439 62.1216 383.692 60.9289L386.307 49.575H390.229L392.775 60.9289C393.027 62.0986 393.279 63.2914 393.532 64.507C393.784 65.7227 394.013 66.9842 394.22 68.2917H394.357C394.495 66.9842 394.644 65.7342 394.805 64.5414C394.988 63.3258 395.16 62.1216 395.321 60.9289L397.248 49.575H401.307L396.972 72.0763H391.674L389.128 60.2407C388.967 59.415 388.807 58.5663 388.646 57.6947C388.509 56.8002 388.371 55.8368 388.233 54.8046H388.096C388.004 55.8368 387.889 56.8002 387.752 57.6947C387.614 58.5663 387.453 59.415 387.27 60.2407L384.655 72.0763H379.357Z" fill="#273469"/>
<path d="M408.216 72.0763V49.575H421.772V52.9467H412.207V58.6925H420.293V62.0642H412.207V68.7045H422.116V72.0763H408.216Z" fill="#273469"/>
<path d="M430.17 72.0763V49.575H434.161V68.7045H443.519V72.0763H430.17Z" fill="#273469"/>
<path d="M450.881 72.0763V49.575H454.872V68.7045H464.23V72.0763H450.881Z" fill="#273469"/>
<path d="M471.591 72.0763V49.575H475.582V72.0763H471.591Z" fill="#273469"/>
<path d="M484.742 72.0763V49.575H489.111L495.855 61.961C496.268 62.7179 496.658 63.5322 497.025 64.4038C497.415 65.2754 497.782 66.1585 498.126 67.0531H498.263C498.172 65.8374 498.068 64.5759 497.954 63.2684C497.839 61.9381 497.782 60.6536 497.782 59.415V49.575H501.601V72.0763H497.231L490.488 59.6902C490.075 58.9333 489.662 58.1191 489.249 57.2474C488.859 56.3758 488.492 55.4928 488.148 54.5982H488.011C488.148 55.768 488.274 57.0181 488.389 58.3484C488.504 59.6558 488.561 60.9518 488.561 62.2363V72.0763H484.742Z" fill="#273469"/>
<path d="M520.222 72.4892C518.204 72.4892 516.392 72.0419 514.786 71.1473C513.18 70.2528 511.919 68.9454 511.001 67.2251C510.084 65.4819 509.625 63.3717 509.625 60.8944C509.625 59.0595 509.889 57.4195 510.416 55.9744C510.967 54.5294 511.724 53.3023 512.687 52.293C513.673 51.2609 514.809 50.481 516.093 49.9534C517.378 49.4259 518.766 49.1621 520.256 49.1621C521.862 49.1621 523.227 49.4488 524.351 50.0223C525.475 50.5957 526.381 51.2609 527.069 52.0178L524.936 54.4606C524.385 53.9101 523.754 53.4743 523.043 53.1532C522.332 52.8091 521.449 52.6371 520.394 52.6371C519.064 52.6371 517.894 52.9697 516.885 53.6348C515.875 54.2771 515.096 55.206 514.545 56.4217C513.995 57.6374 513.719 59.0939 513.719 60.7912C513.719 62.4886 513.983 63.9566 514.511 65.1952C515.038 66.4338 515.807 67.3856 516.816 68.0508C517.848 68.6931 519.11 69.0142 520.6 69.0142C521.243 69.0142 521.851 68.9339 522.424 68.7733C522.997 68.5898 523.468 68.3375 523.835 68.0164V63.1652H519.568V59.8967H527.413V69.8055C526.656 70.5624 525.647 71.2047 524.385 71.7322C523.146 72.2368 521.759 72.4892 520.222 72.4892Z" fill="#273469"/>
<path d="M539.709 72.0763V52.9467H533.207V49.575H550.203V52.9467H543.7V72.0763H539.709Z" fill="#273469"/>
<path d="M565.256 72.4892C563.306 72.4892 561.586 72.0189 560.095 71.0785C558.604 70.1152 557.434 68.7619 556.586 67.0187C555.76 65.2525 555.347 63.1538 555.347 60.7224C555.347 58.2911 555.76 56.2153 556.586 54.495C557.434 52.7747 558.604 51.4558 560.095 50.5383C561.586 49.6209 563.306 49.1621 565.256 49.1621C567.228 49.1621 568.96 49.6209 570.451 50.5383C571.942 51.4558 573.1 52.7747 573.926 54.495C574.775 56.2153 575.199 58.2911 575.199 60.7224C575.199 63.1538 574.775 65.2525 573.926 67.0187C573.1 68.7619 571.942 70.1152 570.451 71.0785C568.96 72.0189 567.228 72.4892 565.256 72.4892ZM565.256 69.0142C566.449 69.0142 567.469 68.6816 568.318 68.0164C569.19 67.3283 569.866 66.3649 570.348 65.1263C570.83 63.8648 571.07 62.3968 571.07 60.7224C571.07 59.048 570.83 57.6144 570.348 56.4217C569.866 55.206 569.19 54.2771 568.318 53.6348C567.469 52.9697 566.449 52.6371 565.256 52.6371C564.086 52.6371 563.065 52.9697 562.194 53.6348C561.322 54.2771 560.645 55.206 560.164 56.4217C559.682 57.6144 559.441 59.048 559.441 60.7224C559.441 62.3968 559.682 63.8648 560.164 65.1263C560.645 66.3649 561.322 67.3283 562.194 68.0164C563.065 68.6816 564.086 69.0142 565.256 69.0142Z" fill="#273469"/>
<path d="M583.141 72.0763V49.575H587.51L594.254 61.961C594.667 62.7179 595.057 63.5322 595.424 64.4038C595.814 65.2754 596.181 66.1585 596.525 67.0531H596.662C596.571 65.8374 596.467 64.5759 596.353 63.2684C596.238 61.9381 596.181 60.6536 596.181 59.415V49.575H600V72.0763H595.63L588.887 59.6902C588.474 58.9333 588.061 58.1191 587.648 57.2474C587.258 56.3758 586.891 55.4928 586.547 54.5982H586.409C586.547 55.768 586.673 57.0181 586.788 58.3484C586.903 59.6558 586.96 60.9518 586.96 62.2363V72.0763H583.141Z" fill="#273469"/>
<path d="M385.997 113.776C384.047 113.776 382.327 113.306 380.836 112.365C379.345 111.402 378.175 110.049 377.327 108.305C376.501 106.539 376.088 104.441 376.088 102.009C376.088 99.5779 376.501 97.5021 377.327 95.7818C378.175 94.0615 379.345 92.7426 380.836 91.8251C382.327 90.9077 384.047 90.4489 385.997 90.4489C387.969 90.4489 389.701 90.9077 391.192 91.8251C392.683 92.7426 393.841 94.0615 394.667 95.7818C395.516 97.5021 395.94 99.5779 395.94 102.009C395.94 104.441 395.516 106.539 394.667 108.305C393.841 110.049 392.683 111.402 391.192 112.365C389.701 113.306 387.969 113.776 385.997 113.776ZM385.997 110.301C387.19 110.301 388.21 109.968 389.059 109.303C389.931 108.615 390.607 107.652 391.089 106.413C391.571 105.152 391.811 103.684 391.811 102.009C391.811 100.335 391.571 98.9012 391.089 97.7085C390.607 96.4928 389.931 95.5639 389.059 94.9217C388.21 94.2565 387.19 93.9239 385.997 93.9239C384.827 93.9239 383.806 94.2565 382.935 94.9217C382.063 95.5639 381.387 96.4928 380.905 97.7085C380.423 98.9012 380.182 100.335 380.182 102.009C380.182 103.684 380.423 105.152 380.905 106.413C381.387 107.652 382.063 108.615 382.935 109.303C383.806 109.968 384.827 110.301 385.997 110.301Z" fill="#273469"/>
<path d="M403.882 113.363V90.8618H408.251L414.995 103.248C415.408 104.005 415.798 104.819 416.165 105.691C416.555 106.562 416.922 107.445 417.266 108.34H417.403C417.312 107.124 417.208 105.863 417.094 104.555C416.979 103.225 416.922 101.94 416.922 100.702V90.8618H420.741V113.363H416.371L409.628 100.977C409.215 100.22 408.802 99.4059 408.389 98.5343C407.999 97.6626 407.632 96.7796 407.288 95.885H407.15C407.288 97.0548 407.414 98.3049 407.529 99.6352C407.644 100.943 407.701 102.239 407.701 103.523V113.363H403.882Z" fill="#273469"/>
<path d="M437.339 113.363L444.667 90.8618H449.346L456.675 113.363H452.477L449.037 101.39C448.67 100.197 448.314 98.9701 447.97 97.7085C447.649 96.447 447.328 95.1969 447.007 93.9583H446.869C446.571 95.2198 446.25 96.4814 445.906 97.7429C445.585 98.9815 445.241 100.197 444.874 101.39L441.399 113.363H437.339ZM441.674 107.273V104.142H452.271V107.273H441.674Z" fill="#273469"/>
<path d="M473.217 113.363V90.8618H480.408C481.968 90.8618 483.344 91.0453 484.537 91.4123C485.753 91.7563 486.704 92.3298 487.393 93.1326C488.104 93.9354 488.459 95.0249 488.459 96.4011C488.459 97.548 488.184 98.5687 487.633 99.4632C487.106 100.335 486.337 100.943 485.328 101.287V101.424C486.659 101.7 487.702 102.262 488.459 103.11C489.239 103.936 489.629 105.094 489.629 106.585C489.629 108.122 489.25 109.395 488.494 110.404C487.76 111.413 486.739 112.159 485.431 112.641C484.124 113.122 482.645 113.363 480.993 113.363H473.217ZM477.208 100.151H480.064C481.624 100.151 482.759 99.8646 483.47 99.2912C484.181 98.7178 484.537 97.9494 484.537 96.986C484.537 95.885 484.17 95.1052 483.436 94.6464C482.702 94.1877 481.601 93.9583 480.133 93.9583H477.208V100.151ZM477.208 110.267H480.58C482.232 110.267 483.505 109.968 484.399 109.372C485.294 108.753 485.741 107.812 485.741 106.551C485.741 105.358 485.305 104.498 484.434 103.97C483.562 103.42 482.278 103.145 480.58 103.145H477.208V110.267Z" fill="#273469"/>
<path d="M497.187 113.363V90.8618H510.743V94.2335H501.178V99.9793H509.264V103.351H501.178V109.991H511.087V113.363H497.187Z" fill="#273469"/>
<path d="M516.216 113.363L523.545 90.8618H528.224L535.552 113.363H531.355L527.914 101.39C527.547 100.197 527.192 98.9701 526.848 97.7085C526.527 96.447 526.206 95.1969 525.884 93.9583H525.747C525.449 95.2198 525.128 96.4814 524.783 97.7429C524.462 98.9815 524.118 100.197 523.751 101.39L520.276 113.363H516.216ZM520.552 107.273V104.142H531.148V107.273H520.552Z" fill="#273469"/>
<path d="M550.479 113.776C548.576 113.776 546.844 113.329 545.284 112.434C543.747 111.54 542.52 110.232 541.603 108.512C540.708 106.769 540.261 104.658 540.261 102.181C540.261 100.346 540.525 98.7063 541.052 97.2612C541.58 95.7933 542.314 94.5547 543.254 93.5454C544.218 92.5362 545.319 91.7678 546.557 91.2403C547.796 90.7127 549.126 90.4489 550.548 90.4489C551.97 90.4489 553.232 90.7356 554.333 91.3091C555.434 91.8596 556.34 92.5247 557.051 93.3046L554.918 95.7474C554.344 95.151 553.702 94.7038 552.991 94.4056C552.303 94.0845 551.523 93.9239 550.651 93.9239C549.459 93.9239 548.381 94.2565 547.417 94.9217C546.477 95.5868 545.731 96.5273 545.181 97.7429C544.63 98.9586 544.355 100.404 544.355 102.078C544.355 103.798 544.619 105.278 545.146 106.516C545.674 107.732 546.42 108.672 547.383 109.338C548.346 109.98 549.47 110.301 550.755 110.301C551.718 110.301 552.578 110.106 553.335 109.716C554.092 109.326 554.78 108.81 555.399 108.168L557.429 110.542C556.512 111.597 555.48 112.4 554.333 112.95C553.186 113.501 551.901 113.776 550.479 113.776Z" fill="#273469"/>
<path d="M564.695 113.363V90.8618H568.686V99.9105H577.803V90.8618H581.794V113.363H577.803V103.385H568.686V113.363H564.695Z" fill="#273469"/>
<path d="M180.594 28.8089L186.175 47.1005L198.345 29.9019C198.752 29.3232 199.057 28.9482 199.26 28.7767C199.464 28.6053 199.769 28.5195 200.175 28.5195C200.582 28.5195 201.1 28.9803 201.731 29.9019L213.077 46.9076L218.567 28.8089H236.014L220.092 78.8295C219.401 80.9726 218.232 82.0442 216.585 82.0442C214.938 82.0442 213.463 81.0584 212.162 79.0867L198.528 58.3519L183.857 79.151C182.536 80.9941 181.061 81.9156 179.435 81.9156C177.808 81.9156 176.618 80.8441 175.866 78.7009L158.725 28.8089H180.594Z" fill="#273469"/>
<path d="M281.063 48.9432C281.063 45.3215 279.265 43.5106 275.669 43.5106C274.116 43.5106 272.384 44.4536 270.475 46.3394C267.612 49.1897 265.614 52.5864 264.482 56.5295C264.127 57.7725 263.949 58.919 263.949 59.9691C263.949 63.5265 265.814 65.3053 269.543 65.3053C271.03 65.3267 272.728 64.373 274.637 62.4443C277.412 59.6155 279.376 56.1867 280.531 52.1578C280.886 50.9148 281.063 49.8433 281.063 48.9432ZM271.973 82.0209C264.093 82.0209 257.257 79.5564 251.463 74.6274C249.621 73.063 248.022 71.2736 246.668 69.2591C243.783 64.9945 242.34 60.2263 242.34 54.9544C242.34 49.6611 243.672 44.9786 246.335 40.9069C248.999 36.8351 252.573 33.6634 257.057 31.3918C261.541 29.1202 266.18 27.9844 270.975 27.9844C275.791 27.9844 280.031 28.6059 283.694 29.8488C287.356 31.0918 290.542 32.8812 293.25 35.2171C295.98 37.5316 298.122 40.3711 299.676 43.7357C301.23 47.1002 302.007 50.9041 302.007 55.1473C302.007 60.4191 300.619 65.1124 297.845 69.227C295.07 73.3202 291.374 76.4812 286.757 78.7099C282.14 80.9172 277.212 82.0209 271.973 82.0209Z" fill="#273469"/>
<path d="M165.73 140.369L191.244 91.6552C192.123 89.92 193.74 88.7632 196.096 88.1848C196.782 88.0134 197.628 87.9277 198.635 87.9277C199.642 87.9277 200.734 88.2169 201.913 88.7953C203.112 89.3523 204.055 90.2413 204.74 91.4624L232.118 140.369H206.058L204.033 135.292H190.152L188.417 140.369H165.73ZM191.726 125.106H202.105L197.189 111.224L191.726 125.106Z" fill="#273469"/>
<path d="M245.094 88.3483C256.726 87.8127 265.081 87.5449 270.158 87.5449C279.605 87.5449 286.385 88.616 290.498 90.7583C294.183 92.6863 296.025 95.6104 296.025 99.5306C296.025 101.887 295.404 103.869 294.161 105.475C292.94 107.061 291.066 108.432 288.538 109.588C291.708 110.659 294.151 112.18 295.864 114.151C298.114 116.743 299.238 120.299 299.238 124.82C299.238 134.567 291.698 139.719 276.617 140.276C274.453 140.361 272.771 140.404 271.572 140.404C270.372 140.404 269.333 140.394 268.455 140.372C267.576 140.351 266.57 140.319 265.434 140.276C264.32 140.254 263.099 140.222 261.771 140.179C260.464 140.158 259.136 140.115 257.786 140.051C256.437 140.008 255.109 139.965 253.802 139.922C252.495 139.879 251.274 139.826 250.139 139.762C249.003 139.719 247.996 139.687 247.118 139.665C246.24 139.622 245.565 139.579 245.094 139.537V88.3483ZM277.87 119.71C277.87 117.911 276.809 117.011 274.689 117.011C273.082 116.99 270.586 117.922 267.201 119.807C266.409 120.235 265.734 120.599 265.177 120.899V128.997C265.477 128.89 265.755 128.783 266.013 128.676C266.291 128.568 266.912 128.333 267.876 127.969C271.304 126.683 273.639 125.623 274.881 124.787C276.895 123.438 277.891 121.745 277.87 119.71ZM265.177 111.838C268.819 110.424 271.24 109.299 272.439 108.464C274.924 106.793 276.167 104.993 276.167 103.065C276.167 101.716 275.46 100.848 274.046 100.463C273.66 100.355 273.253 100.302 272.825 100.302C272.396 100.302 271.893 100.377 271.315 100.527C270.758 100.677 270.201 100.87 269.644 101.105C268.787 101.427 267.833 101.898 266.784 102.519C265.755 103.119 265.22 103.44 265.177 103.483V111.838Z" fill="#273469"/>
<path d="M135.263 124.915C133.615 124.349 131.819 125.226 131.251 126.873C130.209 129.906 128.25 133.616 124.934 134.107C121.617 134.596 116.626 131.564 112.63 126.052C112.002 125.186 110.98 124.696 109.911 124.75C108.844 124.804 107.875 125.395 107.339 126.321C104.527 131.185 101.59 133.823 98.6209 134.123C95.0833 134.487 90.6136 131.69 85.3696 125.799C84.7097 125.055 83.7391 124.664 82.7475 124.744C81.756 124.826 80.8614 125.368 80.3315 126.209C77.1729 131.247 74.0144 133.901 70.8544 134.106C67.3323 134.343 63.1313 131.579 58.4402 125.91C57.7847 125.095 56.7667 124.656 55.7234 124.741C54.7296 124.79 53.8163 125.305 53.2599 126.131C49.7378 131.406 46.2154 134.218 43.4193 134.091C39.9124 134.091 36.581 129.779 34.4006 126.194H34.4017C33.885 125.292 32.9573 124.701 31.9217 124.614C30.9026 124.547 29.9144 124.977 29.2677 125.768C24.6879 131.327 20.4858 134.107 16.632 133.964C13.1099 133.838 9.43018 131.138 5.73379 125.941L5.73489 125.942C4.72242 124.519 2.75035 124.187 1.32803 125.199C-0.0942895 126.211 -0.42591 128.184 0.585481 129.605C5.4969 136.491 10.8204 140.077 16.3796 140.266C21.3703 140.456 26.2829 138.023 31.3057 132.89C35.0328 137.754 38.9504 140.187 43.2142 140.282C47.4789 140.377 51.8847 137.913 56.0712 132.779C61.2359 138.133 66.1795 140.581 71.1073 140.282C75.4823 139.998 79.5575 137.47 83.2846 132.732C88.986 138.323 94.1981 140.803 99.189 140.282C103.248 139.871 106.959 137.455 110.245 133.095C114.588 137.834 119.39 140.361 123.985 140.361C124.584 140.367 125.18 140.325 125.77 140.236C129.372 139.699 134.268 137.282 137.189 128.801V128.8C137.678 127.199 136.833 125.495 135.262 124.915L135.263 124.915Z" fill="#1A96F0"/>
<path d="M66.7582 103.692C71.8101 103.882 76.783 101.449 81.8675 96.3166C85.6405 101.181 89.6061 103.613 93.9223 103.708C98.2394 103.803 102.699 101.339 106.937 96.2052C111.878 101.26 116.531 103.723 121.326 103.723H122.174C127.53 103.376 132.469 99.7428 136.835 92.9045L136.834 92.9056C137.778 91.4315 137.334 89.4794 135.842 88.5461C134.35 87.613 132.375 88.0514 131.43 89.5255C128.233 94.5636 125.036 97.2176 121.837 97.4226C118.271 97.6595 114.019 94.8953 109.27 89.226C108.619 88.4184 107.611 87.9767 106.568 88.0406C105.562 88.0901 104.637 88.6047 104.074 89.4309C100.509 94.7059 96.9432 97.5176 94.1128 97.3909C90.5628 97.3116 87.1905 93.0788 84.9832 89.4938H84.9844C84.4613 88.5915 83.5223 88.001 82.4739 87.9151C81.4423 87.8479 80.4419 88.2775 79.7873 89.0674C75.1513 94.6267 70.8976 97.4062 66.9965 97.2641C63.4311 97.1374 59.7062 94.4372 55.9644 89.2403L55.9655 89.2414C54.9406 87.8191 52.9443 87.4875 51.5045 88.4989C50.0647 89.5113 49.729 91.4834 50.7528 92.9057C55.7414 99.9181 61.0977 103.503 66.7578 103.693L66.7582 103.692Z" fill="#99C4EC"/>
<path d="M137.32 45.787C137.32 58.871 126.713 69.4782 113.629 69.4782C100.544 69.4782 89.9375 58.871 89.9375 45.787C89.9375 32.7018 100.544 22.0957 113.629 22.0957C126.713 22.0957 137.32 32.7018 137.32 45.787Z" fill="#F3B700"/>
<path fill-rule="evenodd" clip-rule="evenodd" d="M334.346 163.083C332.657 163.083 331.288 161.714 331.288 160.025V3.05828C331.288 1.36924 332.657 0 334.346 0V0C336.035 0 337.404 1.36924 337.404 3.05828V160.025C337.404 161.714 336.035 163.083 334.346 163.083V163.083Z" fill="#1A96F0"/>
</svg>
