<svg width="480" height="131" viewBox="0 0 480 131" fill="none" xmlns="http://www.w3.org/2000/svg">
<path d="M303.486 57.6614L300.018 39.6604H303.431L304.972 48.7435C305.119 49.6977 305.256 50.661 305.385 51.6336C305.513 52.5877 305.633 53.5878 305.743 54.6337H305.853C306.018 53.5878 306.192 52.5877 306.376 51.6336C306.559 50.661 306.752 49.6977 306.954 48.7435L309.046 39.6604H312.183L314.22 48.7435C314.422 49.6793 314.624 50.6335 314.826 51.606C315.028 52.5786 315.211 53.5878 315.376 54.6337H315.486C315.596 53.5878 315.716 52.5877 315.844 51.6336C315.991 50.661 316.129 49.6977 316.257 48.7435L317.798 39.6604H321.046L317.578 57.6614H313.339L311.303 48.193C311.174 47.5324 311.046 46.8535 310.917 46.1562C310.807 45.4405 310.697 44.6698 310.587 43.8441H310.477C310.404 44.6698 310.312 45.4405 310.202 46.1562C310.092 46.8535 309.963 47.5324 309.816 48.193L307.724 57.6614H303.486Z" fill="#273469"/>
<path d="M326.573 57.6614V39.6604H337.418V42.3578H329.766V46.9544H336.235V49.6518H329.766V54.964H337.693V57.6614H326.573Z" fill="#273469"/>
<path d="M344.136 57.6614V39.6604H347.329V54.964H354.816V57.6614H344.136Z" fill="#273469"/>
<path d="M360.705 57.6614V39.6604H363.898V54.964H371.384V57.6614H360.705Z" fill="#273469"/>
<path d="M377.273 57.6614V39.6604H380.466V57.6614H377.273Z" fill="#273469"/>
<path d="M387.794 57.6614V39.6604H391.29L396.684 49.5692C397.015 50.1748 397.327 50.8262 397.62 51.5235C397.932 52.2207 398.226 52.9272 398.501 53.6428H398.611C398.538 52.6703 398.455 51.6611 398.363 50.6151C398.272 49.5509 398.226 48.5233 398.226 47.5324V39.6604H401.281V57.6614H397.785L392.391 47.7526C392.06 47.1471 391.73 46.4956 391.4 45.7983C391.088 45.1011 390.794 44.3946 390.519 43.679H390.409C390.519 44.6148 390.62 45.6149 390.712 46.6791C390.803 47.7251 390.849 48.7618 390.849 49.7894V57.6614H387.794Z" fill="#273469"/>
<path d="M416.178 57.9917C414.563 57.9917 413.114 57.6339 411.829 56.9183C410.545 56.2026 409.535 55.1567 408.802 53.7805C408.068 52.3859 407.701 50.6977 407.701 48.716C407.701 47.248 407.912 45.936 408.334 44.7799C408.774 43.6239 409.38 42.6422 410.15 41.8348C410.939 41.0091 411.848 40.3852 412.875 39.9631C413.903 39.5411 415.013 39.3301 416.206 39.3301C417.49 39.3301 418.582 39.5594 419.481 40.0182C420.38 40.4769 421.105 41.0091 421.655 41.6146L419.949 43.5689C419.509 43.1285 419.004 42.7798 418.435 42.5229C417.866 42.2477 417.16 42.1101 416.316 42.1101C415.251 42.1101 414.316 42.3761 413.508 42.9083C412.701 43.4221 412.077 44.1652 411.637 45.1378C411.196 46.1103 410.976 47.2755 410.976 48.6334C410.976 49.9913 411.187 51.1656 411.609 52.1565C412.031 53.1474 412.646 53.9089 413.453 54.4411C414.279 54.9549 415.288 55.2117 416.481 55.2117C416.995 55.2117 417.481 55.1475 417.94 55.0191C418.398 54.8723 418.775 54.6704 419.068 54.4135V50.5326H415.655V47.9177H421.931V55.8448C421.325 56.4504 420.518 56.9641 419.509 57.3862C418.518 57.7899 417.408 57.9917 416.178 57.9917Z" fill="#273469"/>
<path d="M431.768 57.6614V42.3578H426.566V39.6604H440.163V42.3578H434.961V57.6614H431.768Z" fill="#273469"/>
<path d="M452.205 57.9917C450.645 57.9917 449.269 57.6156 448.076 56.8632C446.884 56.0925 445.948 55.0099 445.269 53.6153C444.608 52.2024 444.278 50.5234 444.278 48.5783C444.278 46.6333 444.608 44.9726 445.269 43.5964C445.948 42.2202 446.884 41.165 448.076 40.4311C449.269 39.6971 450.645 39.3301 452.205 39.3301C453.783 39.3301 455.169 39.6971 456.361 40.4311C457.554 41.165 458.481 42.2202 459.141 43.5964C459.82 44.9726 460.16 46.6333 460.16 48.5783C460.16 50.5234 459.82 52.2024 459.141 53.6153C458.481 55.0099 457.554 56.0925 456.361 56.8632C455.169 57.6156 453.783 57.9917 452.205 57.9917ZM452.205 55.2117C453.159 55.2117 453.976 54.9457 454.655 54.4135C455.352 53.863 455.893 53.0924 456.279 52.1015C456.664 51.0922 456.857 49.9179 456.857 48.5783C456.857 47.2388 456.664 46.0919 456.279 45.1378C455.893 44.1652 455.352 43.4221 454.655 42.9083C453.976 42.3761 453.159 42.1101 452.205 42.1101C451.269 42.1101 450.453 42.3761 449.755 42.9083C449.058 43.4221 448.517 44.1652 448.132 45.1378C447.746 46.0919 447.553 47.2388 447.553 48.5783C447.553 49.9179 447.746 51.0922 448.132 52.1015C448.517 53.0924 449.058 53.863 449.755 54.4135C450.453 54.9457 451.269 55.2117 452.205 55.2117Z" fill="#273469"/>
<path d="M466.513 57.6614V39.6604H470.009L475.404 49.5692C475.734 50.1748 476.046 50.8262 476.339 51.5235C476.651 52.2207 476.945 52.9272 477.22 53.6428H477.33C477.257 52.6703 477.174 51.6611 477.083 50.6151C476.991 49.5509 476.945 48.5233 476.945 47.5324V39.6604H480V57.6614H476.505L471.11 47.7526C470.779 47.1471 470.449 46.4956 470.119 45.7983C469.807 45.1011 469.513 44.3946 469.238 43.679H469.128C469.238 44.6148 469.339 45.6149 469.431 46.6791C469.523 47.7251 469.568 48.7618 469.568 49.7894V57.6614H466.513Z" fill="#273469"/>
<path d="M308.798 91.0212C307.238 91.0212 305.862 90.645 304.669 89.8927C303.476 89.122 302.541 88.0394 301.862 86.6448C301.201 85.2319 300.871 83.5529 300.871 81.6078C300.871 79.6627 301.201 78.0021 301.862 76.6259C302.541 75.2496 303.476 74.1945 304.669 73.4605C305.862 72.7265 307.238 72.3595 308.798 72.3595C310.376 72.3595 311.761 72.7265 312.954 73.4605C314.147 74.1945 315.074 75.2496 315.734 76.6259C316.413 78.0021 316.753 79.6627 316.753 81.6078C316.753 83.5529 316.413 85.2319 315.734 86.6448C315.074 88.0394 314.147 89.122 312.954 89.8927C311.761 90.645 310.376 91.0212 308.798 91.0212ZM308.798 88.2412C309.752 88.2412 310.569 87.9751 311.248 87.443C311.945 86.8925 312.486 86.1218 312.872 85.1309C313.257 84.1217 313.45 82.9473 313.45 81.6078C313.45 80.2683 313.257 79.1214 312.872 78.1672C312.486 77.1947 311.945 76.4515 311.248 75.9377C310.569 75.4056 309.752 75.1395 308.798 75.1395C307.862 75.1395 307.046 75.4056 306.348 75.9377C305.651 76.4515 305.11 77.1947 304.724 78.1672C304.339 79.1214 304.146 80.2683 304.146 81.6078C304.146 82.9473 304.339 84.1217 304.724 85.1309C305.11 86.1218 305.651 86.8925 306.348 87.443C307.046 87.9751 307.862 88.2412 308.798 88.2412Z" fill="#273469"/>
<path d="M323.106 90.6909V72.6898H326.602L331.996 82.5987C332.327 83.2042 332.639 83.8556 332.932 84.5529C333.244 85.2502 333.538 85.9567 333.813 86.6723H333.923C333.85 85.6998 333.767 84.6905 333.675 83.6446C333.584 82.5803 333.538 81.5527 333.538 80.5619V72.6898H336.593V90.6909H333.097L327.703 80.7821C327.372 80.1765 327.042 79.5251 326.712 78.8278C326.4 78.1305 326.106 77.4241 325.831 76.7084H325.721C325.831 77.6443 325.932 78.6443 326.024 79.7086C326.115 80.7545 326.161 81.7913 326.161 82.8189V90.6909H323.106Z" fill="#273469"/>
<path d="M349.871 90.6909L355.734 72.6898H359.478L365.34 90.6909H361.982L359.23 81.1124C358.936 80.1582 358.652 79.1765 358.377 78.1672C358.12 77.158 357.863 76.1579 357.606 75.1671H357.496C357.257 76.1763 357 77.1855 356.725 78.1948C356.468 79.1856 356.193 80.1582 355.899 81.1124L353.119 90.6909H349.871ZM353.34 85.8191V83.3143H361.817V85.8191H353.34Z" fill="#273469"/>
<path d="M378.574 90.6909V72.6898H384.327C385.575 72.6898 386.676 72.8366 387.63 73.1302C388.602 73.4055 389.364 73.8642 389.914 74.5065C390.483 75.1487 390.768 76.0203 390.768 77.1213C390.768 78.0388 390.548 78.8553 390.107 79.571C389.685 80.2683 389.07 80.7545 388.263 81.0298V81.1399C389.327 81.3601 390.162 81.8096 390.768 82.4886C391.392 83.1492 391.704 84.0758 391.704 85.2686C391.704 86.498 391.401 87.5164 390.795 88.3238C390.208 89.1312 389.392 89.7275 388.346 90.1129C387.3 90.4982 386.116 90.6909 384.795 90.6909H378.574ZM381.767 80.1215H384.052C385.3 80.1215 386.208 79.8921 386.777 79.4334C387.346 78.9746 387.63 78.3599 387.63 77.5892C387.63 76.7084 387.336 76.0845 386.749 75.7175C386.162 75.3506 385.281 75.1671 384.107 75.1671H381.767V80.1215ZM381.767 88.2137H384.465C385.786 88.2137 386.804 87.9751 387.52 87.4981C388.235 87.0026 388.593 86.2503 388.593 85.241C388.593 84.2869 388.245 83.5987 387.547 83.1767C386.85 82.7363 385.823 82.5161 384.465 82.5161H381.767V88.2137Z" fill="#273469"/>
<path d="M397.75 90.6909V72.6898H408.595V75.3872H400.943V79.9839H407.411V82.6813H400.943V87.9935H408.87V90.6909H397.75Z" fill="#273469"/>
<path d="M412.974 90.6909L418.836 72.6898H422.58L428.442 90.6909H425.084L422.332 81.1124C422.038 80.1582 421.754 79.1765 421.479 78.1672C421.222 77.158 420.965 76.1579 420.708 75.1671H420.598C420.359 76.1763 420.102 77.1855 419.827 78.1948C419.57 79.1856 419.295 80.1582 419.002 81.1124L416.222 90.6909H412.974ZM416.442 85.8191V83.3143H424.919V85.8191H416.442Z" fill="#273469"/>
<path d="M440.384 91.0212C438.861 91.0212 437.476 90.6634 436.228 89.9477C434.998 89.2321 434.017 88.1862 433.283 86.8099C432.567 85.4154 432.209 83.7272 432.209 81.7454C432.209 80.2774 432.42 78.9654 432.842 77.8094C433.264 76.635 433.851 75.6441 434.604 74.8368C435.375 74.0294 436.255 73.4147 437.246 72.9926C438.237 72.5706 439.301 72.3595 440.439 72.3595C441.577 72.3595 442.586 72.5889 443.467 73.0477C444.348 73.4881 445.072 74.0202 445.641 74.6441L443.935 76.5983C443.476 76.1212 442.962 75.7634 442.393 75.5249C441.843 75.268 441.219 75.1395 440.522 75.1395C439.567 75.1395 438.705 75.4056 437.934 75.9377C437.182 76.4699 436.586 77.2222 436.145 78.1948C435.705 79.1673 435.485 80.3233 435.485 81.6628C435.485 83.0391 435.696 84.2226 436.118 85.2135C436.54 86.1861 437.136 86.9384 437.907 87.4705C438.677 87.9843 439.577 88.2412 440.604 88.2412C441.375 88.2412 442.063 88.0852 442.669 87.7733C443.274 87.4614 443.825 87.0485 444.32 86.5347L445.944 88.4339C445.21 89.278 444.384 89.9202 443.467 90.3606C442.549 90.801 441.522 91.0212 440.384 91.0212Z" fill="#273469"/>
<path d="M451.756 90.6909V72.6898H454.949V79.9288H462.243V72.6898H465.436V90.6909H462.243V82.7088H454.949V90.6909H451.756Z" fill="#273469"/>
<path d="M144.476 23.0479L148.941 37.6812L158.677 23.9223C159.002 23.4593 159.246 23.1593 159.409 23.0221C159.572 22.885 159.816 22.8164 160.141 22.8164C160.466 22.8164 160.881 23.185 161.385 23.9223L170.462 37.5269L174.855 23.0479H188.812L176.075 63.0644C175.522 64.7789 174.586 65.6362 173.269 65.6362C171.951 65.6362 170.772 64.8475 169.73 63.2702L158.823 46.6823L147.087 63.3216C146.029 64.7961 144.85 65.5333 143.549 65.5333C142.247 65.5333 141.296 64.6761 140.694 62.9615L126.98 23.0479H144.476Z" fill="#273469"/>
<path d="M224.852 39.1558C224.852 36.2584 223.413 34.8097 220.537 34.8097C219.294 34.8097 217.909 35.564 216.381 37.0727C214.091 39.3529 212.492 42.0703 211.587 45.2248C211.303 46.2192 211.16 47.1364 211.16 47.9765C211.16 50.8224 212.652 52.2454 215.635 52.2454C216.825 52.2625 218.184 51.4996 219.711 49.9566C221.931 47.6936 223.502 44.9505 224.426 41.7274C224.71 40.733 224.852 39.8758 224.852 39.1558ZM217.58 65.6179C211.276 65.6179 205.806 63.6463 201.172 59.7031C199.698 58.4516 198.419 57.0201 197.336 55.4085C195.027 51.9968 193.873 48.1822 193.873 43.9647C193.873 39.7301 194.939 35.9841 197.069 32.7267C199.2 29.4693 202.059 26.9319 205.647 25.1146C209.234 23.2973 212.945 22.3887 216.781 22.3887C220.634 22.3887 224.026 22.8859 226.956 23.8802C229.886 24.8746 232.435 26.3061 234.601 28.1749C236.785 30.0264 238.499 32.2981 239.742 34.9897C240.985 37.6813 241.607 40.7245 241.607 44.119C241.607 48.3365 240.497 52.0911 238.277 55.3828C236.057 58.6573 233.1 61.1861 229.407 62.9691C225.713 64.735 221.771 65.6179 217.58 65.6179Z" fill="#273469"/>
<path d="M132.584 112.297L152.995 73.3257C153.698 71.9376 154.992 71.0121 156.877 70.5494C157.425 70.4123 158.102 70.3438 158.908 70.3438C159.713 70.3438 160.587 70.5751 161.53 71.0378C162.489 71.4834 163.243 72.1946 163.792 73.1715L185.694 112.297H164.846L163.226 108.235H152.121L150.733 112.297H132.584ZM153.381 100.086H161.684L157.751 88.9811L153.381 100.086Z" fill="#273469"/>
<path d="M196.076 70.6798C205.382 70.2513 212.066 70.0371 216.127 70.0371C223.685 70.0371 229.109 70.894 232.4 72.6078C235.347 74.1502 236.821 76.4895 236.821 79.6257C236.821 81.5109 236.324 83.0961 235.33 84.3814C234.353 85.6496 232.854 86.7464 230.832 87.6719C233.368 88.5288 235.322 89.7456 236.693 91.3222C238.492 93.3959 239.392 96.2408 239.392 99.8568C239.392 107.655 233.359 111.776 221.294 112.222C219.563 112.29 218.218 112.325 217.258 112.325C216.299 112.325 215.468 112.316 214.765 112.299C214.062 112.282 213.257 112.256 212.348 112.222C211.457 112.205 210.48 112.179 209.418 112.145C208.373 112.127 207.31 112.093 206.23 112.042C205.151 112.008 204.088 111.973 203.043 111.939C201.997 111.905 201.02 111.862 200.112 111.81C199.204 111.776 198.398 111.75 197.696 111.733C196.993 111.699 196.453 111.665 196.076 111.631V70.6798ZM222.297 95.7695C222.297 94.3299 221.449 93.6101 219.752 93.6101C218.467 93.593 216.47 94.3385 213.762 95.8466C213.128 96.1894 212.588 96.4807 212.143 96.7206V103.199C212.383 103.113 212.606 103.027 212.811 102.942C213.034 102.856 213.531 102.667 214.302 102.376C217.044 101.348 218.912 100.5 219.906 99.8311C221.517 98.7515 222.314 97.3976 222.297 95.7695ZM212.143 89.4714C215.056 88.3403 216.993 87.4405 217.953 86.7722C219.941 85.4354 220.935 83.9958 220.935 82.4534C220.935 81.3738 220.369 80.6797 219.238 80.3712C218.929 80.2855 218.604 80.2427 218.261 80.2427C217.918 80.2427 217.516 80.3026 217.053 80.4226C216.607 80.5426 216.162 80.6968 215.716 80.8853C215.031 81.1424 214.268 81.5194 213.428 82.0164C212.606 82.4963 212.177 82.7533 212.143 82.7876V89.4714Z" fill="#273469"/>
<path d="M108.21 99.9317C106.892 99.4787 105.455 100.18 105.001 101.498C104.167 103.924 102.6 106.893 99.9474 107.285C97.2936 107.676 93.301 105.251 90.1043 100.841C89.6019 100.148 88.784 99.7562 87.929 99.7993C87.075 99.8425 86.3003 100.316 85.871 101.056C83.6218 104.947 81.272 107.058 78.8968 107.298C76.0667 107.589 72.4909 105.352 68.2957 100.639C67.7678 100.043 66.9913 99.7305 66.1981 99.7949C65.4048 99.8601 64.6892 100.294 64.2652 100.967C61.7384 104.998 59.2115 107.121 56.6836 107.285C53.8659 107.474 50.5051 105.263 46.7522 100.727C46.2278 100.075 45.4134 99.7245 44.5787 99.7923C43.7837 99.832 43.0531 100.244 42.608 100.905C39.7903 105.125 36.9724 107.374 34.7355 107.273C31.93 107.273 29.2648 103.823 27.5205 100.955H27.5213C27.108 100.233 26.3659 99.7607 25.5374 99.691C24.7221 99.6373 23.9315 99.981 23.4141 100.614C19.7503 105.061 16.3887 107.285 13.3056 107.171C10.488 107.07 7.54415 104.91 4.58703 100.752L4.58791 100.753C3.77794 99.6152 2.20028 99.349 1.06243 100.159C-0.0754316 100.968 -0.340728 102.547 0.468385 103.684C4.39753 109.192 8.65631 112.061 13.1037 112.213C17.0963 112.364 21.0263 110.418 25.0446 106.312C28.0263 110.203 31.1603 112.149 34.5714 112.225C37.9832 112.301 41.5077 110.33 44.857 106.223C48.9888 110.506 52.9436 112.465 56.8859 112.225C60.3859 111.998 63.646 109.976 66.6277 106.185C71.1888 110.658 75.3585 112.642 79.3513 112.225C82.5983 111.896 85.5676 109.964 88.1958 106.476C91.6701 110.267 95.5121 112.289 99.1883 112.289C99.6669 112.293 100.144 112.26 100.616 112.188C103.497 111.759 107.414 109.825 109.751 103.04V103.04C110.143 101.759 109.467 100.395 108.21 99.9319L108.21 99.9317Z" fill="#1A96F0"/>
<path d="M53.4073 82.9555C57.4489 83.1071 61.4272 81.1611 65.4948 77.0548C68.5132 80.9461 71.6857 82.8921 75.1387 82.9679C78.5923 83.0437 82.1602 81.073 85.5506 76.9657C89.5031 81.0095 93.2254 82.9801 97.0616 82.9801H97.7397C102.025 82.7025 105.976 79.7958 109.469 74.3251L109.468 74.326C110.223 73.1467 109.868 71.5851 108.675 70.8384C107.481 70.0919 105.901 70.4427 105.145 71.622C102.587 75.6524 100.029 77.7756 97.4703 77.9397C94.618 78.1292 91.216 75.9178 87.4169 71.3824C86.8959 70.7363 86.0894 70.3829 85.2552 70.434C84.4504 70.4737 83.7108 70.8853 83.2602 71.5463C80.4079 75.7663 77.5554 78.0156 75.291 77.9143C72.4511 77.8508 69.7532 74.4646 67.9874 71.5966H67.9883C67.5698 70.8748 66.8186 70.4024 65.9799 70.3336C65.1547 70.2798 64.3544 70.6236 63.8306 71.2555C60.1218 75.7029 56.7189 77.9265 53.598 77.8128C50.7457 77.7115 47.7657 75.5513 44.7723 71.3938L44.7732 71.3947C43.9532 70.2569 42.3562 69.9916 41.2044 70.8007C40.0525 71.6106 39.784 73.1883 40.603 74.3262C44.5939 79.936 48.879 82.804 53.4071 82.9556L53.4073 82.9555Z" fill="#99C4EC"/>
<path d="M109.855 36.6307C109.855 47.098 101.369 55.5838 90.9022 55.5838C80.4341 55.5838 71.9492 47.098 71.9492 36.6307C71.9492 26.1626 80.4341 17.6777 90.9022 17.6777C101.369 17.6777 109.855 26.1626 109.855 36.6307Z" fill="#F3B700"/>
<path fill-rule="evenodd" clip-rule="evenodd" d="M267.477 130.466C266.126 130.466 265.031 129.371 265.031 128.02V2.44663C265.031 1.09539 266.126 0 267.477 0V0C268.828 0 269.924 1.09539 269.924 2.44662V128.02C269.924 129.371 268.828 130.466 267.477 130.466V130.466Z" fill="#1A96F0"/>
</svg>
