<svg width="420" height="115" viewBox="0 0 420 115" fill="none" xmlns="http://www.w3.org/2000/svg">
<path d="M265.55 50.454L262.516 34.7031H265.502L266.851 42.6508C266.979 43.4857 267.1 44.3286 267.212 45.1796C267.324 46.0145 267.429 46.8896 267.525 47.8048H267.621C267.766 46.8896 267.918 46.0145 268.079 45.1796C268.24 44.3286 268.408 43.4857 268.585 42.6508L270.415 34.7031H273.161L274.943 42.6508C275.12 43.4696 275.296 44.3046 275.473 45.1555C275.649 46.0065 275.81 46.8896 275.954 47.8048H276.051C276.147 46.8896 276.252 46.0145 276.364 45.1796C276.492 44.3286 276.613 43.4857 276.725 42.6508L278.074 34.7031H280.916L277.881 50.454H274.172L272.39 42.1691C272.278 41.5911 272.165 40.997 272.053 40.3869C271.957 39.7607 271.86 39.0864 271.764 38.3638H271.668C271.603 39.0864 271.523 39.7607 271.427 40.3869C271.33 40.997 271.218 41.5911 271.09 42.1691L269.259 50.454H265.55Z" fill="#273469"/>
<path d="M285.752 50.454V34.7031H295.241V37.0633H288.546V41.0853H294.205V43.4456H288.546V48.0938H295.482V50.454H285.752Z" fill="#273469"/>
<path d="M301.12 50.454V34.7031H303.913V48.0938H310.464V50.454H301.12Z" fill="#273469"/>
<path d="M315.617 50.454V34.7031H318.411V48.0938H324.962V50.454H315.617Z" fill="#273469"/>
<path d="M330.114 50.454V34.7031H332.908V50.454H330.114Z" fill="#273469"/>
<path d="M339.32 50.454V34.7031H342.379L347.099 43.3733C347.388 43.9032 347.661 44.4731 347.918 45.0833C348.191 45.6934 348.448 46.3116 348.689 46.9377H348.785C348.721 46.0868 348.649 45.2037 348.568 44.2885C348.488 43.3573 348.448 42.4581 348.448 41.5911V34.7031H351.121V50.454H348.063L343.342 41.7838C343.053 41.2539 342.764 40.6839 342.475 40.0738C342.202 39.4637 341.945 38.8455 341.704 38.2193H341.608C341.704 39.0382 341.793 39.9132 341.873 40.8445C341.953 41.7597 341.993 42.6668 341.993 43.566V50.454H339.32Z" fill="#273469"/>
<path d="M364.156 50.743C362.743 50.743 361.475 50.4299 360.351 49.8037C359.227 49.1775 358.344 48.2624 357.702 47.0582C357.059 45.8379 356.738 44.3608 356.738 42.6267C356.738 41.3422 356.923 40.1942 357.292 39.1827C357.677 38.1712 358.207 37.3122 358.882 36.6057C359.572 35.8832 360.367 35.3373 361.266 34.968C362.165 34.5987 363.137 34.4141 364.18 34.4141C365.304 34.4141 366.259 34.6148 367.046 35.0162C367.833 35.4176 368.467 35.8832 368.949 36.413L367.456 38.123C367.07 37.7377 366.629 37.4326 366.131 37.2078C365.633 36.967 365.015 36.8465 364.276 36.8465C363.345 36.8465 362.526 37.0794 361.82 37.545C361.113 37.9945 360.568 38.6448 360.182 39.4958C359.797 40.3468 359.604 41.3663 359.604 42.5545C359.604 43.7426 359.789 44.7702 360.158 45.6372C360.527 46.5042 361.065 47.1705 361.772 47.6362C362.494 48.0857 363.377 48.3105 364.421 48.3105C364.871 48.3105 365.296 48.2543 365.697 48.1419C366.099 48.0135 366.428 47.8369 366.685 47.6121V44.2162H363.698V41.9283H369.19V48.8645C368.66 49.3943 367.953 49.8439 367.07 50.2132C366.203 50.5664 365.232 50.743 364.156 50.743Z" fill="#273469"/>
<path d="M377.797 50.454V37.0633H373.245V34.7031H385.143V37.0633H380.591V50.454H377.797Z" fill="#273469"/>
<path d="M395.68 50.743C394.315 50.743 393.111 50.4139 392.067 49.7556C391.023 49.0812 390.205 48.1339 389.611 46.9137C389.033 45.6773 388.744 44.2082 388.744 42.5063C388.744 40.8043 389.033 39.3513 389.611 38.1471C390.205 36.9429 391.023 36.0197 392.067 35.3774C393.111 34.7352 394.315 34.4141 395.68 34.4141C397.061 34.4141 398.273 34.7352 399.316 35.3774C400.36 36.0197 401.171 36.9429 401.749 38.1471C402.343 39.3513 402.64 40.8043 402.64 42.5063C402.64 44.2082 402.343 45.6773 401.749 46.9137C401.171 48.1339 400.36 49.0812 399.316 49.7556C398.273 50.4139 397.061 50.743 395.68 50.743ZM395.68 48.3105C396.515 48.3105 397.229 48.0777 397.823 47.6121C398.433 47.1304 398.907 46.4561 399.244 45.589C399.581 44.706 399.75 43.6784 399.75 42.5063C399.75 41.3342 399.581 40.3307 399.244 39.4958C398.907 38.6448 398.433 37.9945 397.823 37.545C397.229 37.0794 396.515 36.8465 395.68 36.8465C394.861 36.8465 394.146 37.0794 393.536 37.545C392.926 37.9945 392.452 38.6448 392.115 39.4958C391.778 40.3307 391.61 41.3342 391.61 42.5063C391.61 43.6784 391.778 44.706 392.115 45.589C392.452 46.4561 392.926 47.1304 393.536 47.6121C394.146 48.0777 394.861 48.3105 395.68 48.3105Z" fill="#273469"/>
<path d="M408.199 50.454V34.7031H411.258L415.978 43.3733C416.267 43.9032 416.54 44.4731 416.797 45.0833C417.07 45.6934 417.327 46.3116 417.568 46.9377H417.664C417.6 46.0868 417.528 45.2037 417.448 44.2885C417.367 43.3573 417.327 42.4581 417.327 41.5911V34.7031H420V50.454H416.942L412.221 41.7838C411.932 41.2539 411.643 40.6839 411.354 40.0738C411.081 39.4637 410.824 38.8455 410.584 38.2193H410.487C410.584 39.0382 410.672 39.9132 410.752 40.8445C410.832 41.7597 410.873 42.6668 410.873 43.566V50.454H408.199Z" fill="#273469"/>
<path d="M270.198 79.6438C268.834 79.6438 267.629 79.3146 266.586 78.6563C265.542 77.982 264.723 77.0347 264.129 75.8144C263.551 74.5781 263.262 73.109 263.262 71.4071C263.262 69.7051 263.551 68.2521 264.129 67.0479C264.723 65.8437 265.542 64.9204 266.586 64.2782C267.629 63.636 268.834 63.3148 270.198 63.3148C271.579 63.3148 272.791 63.636 273.835 64.2782C274.879 64.9204 275.69 65.8437 276.268 67.0479C276.862 68.2521 277.159 69.7051 277.159 71.4071C277.159 73.109 276.862 74.5781 276.268 75.8144C275.69 77.0347 274.879 77.982 273.835 78.6563C272.791 79.3146 271.579 79.6438 270.198 79.6438ZM270.198 77.2113C271.033 77.2113 271.748 76.9785 272.342 76.5129C272.952 76.0312 273.426 75.3568 273.763 74.4898C274.1 73.6067 274.269 72.5792 274.269 71.4071C274.269 70.235 274.1 69.2315 273.763 68.3966C273.426 67.5456 272.952 66.8953 272.342 66.4458C271.748 65.9801 271.033 65.7473 270.198 65.7473C269.38 65.7473 268.665 65.9801 268.055 66.4458C267.445 66.8953 266.971 67.5456 266.634 68.3966C266.297 69.2315 266.128 70.235 266.128 71.4071C266.128 72.5792 266.297 73.6067 266.634 74.4898C266.971 75.3568 267.445 76.0312 268.055 76.5129C268.665 76.9785 269.38 77.2113 270.198 77.2113Z" fill="#273469"/>
<path d="M282.718 79.3548V63.6039H285.777L290.497 72.2741C290.786 72.8039 291.059 73.3739 291.316 73.9841C291.589 74.5942 291.846 75.2123 292.087 75.8385H292.183C292.119 74.9876 292.046 74.1045 291.966 73.1893C291.886 72.258 291.846 71.3589 291.846 70.4919V63.6039H294.519V79.3548H291.46L286.74 70.6845C286.451 70.1547 286.162 69.5847 285.873 68.9746C285.6 68.3645 285.343 67.7463 285.102 67.1201H285.006C285.102 67.939 285.191 68.814 285.271 69.7453C285.351 70.6605 285.391 71.5676 285.391 72.4668V79.3548H282.718Z" fill="#273469"/>
<path d="M306.138 79.3548L311.268 63.6039H314.543L319.673 79.3548H316.735L314.326 70.9736C314.069 70.1386 313.821 69.2796 313.58 68.3966C313.355 67.5135 313.13 66.6384 312.905 65.7714H312.809C312.6 66.6545 312.375 67.5376 312.135 68.4207C311.91 69.2877 311.669 70.1386 311.412 70.9736L308.98 79.3548H306.138ZM309.172 75.0919V72.9003H316.59V75.0919H309.172Z" fill="#273469"/>
<path d="M331.253 79.3548V63.6039H336.286C337.378 63.6039 338.342 63.7323 339.176 63.9892C340.027 64.23 340.694 64.6314 341.175 65.1934C341.673 65.7554 341.922 66.518 341.922 67.4814C341.922 68.2842 341.729 68.9987 341.344 69.6249C340.975 70.235 340.437 70.6605 339.73 70.9013V70.9976C340.662 71.1903 341.392 71.5837 341.922 72.1778C342.468 72.7558 342.741 73.5666 342.741 74.6102C342.741 75.686 342.476 76.5771 341.946 77.2836C341.432 77.99 340.718 78.5118 339.803 78.849C338.887 79.1862 337.852 79.3548 336.696 79.3548H331.253ZM334.047 70.1065H336.046C337.137 70.1065 337.932 69.9058 338.43 69.5044C338.928 69.103 339.176 68.5652 339.176 67.8908C339.176 67.1201 338.92 66.5742 338.406 66.2531C337.892 65.932 337.121 65.7714 336.094 65.7714H334.047V70.1065ZM334.047 77.1872H336.407C337.563 77.1872 338.454 76.9785 339.08 76.561C339.706 76.1275 340.019 75.4692 340.019 74.5862C340.019 73.7512 339.714 73.1491 339.104 72.7799C338.494 72.3945 337.595 72.2018 336.407 72.2018H334.047V77.1872Z" fill="#273469"/>
<path d="M348.032 79.3548V63.6039H357.521V65.9641H350.825V69.9861H356.485V72.3463H350.825V76.9946H357.762V79.3548H348.032Z" fill="#273469"/>
<path d="M361.352 79.3548L366.482 63.6039H369.757L374.887 79.3548H371.949L369.541 70.9736C369.284 70.1386 369.035 69.2796 368.794 68.3966C368.569 67.5135 368.345 66.6384 368.12 65.7714H368.023C367.815 66.6545 367.59 67.5376 367.349 68.4207C367.124 69.2877 366.883 70.1386 366.627 70.9736L364.194 79.3548H361.352ZM364.387 75.0919V72.9003H371.805V75.0919H364.387Z" fill="#273469"/>
<path d="M385.336 79.6438C384.004 79.6438 382.791 79.3307 381.7 78.7045C380.624 78.0783 379.765 77.1631 379.123 75.9589C378.496 74.7387 378.183 73.2615 378.183 71.5275C378.183 70.243 378.368 69.095 378.737 68.0835C379.106 67.0559 379.62 66.1889 380.279 65.4824C380.953 64.7759 381.724 64.2381 382.591 63.8688C383.458 63.4995 384.389 63.3148 385.384 63.3148C386.38 63.3148 387.263 63.5155 388.034 63.9169C388.804 64.3023 389.439 64.7679 389.936 65.3138L388.443 67.0238C388.042 66.6063 387.592 66.2932 387.094 66.0845C386.613 65.8597 386.067 65.7473 385.457 65.7473C384.622 65.7473 383.867 65.9801 383.193 66.4458C382.534 66.9114 382.013 67.5697 381.627 68.4207C381.242 69.2716 381.049 70.2831 381.049 71.4552C381.049 72.6594 381.234 73.695 381.603 74.5621C381.972 75.413 382.494 76.0713 383.169 76.537C383.843 76.9865 384.63 77.2113 385.529 77.2113C386.203 77.2113 386.805 77.0748 387.335 76.8019C387.865 76.5289 388.347 76.1677 388.78 75.7181L390.201 77.3799C389.559 78.1185 388.836 78.6804 388.034 79.0658C387.231 79.4511 386.332 79.6438 385.336 79.6438Z" fill="#273469"/>
<path d="M395.287 79.3548V63.6039H398.081V69.9379H404.463V63.6039H407.257V79.3548H404.463V72.3704H398.081V79.3548H395.287Z" fill="#273469"/>
<path d="M126.418 20.1674L130.325 32.9715L138.844 20.9325C139.128 20.5274 139.342 20.2649 139.484 20.1449C139.627 20.0249 139.84 19.9648 140.125 19.9648C140.409 19.9648 140.772 20.2874 141.214 20.9325L149.156 32.8365L152.999 20.1674H165.212L154.067 55.1819C153.583 56.682 152.764 57.4321 151.611 57.4321C150.458 57.4321 149.427 56.7421 148.516 55.3619L138.972 40.8475L128.702 55.4069C127.777 56.697 126.745 57.3421 125.606 57.3421C124.468 57.3421 123.635 56.592 123.108 55.0918L111.109 20.1674H126.418Z" fill="#273469"/>
<path d="M196.747 34.261C196.747 31.7258 195.489 30.4582 192.971 30.4582C191.884 30.4582 190.672 31.1183 189.335 32.4384C187.331 34.4336 185.932 36.8113 185.14 39.5715C184.891 40.4415 184.767 41.2441 184.767 41.9792C184.767 44.4694 186.072 45.7145 188.683 45.7145C189.724 45.7295 190.912 45.0619 192.249 43.7118C194.191 41.7317 195.566 39.3315 196.374 36.5112C196.623 35.6412 196.747 34.8911 196.747 34.261ZM190.384 57.4154C184.868 57.4154 180.082 55.6903 176.027 52.24C174.737 51.1449 173.618 49.8923 172.671 48.4822C170.651 45.497 169.641 42.1592 169.641 38.4689C169.641 34.7636 170.573 31.4858 172.438 28.6356C174.302 25.7853 176.804 23.5652 179.942 21.975C183.081 20.3849 186.329 19.5898 189.685 19.5898C193.057 19.5898 196.025 20.0249 198.588 20.895C201.152 21.765 203.382 23.0176 205.278 24.6528C207.189 26.2729 208.688 28.2606 209.776 30.6157C210.864 32.9709 211.407 35.6337 211.407 38.6039C211.407 42.2942 210.436 45.5795 208.494 48.4597C206.552 51.3249 203.965 53.5376 200.733 55.0977C197.501 56.6429 194.051 57.4154 190.384 57.4154Z" fill="#273469"/>
<path d="M116.012 98.2599L133.871 64.16C134.486 62.9454 135.618 62.1356 137.268 61.7307C137.748 61.6108 138.34 61.5508 139.045 61.5508C139.75 61.5508 140.514 61.7532 141.339 62.1581C142.179 62.548 142.839 63.1703 143.319 64.025L162.483 98.2599H144.241L142.824 94.706H133.107L131.892 98.2599H116.012ZM134.209 87.5756H141.474L138.033 77.8584L134.209 87.5756Z" fill="#273469"/>
<path d="M171.568 61.8436C179.711 61.4687 185.559 61.2812 189.113 61.2812C195.726 61.2812 200.472 62.031 203.351 63.5306C205.931 64.8802 207.22 66.9271 207.22 69.6713C207.22 71.3208 206.785 72.7079 205.916 73.8325C205.061 74.9422 203.749 75.9019 201.979 76.7117C204.199 77.4615 205.908 78.5261 207.108 79.9057C208.682 81.7202 209.47 84.2095 209.47 87.3735C209.47 94.1965 204.191 97.8029 193.634 98.1928C192.12 98.2528 190.943 98.2828 190.103 98.2828C189.263 98.2828 188.536 98.2753 187.921 98.2603C187.306 98.2453 186.601 98.2228 185.807 98.1928C185.027 98.1778 184.172 98.1553 183.242 98.1253C182.328 98.1103 181.398 98.0803 180.453 98.0354C179.509 98.0054 178.579 97.9754 177.664 97.9454C176.749 97.9154 175.895 97.8779 175.1 97.8329C174.305 97.8029 173.6 97.7804 172.985 97.7654C172.371 97.7355 171.898 97.7055 171.568 97.6755V61.8436ZM194.512 83.7971C194.512 82.5375 193.769 81.9076 192.285 81.9076C191.16 81.8926 189.413 82.545 187.044 83.8646C186.489 84.1645 186.017 84.4194 185.627 84.6293V90.2977C185.837 90.2227 186.032 90.1477 186.212 90.0727C186.406 89.9977 186.841 89.8328 187.516 89.5779C189.915 88.6781 191.55 87.9359 192.42 87.351C193.829 86.4063 194.527 85.2217 194.512 83.7971ZM185.627 78.2862C188.176 77.2965 189.87 76.5092 190.71 75.9244C192.45 74.7548 193.319 73.4951 193.319 72.1455C193.319 71.2008 192.825 70.5935 191.835 70.3236C191.565 70.2486 191.28 70.2111 190.98 70.2111C190.68 70.2111 190.328 70.2636 189.923 70.3686C189.533 70.4735 189.143 70.6085 188.753 70.7734C188.153 70.9984 187.486 71.3283 186.751 71.7631C186.032 72.183 185.657 72.408 185.627 72.4379V78.2862Z" fill="#273469"/>
<path d="M94.684 87.4381C93.5302 87.0417 92.2732 87.6556 91.876 88.8085C91.1464 90.9316 89.7751 93.529 87.454 93.8721C85.1319 94.2145 81.6384 92.0922 78.8412 88.2338C78.4016 87.6276 77.686 87.2844 76.9379 87.3222C76.1906 87.36 75.5127 87.7742 75.1372 88.422C73.169 91.8268 71.113 93.6739 69.0347 93.8836C66.5584 94.1381 63.4295 92.1808 59.7588 88.0571C59.2968 87.5358 58.6174 87.262 57.9233 87.3183C57.2292 87.3754 56.603 87.7548 56.2321 88.344C54.0211 91.8706 51.8101 93.7284 49.5981 93.8719C47.1326 94.0378 44.192 92.1028 40.9082 88.1343C40.4493 87.5636 39.7367 87.2567 39.0064 87.3161C38.3108 87.3508 37.6714 87.7109 37.282 88.2893C34.8165 91.9818 32.3508 93.95 30.3935 93.8613C27.9387 93.8613 25.6067 90.8429 24.0804 88.3334H24.0812C23.7195 87.7018 23.0701 87.2884 22.3452 87.2275C21.6318 87.1804 20.9401 87.4812 20.4874 88.0349C17.2816 91.9264 14.3401 93.872 11.6424 93.7725C9.17697 93.6838 6.60113 91.7937 4.01365 88.1559L4.01442 88.1567C3.3057 87.1611 1.92525 86.9282 0.929623 87.6369C-0.0660027 88.3449 -0.298137 89.7261 0.409837 90.7209C3.84783 95.5409 7.57427 98.0512 11.4658 98.1839C14.9592 98.3165 18.398 96.6137 21.914 93.0207C24.523 96.4256 27.2653 98.1284 30.25 98.1947C33.2353 98.261 36.3193 96.5366 39.2499 92.9428C42.8652 96.6907 46.3257 98.4044 49.7751 98.1947C52.8376 97.9958 55.6902 96.2266 58.2992 92.9096C62.2902 96.8234 65.9387 98.5594 69.4324 98.1947C72.2735 97.9071 74.8717 96.2159 77.1713 93.1643C80.2113 96.4813 83.5731 98.2504 86.7898 98.2504C87.2085 98.2543 87.6258 98.2249 88.0391 98.1625C90.5602 97.7869 93.9874 96.0948 96.0325 90.1582V90.1574C96.375 89.0369 95.7834 87.8438 94.6837 87.4382L94.684 87.4381Z" fill="#1A96F0"/>
<path d="M46.7319 72.5841C50.2683 72.7168 53.7493 71.014 57.3085 67.421C59.9495 70.8259 62.7255 72.5287 65.7468 72.595C68.7688 72.6613 71.8907 70.9369 74.8573 67.343C78.3157 70.8813 81.5727 72.6057 84.9294 72.6057H85.5227C89.2724 72.3627 92.7298 69.8194 95.7855 65.0325L95.7848 65.0333C96.446 64.0014 96.1353 62.635 95.0907 61.9817C94.0462 61.3285 92.6635 61.6354 92.0024 62.6673C89.7643 66.1939 87.5261 68.0517 85.287 68.1953C82.7912 68.3611 79.8144 66.4261 76.4903 62.4576C76.0344 61.8923 75.3287 61.5831 74.5988 61.6278C73.8946 61.6625 73.2474 62.0227 72.8532 62.6011C70.3574 66.2936 67.8615 68.2617 65.8801 68.1731C63.3952 68.1175 61.0345 65.1546 59.4895 62.6451H59.4902C59.1241 62.0135 58.4668 61.6001 57.7329 61.54C57.0108 61.4929 56.3105 61.7937 55.8523 62.3466C52.6071 66.2381 49.6295 68.1838 46.8987 68.0843C44.403 67.9956 41.7955 66.1054 39.1762 62.4677L39.177 62.4684C38.4596 61.4728 37.0622 61.2407 36.0543 61.9486C35.0465 62.6574 34.8115 64.0378 35.5282 65.0334C39.0202 69.9421 42.7696 72.4516 46.7317 72.5842L46.7319 72.5841Z" fill="#6BC7FF"/>
<path d="M96.1228 32.0507C96.1228 41.2095 88.6978 48.6346 79.539 48.6346C70.3793 48.6346 62.9551 41.2095 62.9551 32.0507C62.9551 22.891 70.3793 15.4668 79.539 15.4668C88.6978 15.4668 96.1228 22.891 96.1228 32.0507Z" fill="#FFB74D"/>
<path fill-rule="evenodd" clip-rule="evenodd" d="M234.043 114.158C232.86 114.158 231.902 113.2 231.902 112.017V2.1408C231.902 0.958469 232.86 0 234.043 0C235.225 0 236.184 0.958468 236.184 2.1408V112.017C236.184 113.2 235.225 114.158 234.043 114.158Z" fill="#1A96F0"/>
</svg>
