<svg width="141" height="73" viewBox="0 0 141 73" fill="none" xmlns="http://www.w3.org/2000/svg">
<title>Wellington on a beach</title>
<path d="M83.7197 3.11263L86.3071 11.5919L91.9486 3.6193C92.1371 3.35107 92.2785 3.17721 92.3727 3.09773C92.467 3.01825 92.6084 2.97852 92.7969 2.97852C92.9854 2.97852 93.2258 3.19211 93.518 3.6193L98.7777 11.5025L101.323 3.11263H109.41L102.03 26.3002C101.709 27.2937 101.167 27.7905 100.404 27.7905C99.6402 27.7905 98.9568 27.3335 98.3535 26.4195L92.0334 16.8076L85.2325 26.4493C84.6199 27.3037 83.9365 27.7308 83.1824 27.7308C82.4283 27.7308 81.8769 27.2341 81.5281 26.2406L73.582 3.11263H83.7197Z" fill="#273469"/>
<path d="M130.294 12.4462C130.294 10.7673 129.461 9.92783 127.794 9.92783C127.074 9.92783 126.271 10.3649 125.386 11.2392C124.059 12.5604 123.133 14.135 122.608 15.9629C122.443 16.5391 122.361 17.0706 122.361 17.5573C122.361 19.2064 123.225 20.031 124.954 20.031C125.643 20.0409 126.431 19.5988 127.316 18.7047C128.602 17.3934 129.512 15.8039 130.047 13.9363C130.212 13.3601 130.294 12.8634 130.294 12.4462ZM126.081 27.7797C122.428 27.7797 119.259 26.6372 116.573 24.3524C115.719 23.6272 114.978 22.7976 114.35 21.8638C113.013 19.8869 112.344 17.6765 112.344 15.2327C112.344 12.779 112.961 10.6083 114.196 8.72082C115.431 6.83331 117.087 5.36304 119.166 4.31001C121.244 3.25698 123.395 2.73047 125.618 2.73047C127.851 2.73047 129.816 3.01856 131.514 3.59475C133.212 4.17093 134.688 5.00044 135.944 6.08328C137.209 7.15618 138.202 8.47246 138.923 10.0321C139.643 11.5918 140.003 13.3551 140.003 15.3221C140.003 17.766 139.36 19.9416 138.074 21.8489C136.787 23.7464 135.074 25.2117 132.934 26.2448C130.794 27.2681 128.509 27.7797 126.081 27.7797Z" fill="#273469"/>
<path d="M76.8281 54.8274L88.6553 32.2455C89.0625 31.4411 89.8122 30.9049 90.9046 30.6367C91.2224 30.5573 91.6146 30.5176 92.0814 30.5176C92.5481 30.5176 93.0546 30.6516 93.6007 30.9198C94.1568 31.178 94.5938 31.5901 94.9116 32.1561L107.603 54.8274H95.5223L94.5838 52.4739H88.1489L87.3445 54.8274H76.8281ZM88.8788 47.752H93.6901L91.4111 41.317L88.8788 47.752Z" fill="#273469"/>
<path d="M113.619 30.7142C119.011 30.4659 122.884 30.3418 125.238 30.3418C129.617 30.3418 132.76 30.8383 134.667 31.8314C136.375 32.7251 137.229 34.0806 137.229 35.8979C137.229 36.9903 136.941 37.9088 136.365 38.6536C135.799 39.3885 134.93 40.024 133.758 40.5603C135.228 41.0568 136.36 41.7619 137.154 42.6755C138.197 43.8771 138.718 45.5255 138.718 47.6209C138.718 52.1392 135.223 54.5275 128.232 54.7857C127.229 54.8254 126.449 54.8453 125.893 54.8453C125.337 54.8453 124.855 54.8403 124.448 54.8304C124.041 54.8205 123.574 54.8056 123.048 54.7857C122.532 54.7758 121.966 54.7609 121.35 54.741C120.744 54.7311 120.129 54.7112 119.503 54.6814C118.877 54.6616 118.262 54.6417 117.656 54.6219C117.05 54.602 116.484 54.5772 115.958 54.5474C115.431 54.5275 114.965 54.5126 114.558 54.5027C114.15 54.4828 113.838 54.463 113.619 54.4431V30.7142ZM128.813 45.2524C128.813 44.4183 128.321 44.0012 127.338 44.0012C126.593 43.9913 125.436 44.4232 123.867 45.2971C123.5 45.4957 123.187 45.6646 122.929 45.8036V49.5573C123.068 49.5077 123.197 49.458 123.316 49.4083C123.445 49.3587 123.733 49.2495 124.18 49.0806C125.769 48.4848 126.852 47.9933 127.427 47.606C128.361 46.9803 128.823 46.1958 128.813 45.2524ZM122.929 41.603C124.617 40.9476 125.739 40.4262 126.295 40.0389C127.447 39.2643 128.023 38.4302 128.023 37.5364C128.023 36.9108 127.696 36.5086 127.04 36.3299C126.861 36.2802 126.673 36.2554 126.474 36.2554C126.276 36.2554 126.042 36.2902 125.774 36.3597C125.516 36.4292 125.258 36.5186 124.999 36.6278C124.602 36.7768 124.16 36.9952 123.674 37.2832C123.197 37.5613 122.949 37.7102 122.929 37.7301V41.603Z" fill="#273469"/>
<path d="M62.7025 47.6622C61.9384 47.3997 61.106 47.8062 60.8429 48.5697C60.3598 49.9757 59.4517 51.6958 57.9146 51.923C56.3768 52.1498 54.0633 50.7443 52.211 48.1891C51.9198 47.7877 51.4459 47.5604 50.9505 47.5855C50.4556 47.6105 50.0067 47.8847 49.758 48.3137C48.4547 50.5685 47.0931 51.7917 45.7168 51.9306C44.0769 52.0991 42.0049 50.8029 39.574 48.0721C39.2681 47.7269 38.8181 47.5456 38.3585 47.5829C37.8989 47.6207 37.4842 47.8719 37.2385 48.2621C35.7743 50.5976 34.3101 51.8278 32.8453 51.9229C31.2126 52.0327 29.2652 50.7513 27.0906 48.1233C26.7867 47.7453 26.3148 47.5421 25.8312 47.5814C25.3705 47.6044 24.9471 47.8429 24.6892 48.2259C23.0565 50.6712 21.4237 51.9746 20.1275 51.9159C18.5018 51.9159 16.9575 49.9169 15.9467 48.2551H15.9473C15.7077 47.8368 15.2777 47.5631 14.7976 47.5227C14.3252 47.4916 13.8671 47.6907 13.5673 48.0574C11.4443 50.6345 9.49642 51.9229 7.70996 51.857C6.07725 51.7983 4.37146 50.5466 2.65796 48.1376L2.65847 48.1381C2.18913 47.4787 1.27496 47.3245 0.615623 47.7939C-0.0437089 48.2627 -0.197435 49.1774 0.271406 49.8362C2.54815 53.0281 5.0159 54.6905 7.59296 54.7784C9.90644 54.8662 12.1837 53.7386 14.5121 51.3592C16.2398 53.614 18.0559 54.7416 20.0324 54.7856C22.0094 54.8295 24.0517 53.6875 25.9924 51.3076C28.3866 53.7896 30.6782 54.9244 32.9625 54.7856C34.9906 54.6538 36.8797 53.4822 38.6075 51.2856C41.2504 53.8774 43.6665 55.027 45.9801 54.7856C47.8616 54.5951 49.5822 53.4751 51.1051 51.4542C53.1183 53.6508 55.3445 54.8224 57.4747 54.8224C57.752 54.825 58.0283 54.8056 58.3021 54.7642C59.9716 54.5155 62.2412 53.3949 63.5955 49.4635V49.463C63.8223 48.7209 63.4306 47.9308 62.7023 47.6623L62.7025 47.6622Z" fill="#1A96F0"/>
<path d="M30.9481 37.8248C33.29 37.9126 35.5952 36.785 37.9522 34.4056C39.7012 36.6604 41.5395 37.788 43.5403 37.832C45.5416 37.8759 47.609 36.7339 49.5735 34.354C51.8638 36.6971 54.0207 37.839 56.2436 37.839H56.6365C59.1196 37.6781 61.4092 35.9939 63.4328 32.8239L63.4323 32.8244C63.8702 32.1411 63.6645 31.2361 62.9727 30.8035C62.281 30.3709 61.3654 30.5742 60.9276 31.2575C59.4454 33.593 57.9632 34.8233 56.4804 34.9183C54.8276 35.0281 52.8563 33.7468 50.655 31.1187C50.3531 30.7443 49.8857 30.5395 49.4023 30.5692C48.936 30.5922 48.5074 30.8307 48.2464 31.2137C46.5936 33.659 44.9407 34.9623 43.6286 34.9036C41.983 34.8669 40.4197 32.9047 39.3965 31.2428H39.397C39.1546 30.8246 38.7193 30.5508 38.2333 30.511C37.7551 30.4798 37.2914 30.679 36.9879 31.0452C34.8388 33.6222 32.867 34.9107 31.0586 34.8448C29.4058 34.7861 27.6791 33.5344 25.9445 31.1253L25.945 31.1258C25.4699 30.4665 24.5445 30.3128 23.8771 30.7816C23.2097 31.251 23.054 32.1651 23.5286 32.8245C25.8412 36.0751 28.3241 37.737 30.9479 37.8248L30.9481 37.8248Z" fill="#6BC7FF"/>
<path d="M63.6561 10.9823C63.6561 17.0476 58.739 21.9647 52.6737 21.9647C46.608 21.9647 41.6914 17.0476 41.6914 10.9823C41.6914 4.91655 46.608 0 52.6737 0C58.739 0 63.6561 4.91655 63.6561 10.9823Z" fill="#FFB74D"/>
<path d="M28.392 72.36L27 66.144H27.984L28.644 69.384C28.708 69.72 28.772 70.056 28.836 70.392C28.9 70.728 28.964 71.06 29.028 71.388H29.064C29.136 71.06 29.212 70.728 29.292 70.392C29.38 70.056 29.464 69.72 29.544 69.384L30.432 66.144H31.296L32.16 69.384C32.24 69.712 32.32 70.044 32.4 70.38C32.488 70.716 32.572 71.052 32.652 71.388H32.7C32.764 71.052 32.824 70.716 32.88 70.38C32.936 70.044 32.996 69.712 33.06 69.384L33.72 66.144H34.644L33.288 72.36H32.124L31.164 68.88C31.108 68.632 31.052 68.392 30.996 68.16C30.948 67.92 30.9 67.684 30.852 67.452H30.804C30.748 67.684 30.696 67.92 30.648 68.16C30.6 68.392 30.544 68.632 30.48 68.88L29.544 72.36H28.392Z" fill="#273469"/>
<path d="M35.7671 72.36V66.144H39.6791V66.936H36.7631V68.736H39.2351V69.492H36.7631V71.568H39.7991V72.36H35.7671Z" fill="#273469"/>
<path d="M41.2224 72.36V66.144H42.2184V71.532H45.0624V72.36H41.2224Z" fill="#273469"/>
<path d="M46.2207 72.36V66.144H47.2167V71.532H50.0607V72.36H46.2207Z" fill="#273469"/>
<path d="M51.219 72.36V66.144H52.215V72.36H51.219Z" fill="#273469"/>
<path d="M54.1313 72.36V66.144H55.1393L57.4313 69.816L58.1513 71.148H58.1993C58.1753 70.836 58.1473 70.496 58.1153 70.128C58.0833 69.752 58.0673 69.396 58.0673 69.06V66.144H58.9913V72.36H57.9953L55.6913 68.688L54.9713 67.356H54.9233C54.9473 67.676 54.9753 68.016 55.0073 68.376C55.0393 68.736 55.0553 69.084 55.0553 69.42V72.36H54.1313Z" fill="#273469"/>
<path d="M63.5149 72.504C62.9229 72.504 62.3949 72.38 61.9309 72.132C61.4749 71.876 61.1149 71.508 60.8509 71.028C60.5869 70.54 60.4549 69.952 60.4549 69.264C60.4549 68.584 60.5909 68 60.8629 67.512C61.1349 67.024 61.5069 66.652 61.9789 66.396C62.4509 66.132 62.9869 66 63.5869 66C64.0429 66 64.4269 66.084 64.7389 66.252C65.0589 66.412 65.3189 66.588 65.5189 66.78L64.9669 67.392C64.7989 67.232 64.6069 67.1 64.3909 66.996C64.1829 66.892 63.9189 66.84 63.5989 66.84C62.9509 66.84 62.4349 67.056 62.0509 67.488C61.6669 67.912 61.4749 68.504 61.4749 69.264C61.4749 70.008 61.6549 70.596 62.0149 71.028C62.3829 71.46 62.9109 71.676 63.5989 71.676C64.0789 71.676 64.4509 71.564 64.7149 71.34V69.816H63.3709V69.084H65.6269V71.796C65.4029 71.996 65.1069 72.164 64.7389 72.3C64.3709 72.436 63.9629 72.504 63.5149 72.504Z" fill="#273469"/>
<path d="M68.4105 72.36V66.972H66.4425V66.144H71.3745V66.972H69.4065V72.36H68.4105Z" fill="#273469"/>
<path d="M74.6917 72.504C74.1237 72.504 73.6197 72.372 73.1797 72.108C72.7397 71.844 72.3957 71.468 72.1477 70.98C71.8997 70.492 71.7757 69.912 71.7757 69.24C71.7757 68.56 71.8997 67.98 72.1477 67.5C72.3957 67.012 72.7397 66.64 73.1797 66.384C73.6197 66.128 74.1237 66 74.6917 66C75.2597 66 75.7637 66.128 76.2037 66.384C76.6437 66.64 76.9877 67.012 77.2357 67.5C77.4837 67.98 77.6077 68.56 77.6077 69.24C77.6077 69.912 77.4837 70.492 77.2357 70.98C76.9877 71.468 76.6437 71.844 76.2037 72.108C75.7637 72.372 75.2597 72.504 74.6917 72.504ZM74.6917 71.664C75.2597 71.664 75.7157 71.448 76.0597 71.016C76.4037 70.576 76.5757 69.984 76.5757 69.24C76.5757 68.488 76.4037 67.9 76.0597 67.476C75.7157 67.052 75.2597 66.84 74.6917 66.84C74.1237 66.84 73.6677 67.052 73.3237 67.476C72.9797 67.9 72.8077 68.488 72.8077 69.24C72.8077 69.984 72.9797 70.576 73.3237 71.016C73.6677 71.448 74.1237 71.664 74.6917 71.664Z" fill="#273469"/>
<path d="M79.0581 72.36V66.144H80.0661L82.3581 69.816L83.0781 71.148H83.1261C83.1021 70.836 83.0741 70.496 83.0421 70.128C83.0101 69.752 82.9941 69.396 82.9941 69.06V66.144H83.9181V72.36H82.9221L80.6181 68.688L79.8981 67.356H79.8501C79.8741 67.676 79.9021 68.016 79.9341 68.376C79.9661 68.736 79.9821 69.084 79.9821 69.42V72.36H79.0581Z" fill="#273469"/>
<path d="M90.4599 72.504C89.8919 72.504 89.3879 72.372 88.9479 72.108C88.5079 71.844 88.1639 71.468 87.9159 70.98C87.6679 70.492 87.5439 69.912 87.5439 69.24C87.5439 68.56 87.6679 67.98 87.9159 67.5C88.1639 67.012 88.5079 66.64 88.9479 66.384C89.3879 66.128 89.8919 66 90.4599 66C91.0279 66 91.5319 66.128 91.9719 66.384C92.4119 66.64 92.7559 67.012 93.0039 67.5C93.2519 67.98 93.3759 68.56 93.3759 69.24C93.3759 69.912 93.2519 70.492 93.0039 70.98C92.7559 71.468 92.4119 71.844 91.9719 72.108C91.5319 72.372 91.0279 72.504 90.4599 72.504ZM90.4599 71.664C91.0279 71.664 91.4839 71.448 91.8279 71.016C92.1719 70.576 92.3439 69.984 92.3439 69.24C92.3439 68.488 92.1719 67.9 91.8279 67.476C91.4839 67.052 91.0279 66.84 90.4599 66.84C89.8919 66.84 89.4359 67.052 89.0919 67.476C88.7479 67.9 88.5759 68.488 88.5759 69.24C88.5759 69.984 88.7479 70.576 89.0919 71.016C89.4359 71.448 89.8919 71.664 90.4599 71.664Z" fill="#273469"/>
<path d="M94.8263 72.36V66.144H95.8343L98.1263 69.816L98.8463 71.148H98.8943C98.8703 70.836 98.8423 70.496 98.8103 70.128C98.7783 69.752 98.7623 69.396 98.7623 69.06V66.144H99.6863V72.36H98.6903L96.3863 68.688L95.6663 67.356H95.6183C95.6423 67.676 95.6703 68.016 95.7023 68.376C95.7343 68.736 95.7503 69.084 95.7503 69.42V72.36H94.8263Z" fill="#273469"/>
<path d="M104.848 68.976L104.56 69.864H106.432L106.144 68.976C106.032 68.632 105.928 68.296 105.832 67.968C105.736 67.632 105.632 67.292 105.52 66.948H105.472C105.368 67.292 105.264 67.632 105.16 67.968C105.064 68.296 104.96 68.632 104.848 68.976ZM102.724 72.36L104.944 66.144H106.072L108.304 72.36H107.248L106.672 70.608H104.308L103.732 72.36H102.724Z" fill="#273469"/>
<path d="M111.327 72.36V66.144H113.367C113.823 66.144 114.227 66.196 114.579 66.3C114.931 66.396 115.207 66.556 115.407 66.78C115.607 67.004 115.707 67.304 115.707 67.68C115.707 67.976 115.615 68.248 115.431 68.496C115.255 68.744 114.987 68.916 114.627 69.012V69.06C115.067 69.14 115.415 69.304 115.671 69.552C115.935 69.792 116.067 70.124 116.067 70.548C116.067 71.164 115.827 71.62 115.347 71.916C114.875 72.212 114.267 72.36 113.523 72.36H111.327ZM112.323 68.772H113.259C113.803 68.772 114.191 68.688 114.423 68.52C114.663 68.352 114.783 68.108 114.783 67.788C114.783 67.468 114.659 67.24 114.411 67.104C114.163 66.96 113.791 66.888 113.295 66.888H112.323V68.772ZM112.323 71.616H113.403C113.923 71.616 114.335 71.532 114.639 71.364C114.951 71.188 115.107 70.896 115.107 70.488C115.107 70.136 114.959 69.876 114.663 69.708C114.375 69.532 113.955 69.444 113.403 69.444H112.323V71.616Z" fill="#273469"/>
<path d="M117.404 72.36V66.144H121.316V66.936H118.4V68.736H120.872V69.492H118.4V71.568H121.436V72.36H117.404Z" fill="#273469"/>
<path d="M123.939 68.976L123.651 69.864H125.523L125.235 68.976C125.123 68.632 125.019 68.296 124.923 67.968C124.827 67.632 124.723 67.292 124.611 66.948H124.563C124.459 67.292 124.355 67.632 124.251 67.968C124.155 68.296 124.051 68.632 123.939 68.976ZM121.815 72.36L124.035 66.144H125.163L127.395 72.36H126.339L125.763 70.608H123.399L122.823 72.36H121.815Z" fill="#273469"/>
<path d="M130.752 72.504C130.192 72.504 129.688 72.38 129.24 72.132C128.792 71.876 128.44 71.508 128.184 71.028C127.928 70.54 127.8 69.952 127.8 69.264C127.8 68.584 127.932 68.004 128.196 67.524C128.468 67.036 128.832 66.66 129.288 66.396C129.744 66.132 130.26 66 130.836 66C131.236 66 131.592 66.08 131.904 66.24C132.224 66.4 132.488 66.584 132.696 66.792L132.132 67.404C131.956 67.228 131.764 67.092 131.556 66.996C131.356 66.892 131.12 66.84 130.848 66.84C130.24 66.84 129.748 67.056 129.372 67.488C129.004 67.912 128.82 68.496 128.82 69.24C128.82 69.992 128.996 70.584 129.348 71.016C129.708 71.448 130.192 71.664 130.8 71.664C131.112 71.664 131.384 71.608 131.616 71.496C131.856 71.376 132.076 71.212 132.276 71.004L132.828 71.604C132.556 71.9 132.248 72.124 131.904 72.276C131.568 72.428 131.184 72.504 130.752 72.504Z" fill="#273469"/>
<path d="M134.051 72.36V66.144H135.047V68.676H138.023V66.144H139.019V72.36H138.023V69.54H135.047V72.36H134.051Z" fill="#273469"/>
</svg>
