<svg width="24" height="24" viewBox="0 0 24 24" fill="none" xmlns="http://www.w3.org/2000/svg">
<path d="M6.66133 9.06003C5.5958 9.30606 4.80078 10.2612 4.80078 11.3988C4.80078 12.7242 5.87958 13.7988 7.20253 13.7988H17.3988C18.7253 13.7988 19.8005 12.7218 19.8005 11.3988C19.8005 10.2726 19.0211 9.32708 17.9753 9.06846C17.9921 8.94726 18.0005 8.82431 18.0005 8.69883C18.0005 7.20781 16.7915 5.99883 15.3005 5.99883C14.565 5.99883 13.8983 6.2928 13.4117 6.76985C12.8171 5.60039 11.6027 4.79883 10.2005 4.79883C8.21209 4.79883 6.60052 6.41039 6.60052 8.39883C6.60052 8.62504 6.62155 8.84588 6.66105 9.06003H6.66133ZM6.66133 9.06003C5.5958 9.30606 4.80078 10.2612 4.80078 11.3988C4.80078 12.7242 5.87958 13.7988 7.20253 13.7988H17.3988C18.7253 13.7988 19.8005 12.7218 19.8005 11.3988C19.8005 10.2726 19.0211 9.32708 17.9753 9.06846C17.9921 8.94726 18.0005 8.82431 18.0005 8.69883C18.0005 7.20781 16.7915 5.99883 15.3005 5.99883C14.565 5.99883 13.8983 6.2928 13.4117 6.76985C12.8171 5.60039 11.6027 4.79883 10.2005 4.79883C8.21209 4.79883 6.60052 6.41039 6.60052 8.39883C6.60052 8.62504 6.62155 8.84588 6.66105 9.06003M6.66133 9.06003C5.5958 9.30606 4.80078 10.2612 4.80078 11.3988C4.80078 12.7242 5.87958 13.7988 7.20253 13.7988H17.3988C18.7253 13.7988 19.8005 12.7218 19.8005 11.3988C19.8005 10.2726 19.0211 9.32708 17.9753 9.06846C17.9921 8.94726 18.0005 8.82431 18.0005 8.69883M6.66133 9.06003C5.5958 9.30606 4.80078 10.2612 4.80078 11.3988C4.80078 12.7242 5.87958 13.7988 7.20253 13.7988H17.3988C18.7253 13.7988 19.8005 12.7218 19.8005 11.3988C19.8005 10.2726 19.0211 9.32708 17.9753 9.06846C17.9921 8.94726 18.0005 8.82431 18.0005 8.69883M6.66133 9.06003C5.5958 9.30606 4.80078 10.2612 4.80078 11.3988C4.80078 12.7242 5.87958 13.7988 7.20253 13.7988H17.3988C18.7253 13.7988 19.8005 12.7218 19.8005 11.3988C19.8005 10.2726 19.0211 9.32708 17.9753 9.06846C17.9921 8.94726 18.0005 8.82431 18.0005 8.69883M6.66133 9.06003C5.5958 9.30606 4.80078 10.2612 4.80078 11.3988C4.80078 12.7242 5.87958 13.7988 7.20253 13.7988H17.3988C18.7253 13.7988 19.8005 12.7218 19.8005 11.3988C19.8005 10.2726 19.0211 9.32708 17.9753 9.06846C17.9921 8.94726 18.0005 8.82431 18.0005 8.69883M6.66133 9.06003C5.5958 9.30606 4.80078 10.2612 4.80078 11.3988C4.80078 12.7242 5.87958 13.7988 7.20253 13.7988H17.3988C18.7253 13.7988 19.8005 12.7218 19.8005 11.3988C19.8005 10.2726 19.0211 9.32708 17.9753 9.06846C17.9921 8.94726 18.0005 8.82431 18.0005 8.69883" fill="#273469"/>
<path d="M20.4008 11.3992C20.4008 10.1686 19.661 9.11078 18.6002 8.6482L18.6006 8.6482C18.5736 6.84885 17.1065 5.39922 15.3012 5.39922C14.6663 5.39922 14.0731 5.57855 13.5696 5.8894C12.8034 4.86337 11.58 4.19922 10.2012 4.19922C7.88154 4.19922 6.00117 6.07958 6.00117 8.39922C6.00117 8.48266 6.00359 8.56489 6.00841 8.64645C4.94514 9.10838 4.20117 10.1687 4.20117 11.3992C4.20117 13.0558 5.54044 14.3992 7.20062 14.3992H17.4013C19.058 14.3992 20.4008 13.0528 20.4008 11.3992Z" fill="#273469"/>
<path d="M8.40039 15.2971C8.40039 15.1296 8.53486 15 8.70039 15C8.86124 15 9.00039 15.1326 9.00039 15.2971V16.5024C9.00039 16.6698 8.86593 16.7995 8.70039 16.7995C8.53954 16.7995 8.40039 16.6669 8.40039 16.5024V15.2971Z" fill="#1A96F0"/>
<path d="M10.2012 16.4963C10.2012 16.3289 10.3356 16.1992 10.5012 16.1992C10.662 16.1992 10.8012 16.3318 10.8012 16.4963V17.7016C10.8012 17.869 10.6667 17.9987 10.5012 17.9987C10.3403 17.9987 10.2012 17.8661 10.2012 17.7016V16.4963Z" fill="#1A96F0"/>
<path d="M12 15.2971C12 15.1296 12.1345 15 12.3 15C12.4608 15 12.6 15.1326 12.6 15.2971V16.5024C12.6 16.6698 12.4655 16.7995 12.3 16.7995C12.1392 16.7995 12 16.6669 12 16.5024V15.2971Z" fill="#1A96F0"/>
<path d="M13.8008 16.4963C13.8008 16.3289 13.9352 16.1992 14.1008 16.1992C14.2616 16.1992 14.4008 16.3318 14.4008 16.4963V17.7016C14.4008 17.869 14.2663 17.9987 14.1008 17.9987C13.9399 17.9987 13.8008 17.8661 13.8008 17.7016V16.4963Z" fill="#1A96F0"/>
<path d="M15.6016 15.2971C15.6016 15.1296 15.736 15 15.9016 15C16.0624 15 16.2016 15.1326 16.2016 15.2971V16.5024C16.2016 16.6698 16.0671 16.7995 15.9016 16.7995C15.7407 16.7995 15.6016 16.6669 15.6016 16.5024V15.2971Z" fill="#1A96F0"/>
</svg>
