<svg width="100" height="100" viewBox="0 0 100 100" fill="none" xmlns="http://www.w3.org/2000/svg">
<path d="M27.7523 37.755C23.3126 38.7801 20 42.76 20 47.5C20 53.0223 24.495 57.5 30.0073 57.5H72.4916C78.0189 57.5 82.4989 53.0123 82.4989 47.5C82.4989 42.8074 79.2511 38.8677 74.894 37.7901C74.9638 37.2851 74.9989 36.7728 74.9989 36.25C74.9989 30.0374 69.9615 25 63.7489 25C60.6842 25 57.9063 26.2249 55.8789 28.2126C53.4012 23.3399 48.3415 20 42.4989 20C34.2138 20 27.4989 26.7149 27.4989 35C27.4989 35.9425 27.5865 36.8627 27.7511 37.755H27.7523ZM27.7523 37.755C23.3126 38.7801 20 42.76 20 47.5C20 53.0223 24.495 57.5 30.0073 57.5H72.4916C78.0189 57.5 82.4989 53.0123 82.4989 47.5C82.4989 42.8074 79.2511 38.8677 74.894 37.7901C74.9638 37.2851 74.9989 36.7728 74.9989 36.25C74.9989 30.0374 69.9615 25 63.7489 25C60.6842 25 57.9063 26.2249 55.8789 28.2126C53.4012 23.3399 48.3415 20 42.4989 20C34.2138 20 27.4989 26.7149 27.4989 35C27.4989 35.9425 27.5865 36.8627 27.7511 37.755M27.7523 37.755C23.3126 38.7801 20 42.76 20 47.5C20 53.0223 24.495 57.5 30.0073 57.5H72.4916C78.0189 57.5 82.4989 53.0123 82.4989 47.5C82.4989 42.8074 79.2511 38.8677 74.894 37.7901C74.9638 37.2851 74.9989 36.7728 74.9989 36.25M27.7523 37.755C23.3126 38.7801 20 42.76 20 47.5C20 53.0223 24.495 57.5 30.0073 57.5H72.4916C78.0189 57.5 82.4989 53.0123 82.4989 47.5C82.4989 42.8074 79.2511 38.8677 74.894 37.7901C74.9638 37.2851 74.9989 36.7728 74.9989 36.25M27.7523 37.755C23.3126 38.7801 20 42.76 20 47.5C20 53.0223 24.495 57.5 30.0073 57.5H72.4916C78.0189 57.5 82.4989 53.0123 82.4989 47.5C82.4989 42.8074 79.2511 38.8677 74.894 37.7901C74.9638 37.2851 74.9989 36.7728 74.9989 36.25M27.7523 37.755C23.3126 38.7801 20 42.76 20 47.5C20 53.0223 24.495 57.5 30.0073 57.5H72.4916C78.0189 57.5 82.4989 53.0123 82.4989 47.5C82.4989 42.8074 79.2511 38.8677 74.894 37.7901C74.9638 37.2851 74.9989 36.7728 74.9989 36.25M27.7523 37.755C23.3126 38.7801 20 42.76 20 47.5C20 53.0223 24.495 57.5 30.0073 57.5H72.4916C78.0189 57.5 82.4989 53.0123 82.4989 47.5C82.4989 42.8074 79.2511 38.8677 74.894 37.7901C74.9638 37.2851 74.9989 36.7728 74.9989 36.25" fill="#273469"/>
<path d="M85.0002 47.5C85.0002 42.3723 81.9181 37.9648 77.4979 36.0374L77.4997 36.0374C77.387 28.5401 71.2742 22.5 63.752 22.5C61.1068 22.5 58.6348 23.2472 56.5371 24.5424C53.3445 20.2673 48.247 17.5 42.502 17.5C32.8368 17.5 25.002 25.3349 25.002 35C25.002 35.3477 25.012 35.6903 25.0321 36.0301C20.6018 37.9548 17.502 42.3727 17.502 47.5C17.502 54.4023 23.0822 60 29.9997 60H72.5025C79.4054 60 85.0002 54.39 85.0002 47.5Z" fill="#273469"/>
<path d="M35 63.7377C35 63.0402 35.5603 62.5 36.25 62.5C36.9202 62.5 37.5 63.0525 37.5 63.7377V68.76C37.5 69.4576 36.9397 69.9977 36.25 69.9977C35.5798 69.9977 35 69.4453 35 68.76V63.7377Z" fill="#1A96F0"/>
<path d="M42.5 68.7377C42.5 68.0402 43.0603 67.5 43.75 67.5C44.4202 67.5 45 68.0525 45 68.7377V73.76C45 74.4576 44.4397 74.9977 43.75 74.9977C43.0798 74.9977 42.5 74.4453 42.5 73.76V68.7377Z" fill="#1A96F0"/>
<path d="M50 63.7377C50 63.0402 50.5603 62.5 51.25 62.5C51.9202 62.5 52.5 63.0525 52.5 63.7377V68.76C52.5 69.4576 51.9397 69.9977 51.25 69.9977C50.5798 69.9977 50 69.4453 50 68.76V63.7377Z" fill="#1A96F0"/>
<path d="M57.5 68.7377C57.5 68.0402 58.0603 67.5 58.75 67.5C59.4202 67.5 60 68.0525 60 68.7377V73.76C60 74.4576 59.4397 74.9977 58.75 74.9977C58.0798 74.9977 57.5 74.4453 57.5 73.76V68.7377Z" fill="#1A96F0"/>
<path d="M65 63.7377C65 63.0402 65.5603 62.5 66.25 62.5C66.9202 62.5 67.5 63.0525 67.5 63.7377V68.76C67.5 69.4576 66.9397 69.9977 66.25 69.9977C65.5798 69.9977 65 69.4453 65 68.76V63.7377Z" fill="#1A96F0"/>
</svg>
