<svg width="100" height="100" viewBox="0 0 100 100" fill="none" xmlns="http://www.w3.org/2000/svg">
<path d="M59.8015 49.7871C54.916 49.834 50.0872 48.738 45.7005 46.5868C40.7725 44.1231 36.6554 40.3681 32.666 36.7308C31.5996 35.7604 30.5325 34.747 29.3914 33.7867C25.0181 29.958 19.1402 25.5098 12.4314 25.083C11.6691 25.026 11.0966 24.3631 11.1513 23.6002C11.2032 22.8307 11.8639 22.2459 12.634 22.2883C20.1858 22.7788 26.5648 27.5684 31.2683 31.6856C32.3882 32.656 33.4975 33.68 34.5858 34.6616C38.4257 38.171 42.4044 41.7977 46.9804 44.0802C60.25 50.6934 76.2275 45.0188 86.7675 37.4987V37.4993C87.0678 37.2616 87.4523 37.1572 87.8312 37.2108C88.2101 37.2649 88.5505 37.4714 88.7726 37.7828C88.9946 38.0942 89.0795 38.4837 89.0069 38.8592C88.9349 39.2348 88.7112 39.5646 88.3892 39.7711C80.6878 45.2538 70.2449 49.7872 59.802 49.7872L59.8015 49.7871ZM48.0682 57.574V57.5734C49.4723 57.1973 50.897 56.9054 52.335 56.699C54.5548 56.5148 56.7875 56.5433 59.0018 56.7843C60.0682 56.8697 61.1352 56.9551 62.2658 56.9869C67.5577 57.1778 72.8355 56.3223 77.7958 54.4696C78.5531 54.1923 79.2997 53.8831 80.0464 53.584V53.5846C82.4141 52.4373 84.9755 51.7424 87.5982 51.5366C88.3259 51.473 88.884 50.8636 88.884 50.1337C88.884 49.4032 88.3259 48.7944 87.5982 48.7308C84.6368 48.9412 81.7417 49.7085 79.0654 50.9925C78.3399 51.2804 77.6145 51.579 76.932 51.8457C72.2695 53.5662 67.317 54.363 62.3505 54.1923C61.2841 54.1923 60.2171 54.0751 59.2038 54.0003C56.8087 53.7403 54.3935 53.7152 51.9934 53.9256C50.4398 54.1404 48.9008 54.4501 47.3851 54.8536C45.1217 55.5706 42.7478 55.8742 40.3772 55.7498C34.7774 55.0779 30.7774 49.5522 27.8867 44.8162L27.3214 43.8776H27.3208C25.8744 41.2386 24.1121 38.785 22.0731 36.5712C19.1931 33.6806 15.673 32.2084 12.3984 32.55V32.5495C11.6294 32.6293 11.0708 33.3168 11.1501 34.0857C11.2299 34.8547 11.9174 35.4133 12.6864 35.3335C15.1076 35.0774 17.8064 36.2509 20.0892 38.5332V38.5338C21.9704 40.5891 23.5931 42.8675 24.9212 45.3178L25.4971 46.2564C28.6968 51.5895 33.241 57.6911 40.0357 58.5125C40.5524 58.5762 41.0725 58.608 41.5931 58.6085C43.77 58.5248 45.9295 58.1811 48.025 57.5845L48.0682 57.574ZM13.4768 44.6242C14.1721 44.6242 14.7357 44.0606 14.7357 43.3659C14.7357 42.6706 14.1721 42.1069 13.4768 42.1069C12.7821 42.1069 12.2184 42.6706 12.2184 43.3659C12.2184 44.0606 12.7821 44.6242 13.4768 44.6242ZM19.877 48.891C20.5723 48.891 21.1359 48.3273 21.1359 47.6326C21.1359 46.9373 20.5723 46.3737 19.877 46.3737C19.1822 46.3737 18.6186 46.9373 18.6186 47.6326C18.6186 48.3273 19.1822 48.891 19.877 48.891ZM14.1387 49.0511C14.8334 49.0511 15.397 48.4875 15.397 47.7922C15.397 47.0974 14.8334 46.5338 14.1387 46.5338C13.4434 46.5338 12.8797 47.0974 12.8797 47.7922C12.8797 48.4875 13.4434 49.0511 14.1387 49.0511ZM21.9255 58.3948H21.925C22.6203 58.3948 23.1839 57.8312 23.1839 57.1365C23.1839 56.4411 22.6203 55.8775 21.925 55.8775C21.2302 55.8775 20.6666 56.4411 20.6666 57.1365C20.6666 57.8312 21.2302 58.3948 21.925 58.3948H21.9255ZM28.5924 73.3291H28.5918C29.2871 73.3291 29.8502 72.7655 29.8502 72.0702C29.8502 71.3754 29.2871 70.8118 28.5918 70.8118C27.8965 70.8118 27.3329 71.3754 27.3329 72.0702C27.3329 72.7655 27.8965 73.3291 28.5918 73.3291H28.5924ZM13.6581 60.6467L13.6575 60.6461C14.3529 60.6461 14.9165 60.0831 14.9165 59.3878C14.9165 58.6924 14.3529 58.1288 13.6575 58.1288C12.9628 58.1288 12.3992 58.6924 12.3992 59.3878C12.3992 60.0831 12.9628 60.6461 13.6575 60.6461L13.6581 60.6467ZM22.5542 54.2465H22.5537C23.249 54.2465 23.8126 53.6829 23.8126 52.9876C23.8126 52.2923 23.249 51.7292 22.5537 51.7292C21.8584 51.7292 21.2953 52.2923 21.2953 52.9876C21.2953 53.6829 21.8584 54.2465 22.5537 54.2465H22.5542ZM28.1224 63.5797H28.1218C28.8171 63.5797 29.3802 63.0161 29.3802 62.3208C29.3802 61.626 28.8171 61.0624 28.1218 61.0624C27.4265 61.0624 26.8629 61.626 26.8629 62.3208C26.8629 63.0161 27.4265 63.5797 28.1218 63.5797H28.1224ZM52.3567 64.6461H52.3556C53.0509 64.6461 53.6145 64.083 53.6145 63.3877C53.6145 62.6924 53.0509 62.1288 52.3556 62.1288C51.6608 62.1288 51.0972 62.6924 51.0972 63.3877C51.0972 64.083 51.6608 64.6461 52.3556 64.6461H52.3567ZM39.268 68.2515C39.9627 68.2515 40.5263 67.6879 40.5263 66.9931C40.5263 66.2978 39.9627 65.7342 39.268 65.7342C38.5726 65.7342 38.009 66.2978 38.009 66.9931C38.009 67.6879 38.5726 68.2515 39.268 68.2515ZM46.1585 73.1477C46.8533 73.1477 47.4169 72.584 47.4169 71.8887C47.4169 71.194 46.8533 70.6304 46.1585 70.6304C45.4632 70.6304 44.8996 71.194 44.8996 71.8887C44.8996 72.584 45.4632 73.1477 46.1585 73.1477ZM67.7371 77.8195C68.4319 77.8195 68.9955 77.2559 68.9955 76.5611C68.9955 75.8658 68.4319 75.3022 67.7371 75.3022C67.0418 75.3022 66.4782 75.8658 66.4782 76.5611C66.4782 77.2559 67.0418 77.8195 67.7371 77.8195ZM56.8358 65.7554C57.5306 65.7554 58.0942 65.1923 58.0942 64.497C58.0942 63.8017 57.5306 63.2381 56.8358 63.2381C56.1405 63.2381 55.5769 63.8017 55.5769 64.497C55.5769 65.1923 56.1405 65.7554 56.8358 65.7554ZM60.217 74.8754C60.9123 74.8754 61.4753 74.3123 61.4753 73.617C61.4753 72.9217 60.9123 72.3581 60.217 72.3581C59.5216 72.3581 58.958 72.9217 58.958 73.617C58.958 74.3123 59.5216 74.8754 60.217 74.8754ZM85.3055 58.6511C86.0003 58.6511 86.5639 58.0875 86.5639 57.3922C86.5639 56.6974 86.0003 56.1338 85.3055 56.1338C84.6102 56.1338 84.0466 56.6974 84.0466 57.3922C84.0466 58.0875 84.6102 58.6511 85.3055 58.6511ZM76.4094 65.9898C77.1047 65.9898 77.6683 65.4262 77.6683 64.7309C77.6683 64.0361 77.1047 63.4725 76.4094 63.4725C75.7141 63.4725 75.1505 64.0361 75.1505 64.7309C75.1505 65.4262 75.7141 65.9898 76.4094 65.9898ZM65.0601 65.766V65.7655C65.7554 65.7655 66.319 65.2024 66.319 64.5071C66.319 63.8118 65.7554 63.2482 65.0601 63.2482C64.3648 63.2482 63.8012 63.8118 63.8012 64.5071C63.8012 65.2024 64.3648 65.7655 65.0601 65.7655V65.766ZM81.0601 74.886C81.7554 74.886 82.319 74.3224 82.319 73.6271C82.319 72.9318 81.7554 72.3682 81.0601 72.3682C80.3648 72.3682 79.8012 72.9318 79.8012 73.6271C79.8012 74.3224 80.3648 74.886 81.0601 74.886ZM80.6226 61.0942V61.0936C81.3179 61.0936 81.8815 60.53 81.8815 59.8352C81.8815 59.1399 81.3179 58.5763 80.6226 58.5763C79.9278 58.5763 79.3642 59.1399 79.3642 59.8352C79.3642 60.53 79.9278 61.0936 80.6226 61.0936V61.0942ZM82.8413 67.9847V67.9842C83.5366 67.9842 84.1002 67.4206 84.1002 66.7258C84.1002 66.0305 83.5366 65.4669 82.8413 65.4669C82.146 65.4669 81.5829 66.0305 81.5829 66.7258C81.5829 67.4206 82.146 67.9842 82.8413 67.9842V67.9847ZM70.4039 69.9792C71.0992 69.9792 71.6628 69.4156 71.6628 68.7202C71.6628 68.0255 71.0992 67.4619 70.4039 67.4619C69.7091 67.4619 69.1455 68.0255 69.1455 68.7202C69.1455 69.4156 69.7091 69.9792 70.4039 69.9792ZM39.951 76.2085C40.6463 76.2085 41.21 75.6448 41.21 74.9495C41.21 74.2548 40.6463 73.6912 39.951 73.6912C39.2557 73.6912 38.6927 74.2548 38.6927 74.9495C38.6927 75.6448 39.2557 76.2085 39.951 76.2085ZM43.0442 65.051C43.7395 65.051 44.3031 64.4874 44.3031 63.7921C44.3031 63.0973 43.7395 62.5337 43.0442 62.5337C42.3494 62.5337 41.7858 63.0973 41.7858 63.7921C41.7858 64.4874 42.3494 65.051 43.0442 65.051ZM20.8142 70.3842C21.5095 70.3842 22.0731 69.8206 22.0731 69.1258C22.0731 68.4305 21.5095 67.8669 20.8142 67.8669C20.1194 67.8669 19.5558 68.4305 19.5558 69.1258C19.5558 69.8206 20.1194 70.3842 20.8142 70.3842Z" fill="#273469"/>
</svg>
