<svg width="100" height="100" viewBox="0 0 100 100" fill="none" xmlns="http://www.w3.org/2000/svg">
<path fill-rule="evenodd" clip-rule="evenodd" d="M42.1983 54.6198C45.4872 48.8005 51.7211 44.8574 58.8931 44.8574C68.9817 44.8574 77.2517 52.6439 78.0204 62.5358C83.138 63.2194 87.0852 67.6015 87.0847 72.9071M76.6501 65.6431C80.6489 65.6586 83.8851 68.9041 83.8847 72.9069V72.9071C83.8847 76.9188 80.6331 80.1711 76.6207 80.1711H23.4367C19.4246 80.1711 16.1727 76.9186 16.1727 72.9071C16.1727 68.8948 19.4241 65.6431 23.4367 65.6431C23.6265 65.6431 23.827 65.6555 24.0625 65.675C24.7883 65.7351 25.4631 65.2974 25.7042 64.6101C27.3051 60.0471 31.6357 56.7781 36.7321 56.7781C38.7001 56.7781 40.549 57.2686 42.1767 58.1277C42.5654 58.3328 43.0214 58.369 43.4376 58.2278C43.8538 58.0866 44.1935 57.7804 44.3772 57.3811C46.9079 51.8779 52.4518 48.0574 58.8931 48.0574C67.7105 48.0574 74.8605 55.1957 74.8787 64.0093C74.8784 64.0218 74.8781 64.0355 74.8781 64.0503C74.8781 64.4811 75.0519 64.8937 75.36 65.1947C75.6682 65.4958 76.0847 65.6599 76.5154 65.6498C76.5547 65.6489 76.5885 65.6471 76.6123 65.6457C76.6258 65.6448 76.6401 65.6438 76.6501 65.6431ZM42.1983 54.6198C40.5068 53.9497 38.6633 53.5781 36.7321 53.5781C30.6482 53.5781 25.4351 57.2301 23.1219 62.4477C17.4876 62.6141 12.9727 67.2329 12.9727 72.9071C12.9727 78.6858 17.6571 83.3711 23.4367 83.3711H76.6207C82.4006 83.3711 87.0846 78.686 87.0847 72.9073" fill="#273469"/>
<path fill-rule="evenodd" clip-rule="evenodd" d="M30.7429 27.4852C27.8607 27.4852 25.5242 29.8215 25.5242 32.7032C25.5242 35.5852 27.8609 37.9219 30.7429 37.9219C33.6248 37.9219 35.9615 35.5852 35.9615 32.7032C35.9615 29.8215 33.625 27.4852 30.7429 27.4852ZM22.3242 32.7032C22.3242 28.0538 26.0938 24.2852 30.7429 24.2852C35.3919 24.2852 39.1615 28.0538 39.1615 32.7032C39.1615 37.3525 35.3921 41.1219 30.7429 41.1219C26.0936 41.1219 22.3242 37.3525 22.3242 32.7032Z" fill="#FFA000"/>
<path fill-rule="evenodd" clip-rule="evenodd" d="M30.7445 16.7207C31.6282 16.7207 32.3445 17.437 32.3445 18.3207V21.1973C32.3445 22.081 31.6282 22.7973 30.7445 22.7973C29.8609 22.7973 29.1445 22.081 29.1445 21.1973V18.3207C29.1445 17.437 29.8609 16.7207 30.7445 16.7207Z" fill="#FFA000"/>
<path fill-rule="evenodd" clip-rule="evenodd" d="M19.4419 21.4016C20.0671 20.7771 21.0801 20.7777 21.7046 21.4028L23.737 23.4374C24.3615 24.0626 24.361 25.0756 23.7358 25.7001C23.1107 26.3246 22.0976 26.3241 21.4731 25.6989L19.4407 23.6644C18.8162 23.0392 18.8167 22.0261 19.4419 21.4016Z" fill="#FFA000"/>
<path fill-rule="evenodd" clip-rule="evenodd" d="M14.7617 32.7029C14.7621 31.8192 15.4787 31.1032 16.3623 31.1035L19.2395 31.1046C20.1232 31.105 20.8393 31.8216 20.8389 32.7053C20.8386 33.5889 20.122 34.305 19.2383 34.3046L16.3611 34.3035C15.4774 34.3032 14.7614 33.5866 14.7617 32.7029Z" fill="#FFA000"/>
<path fill-rule="evenodd" clip-rule="evenodd" d="M23.738 39.7087C24.3629 40.3335 24.363 41.3466 23.7382 41.9715L21.7042 44.006C21.0794 44.6309 20.0663 44.6311 19.4414 44.0063C18.8165 43.3815 18.8164 42.3685 19.4412 41.7436L21.4752 39.709C22.1 39.0841 23.1131 39.084 23.738 39.7087Z" fill="#FFA000"/>
<path fill-rule="evenodd" clip-rule="evenodd" d="M30.7445 42.6094C31.6282 42.6094 32.3445 43.3257 32.3445 44.2094V47.0871C32.3445 47.9708 31.6282 48.6871 30.7445 48.6871C29.8609 48.6871 29.1445 47.9708 29.1445 47.0871V44.2094C29.1445 43.3257 29.8609 42.6094 30.7445 42.6094Z" fill="#FFA000"/>
<path fill-rule="evenodd" clip-rule="evenodd" d="M37.746 39.7089C38.3708 39.084 39.3839 39.084 40.0087 39.7089L42.0433 41.7434C42.6681 42.3683 42.6681 43.3813 42.0433 44.0062C41.4184 44.631 40.4054 44.631 39.7805 44.0062L37.746 41.9716C37.1211 41.3468 37.1211 40.3337 37.746 39.7089Z" fill="#FFA000"/>
<path fill-rule="evenodd" clip-rule="evenodd" d="M40.6484 32.7055C40.6484 31.8218 41.3648 31.1055 42.2484 31.1055H45.1251C46.0087 31.1055 46.7251 31.8218 46.7251 32.7055C46.7251 33.5891 46.0087 34.3055 45.1251 34.3055H42.2484C41.3648 34.3055 40.6484 33.5891 40.6484 32.7055Z" fill="#FFA000"/>
<path fill-rule="evenodd" clip-rule="evenodd" d="M42.0433 21.4022C42.6681 22.0271 42.6681 23.0401 42.0433 23.665L40.0087 25.6995C39.3839 26.3244 38.3708 26.3244 37.746 25.6995C37.1211 25.0747 37.1211 24.0616 37.746 23.4368L39.7805 21.4022C40.4054 20.7774 41.4184 20.7774 42.0433 21.4022Z" fill="#FFA000"/>
<ellipse cx="30.7411" cy="32.7098" rx="5.67857" ry="5.67857" fill="#FFA000"/>
</svg>
