<svg width="24" height="24" viewBox="0 0 24 24" fill="none" xmlns="http://www.w3.org/2000/svg">
<g clip-path="url(#clip0_134_170)">
<path d="M10.9744 11.2683C11.1198 11.7175 11.0294 12.1894 10.7916 12.5483L10.9744 11.2683Z" fill="#FFB74D" stroke="#FFB74D" stroke-width="11"/>
<path d="M5.92992 15.1603L5.50992 15.5803C5.38992 15.7003 5.38992 15.8803 5.50992 16.0003C5.62992 16.1203 5.80992 16.1203 5.92992 16.0003L6.34992 15.5803C6.46992 15.4603 6.46992 15.2803 6.34992 15.1603C6.22992 15.0403 6.04992 15.0403 5.92992 15.1603Z" fill="#FFB74D"/>
<path d="M4.57969 11.6191H3.97969C3.79969 11.6191 3.67969 11.7391 3.67969 11.9191C3.67969 12.0991 3.79969 12.2191 3.97969 12.2191H4.57969C4.75969 12.2191 4.87969 12.0991 4.87969 11.9191C4.87969 11.7391 4.75969 11.6191 4.57969 11.6191Z" fill="#FFB74D"/>
<path d="M5.92898 8.68016C6.10898 8.68016 6.22898 8.56016 6.22898 8.38016C6.22898 8.29016 6.19898 8.23016 6.13898 8.17016L5.71898 7.75016C5.59898 7.63016 5.41898 7.63016 5.29898 7.75016C5.17898 7.87016 5.17898 8.05016 5.29898 8.17016L5.71898 8.59016C5.77898 8.65016 5.83898 8.68016 5.92898 8.68016Z" fill="#FFB74D"/>
<path d="M9.38008 7.11992C9.56008 7.11992 9.68008 6.99992 9.68008 6.81992V6.21992C9.68008 6.03992 9.56008 5.91992 9.38008 5.91992C9.20008 5.91992 9.08008 6.03992 9.08008 6.21992V6.81992C9.08008 6.99992 9.20008 7.11992 9.38008 7.11992Z" fill="#FFB74D"/>
<path d="M12.9191 8.46922C13.0091 8.46922 13.0691 8.43922 13.1291 8.37922L13.5491 7.95922C13.6691 7.83922 13.6691 7.65922 13.5491 7.53922C13.4291 7.41922 13.2491 7.41922 13.1291 7.53922L12.7091 7.95922C12.5891 8.07922 12.5891 8.25922 12.7091 8.37922C12.7691 8.43922 12.8291 8.46922 12.9191 8.46922Z" fill="#FFB74D"/>
<path d="M19.006 17.9467C19.0006 17.9507 18.9952 17.9547 18.9897 17.9585C18.9137 18.0109 18.8263 18.0408 18.7273 18.0554C18.716 18.0571 18.7045 18.0585 18.6929 18.0598C18.6494 18.0646 18.6038 18.0667 18.556 18.0667H18.5559H18.4441H17.3307L18.2904 19.7576L18.4971 20.1218L18.5559 20.2253L18.556 20.2257L18.6634 20.4148L18.6869 20.4562C18.6909 20.4484 18.6949 20.4405 18.6989 20.4326C18.7139 20.4029 18.7287 20.3732 18.7434 20.3433C18.757 20.3154 18.7705 20.2874 18.7838 20.2594C18.8702 20.0779 18.9501 19.8959 19.0238 19.7137C19.0317 19.6944 19.0394 19.675 19.0471 19.6557C19.1342 19.4365 19.2124 19.2172 19.2821 18.9984C19.2856 18.9874 19.2891 18.9764 19.2926 18.9654L19.006 17.9467ZM19.006 17.9467L19.116 18.0932L19.4254 18.5058C19.5016 18.2161 19.5635 17.9282 19.6123 17.6436C19.4529 17.7663 19.2697 17.8638 19.0665 17.9285C19.0466 17.9349 19.0264 17.941 19.006 17.9467ZM11.5659 14.7667H11.5959L11.5776 14.7814C11.5735 14.7766 11.5696 14.7717 11.5659 14.7667ZM11.5659 14.7667L11.6459 14.7067L11.7983 14.5923L11.8307 14.5681L12.0458 14.4067C12.0309 14.3917 12.0234 14.3767 12.0159 14.3617C12.0114 14.3527 12.0069 14.3437 12.0008 14.3347C11.9967 14.3287 11.9919 14.3227 11.9859 14.3167C11.8647 14.1501 11.7207 13.9988 11.5614 13.8667H11.4098H11.2178H10.8908H10.6984H10.6921H9.85587M11.5659 14.7667C11.5659 14.7568 11.5626 14.7502 11.5583 14.7447C11.556 14.7418 11.5534 14.7393 11.5509 14.7367C11.5434 14.7292 11.5359 14.7217 11.5359 14.7067C11.5253 14.6934 11.5146 14.6803 11.5037 14.6673C11.3033 14.4265 11.0627 14.2267 10.7821 14.0842C10.7345 14.06 10.6858 14.0375 10.6359 14.0167C10.3959 13.9267 10.1259 13.8667 9.85587 13.8667M9.85587 13.8667H8.58587C8.54494 14.0385 8.5084 14.2114 8.47632 14.3854C8.85102 14.0529 9.33483 13.8667 9.85587 13.8667ZM18.6291 20.5684C18.6051 20.6141 18.5807 20.6596 18.556 20.7049C18.556 20.7051 18.5559 20.7052 18.5559 20.7053C18.4583 20.8843 18.3554 21.0599 18.2474 21.2316C18.2158 21.2459 18.1842 21.26 18.1525 21.2739C17.8979 21.3853 17.6394 21.4826 17.378 21.566L14.9859 18.5763L14.8042 18.3492L14.5782 18.0667H17.2392L18.2747 19.9305L18.3387 20.0458L18.4977 20.332L18.5559 20.4366L18.556 20.4369L18.6291 20.5684ZM19.5682 14.7667C19.612 14.7983 19.6544 14.832 19.6952 14.8676C19.6915 14.8339 19.6876 14.8003 19.6835 14.7667H19.5682ZM9.01925 17.8968L8.639 18.8094C8.61328 18.7116 8.58909 18.6137 8.56641 18.5156C8.52598 18.3407 8.49036 18.1655 8.45949 17.99L8.7145 17.7352C8.77517 17.7741 8.83803 17.81 8.90287 17.8427C8.94099 17.8618 8.9798 17.8799 9.01925 17.8968ZM13.93 18.0667L16.1978 21.8462C13.9668 22.2006 11.6477 21.6059 9.85587 20.1668C9.45486 19.8448 9.08025 19.4804 8.73895 19.075L8.78703 18.9468L9.16036 17.9512C9.37753 18.0261 9.61147 18.0667 9.85587 18.0667H11.9161H13.93ZM30.826 22.4417C32.3341 19.4396 32.7493 15.8961 31.7878 12.4777C31.3543 10.9363 30.6832 9.5404 29.8281 8.31292C29.5453 7.55121 29.2096 6.82276 28.8306 6.13355L28.7984 6.07499L28.7655 6.01679C24.425 -1.67071 14.7481 -4.24873 7.17813 -0.0431719L7.13026 -0.0165796L7.08264 0.0104485C5.30077 1.02177 3.74788 2.36242 2.49464 3.93968C0.244835 5.31959 -1.61046 7.32932 -2.81092 9.78817C-3.83737 11.8772 -4.24414 14.0077 -4.24414 15.9667C-4.24414 23.7641 2.0585 30.0667 9.85587 30.0667H18.5559H18.556C19.5344 30.0667 21.5166 29.9669 23.7311 28.9942C25.1394 28.4239 26.4019 27.6441 27.4974 26.7047L30.826 27.0074V22.4417ZM11.9859 14.8267C12.0143 14.8096 12.0384 14.7894 12.058 14.7667H11.9499H11.9379H11.6855L11.6252 14.827C11.7223 14.9029 11.864 14.9242 11.9859 14.8267Z" stroke="#273469" stroke-width="24"/>
</g>
<defs>
<clipPath id="clip0_134_170">
<rect width="24" height="24" fill="white"/>
</clipPath>
</defs>
</svg>
