<svg width="100" height="100" viewBox="0 0 100 100" fill="none" xmlns="http://www.w3.org/2000/svg">
<path d="M75.0003 53.7844H72.5003C68.3557 53.7844 65.0003 57.1392 65.0003 61.2844C65.0003 61.9752 65.5606 62.5344 66.2503 62.5344C66.9412 62.5344 67.5003 61.9747 67.5003 61.2844C67.5003 58.5204 69.7363 56.2844 72.5003 56.2844H75.0003C79.146 56.2844 82.5003 59.6392 82.5003 63.7844C82.5003 69.3112 78.0282 73.7844 72.5003 73.7844H32.5003C29.7357 73.7844 27.4997 71.5484 27.4997 68.7844C27.4997 66.0204 29.7357 63.7844 32.5003 63.7844H35.0009C35.0009 58.2575 39.474 53.7844 45.0009 53.7844C45.0009 46.8748 50.5913 41.2844 57.5009 41.2844H60.0009C65.723 41.2844 70.5355 45.1214 72.0216 50.3625C72.0277 50.362 72.0328 50.3597 72.0383 50.3597C72.1879 50.8826 72.6645 51.2671 73.2353 51.2671C73.9251 51.2671 74.4853 50.7074 74.4853 50.0171C74.4853 49.9473 74.4747 49.8798 74.4647 49.8134C74.4373 49.7141 74.4094 49.6164 74.3804 49.5182C72.545 43.3089 66.8096 38.7832 60.0004 38.7832H57.5004C49.9848 38.7832 43.77 44.2955 42.6718 51.5025C37.6891 52.4394 33.7538 56.3251 32.75 61.2832H32.4219V61.2877C28.313 61.3301 25 64.665 25 68.7838C25 72.929 28.3549 76.2838 32.5 76.2838H72.5C79.4096 76.2838 85 70.6934 85 63.7838C84.9994 58.257 80.5273 53.7844 74.9994 53.7844L75.0003 53.7844Z" fill="#273469"/>
<path d="M30.9321 58.9196C31.0604 58.5451 31.2016 58.1763 31.3584 57.8163C28.9817 55.5412 27.5001 52.3392 27.5001 48.7856C27.5001 41.8766 33.0906 36.2856 40.0001 36.2856C43.0157 36.2856 45.7803 37.3515 47.9387 39.1261C48.6776 38.6439 49.4549 38.2165 50.2646 37.8482C47.5831 35.3292 43.9744 33.7852 40 33.7852C31.7081 33.7852 25 40.4939 25 48.7852C25 52.8894 26.6457 56.6049 29.3126 59.312C29.8343 59.1368 30.3762 59.0073 30.9326 58.9197L30.9321 58.9196Z" fill="#FFA000"/>
<path d="M32.5006 58.7852H32.4961L32.5006 58.7891V58.7852Z" fill="#FFA000"/>
<path d="M40 31.2851C40.6908 31.2851 41.25 30.7254 41.25 30.0351V25.0379C41.25 25.0368 41.2506 25.0363 41.2506 25.0352C41.2506 24.3449 40.6903 23.7852 40.0006 23.7852C39.3097 23.7852 38.75 24.3454 38.75 25.0352V30.0352C38.75 30.726 39.3097 31.2852 40 31.2852V31.2851Z" fill="#FFA000"/>
<path d="M21.2499 47.5352H16.2528H16.25C15.5597 47.5352 15 48.0949 15 48.7852C15 49.4754 15.5603 50.0352 16.25 50.0352H21.25C21.9408 50.0352 22.5 49.4754 22.5 48.7852C22.5 48.0949 21.9408 47.5352 21.25 47.5352H21.2499Z" fill="#FFA000"/>
<path d="M25.8546 35.8662C26.3429 36.3545 27.1342 36.3545 27.6219 35.8662C28.1096 35.3785 28.1102 34.5872 27.6219 34.0989L24.0879 30.5649C24.0873 30.5644 24.0873 30.5638 24.0868 30.5633C23.5985 30.0755 22.8067 30.075 22.3189 30.5633C21.8312 31.051 21.8312 31.8428 22.3189 32.3306L25.8546 35.8662Z" fill="#FFA000"/>
<path d="M54.1413 35.8663L57.677 32.3306C58.1653 31.8423 58.1653 31.051 57.677 30.5633C57.1892 30.0755 56.398 30.075 55.9097 30.5633L52.3763 34.0973C52.3751 34.0978 52.3751 34.0984 52.374 34.0989C51.8857 34.5867 51.8857 35.3785 52.374 35.8662C52.8623 36.3545 53.6542 36.354 54.1413 35.8662L54.1413 35.8663Z" fill="#FFA000"/>
</svg>
