<svg width="100" height="100" viewBox="0 0 100 100" fill="none" xmlns="http://www.w3.org/2000/svg">
<path d="M70.1485 50.0342C70.1485 38.9432 61.1251 29.9199 50.0342 29.9199C38.9434 29.9199 29.9199 38.9434 29.9199 50.0342C29.9199 61.1251 38.9439 70.1485 50.0342 70.1485C61.1245 70.1485 70.1485 61.1251 70.1485 50.0342Z" fill="#FFA000"/>
<path d="M51.7088 20.519V15.7099C51.7088 14.7846 50.9588 14.0352 50.0341 14.0352C49.1094 14.0352 48.3594 14.7846 48.3594 15.7099V20.5184C48.3594 21.4431 49.1088 22.1932 50.0341 22.1932C50.9588 22.1926 51.7088 21.4443 51.7088 20.519Z" fill="#FFA000"/>
<path d="M48.3613 79.5503V84.36C48.3613 85.2847 49.1113 86.0341 50.036 86.0341C50.9608 86.0341 51.7108 85.2847 51.7108 84.3594V79.5497C51.7108 78.625 50.9613 77.875 50.036 77.875C49.1114 77.8756 48.3613 78.625 48.3613 79.5503Z" fill="#FFA000"/>
<path d="M84.3614 48.3613H79.5517C78.627 48.3613 77.877 49.1108 77.877 50.036C77.877 50.9607 78.6264 51.7108 79.5517 51.7108H84.3614C85.2866 51.7108 86.0361 50.9608 86.0361 50.036C86.0361 49.1113 85.2867 48.3613 84.3614 48.3613Z" fill="#FFA000"/>
<path d="M22.1937 50.036C22.1937 49.1114 21.4443 48.3613 20.519 48.3613H15.7099C14.7846 48.3613 14.0352 49.1113 14.0352 50.036C14.0352 50.9608 14.7846 51.7108 15.7099 51.7108H20.5196C21.4443 51.7108 22.1937 50.9608 22.1937 50.036Z" fill="#FFA000"/>
<path d="M75.4918 24.5788C74.8372 23.9242 73.7781 23.9242 73.1241 24.5788L69.7234 27.9795C69.0688 28.6341 69.0688 29.6938 69.7234 30.3472C70.0504 30.6743 70.4784 30.8378 70.9075 30.8378C71.3361 30.8378 71.7641 30.6748 72.0917 30.3472L75.4924 26.9465C76.1453 26.2925 76.1453 25.2322 75.4918 24.5788H75.4918Z" fill="#FFA000"/>
<path d="M24.5798 75.4918C24.9068 75.8188 25.3349 75.9823 25.764 75.9823C26.1926 75.9823 26.6206 75.8194 26.9481 75.4918L30.3489 72.0911C31.0034 71.4376 31.0034 70.3768 30.3489 69.7234C29.6943 69.0688 28.6351 69.0688 27.9811 69.7234L24.5804 73.1241C23.9264 73.7781 23.9264 74.8378 24.5799 75.4918H24.5798Z" fill="#FFA000"/>
<path d="M73.1235 75.4918C73.4505 75.8188 73.8785 75.9823 74.3076 75.9823C74.7362 75.9823 75.1642 75.8194 75.4918 75.4918C76.1463 74.8383 76.1463 73.7775 75.4918 73.1241L72.0911 69.7234C71.4365 69.0688 70.3774 69.0688 69.7234 69.7234C69.0688 70.3768 69.0688 71.4376 69.7234 72.0911L73.1235 75.4918Z" fill="#FFA000"/>
<path d="M27.9795 30.3478C28.3065 30.6748 28.7345 30.8383 29.1637 30.8383C29.5922 30.8383 30.0202 30.6754 30.3478 30.3478C31.0024 29.6944 31.0024 28.6341 30.3478 27.9801L26.9465 24.5788C26.292 23.9242 25.2328 23.9242 24.5788 24.5788C23.9242 25.2323 23.9242 26.2925 24.5788 26.9465L27.9795 30.3478Z" fill="#FFA000"/>
</svg>
