<svg width="24" height="24" viewBox="0 0 24 24" fill="none" xmlns="http://www.w3.org/2000/svg">
<path d="M16.8365 12.0091C16.8365 9.34723 14.6709 7.18164 12.0091 7.18164C9.34726 7.18164 7.18164 9.34726 7.18164 12.0091C7.18164 14.6709 9.3474 16.8365 12.0091 16.8365C14.6707 16.8365 16.8365 14.6709 16.8365 12.0091Z" fill="#FFB74D"/>
<path d="M12.4113 4.92527V3.77107C12.4113 3.54902 12.2313 3.36914 12.0094 3.36914C11.7874 3.36914 11.6074 3.54901 11.6074 3.77107V4.92513C11.6074 5.14705 11.7873 5.32706 12.0094 5.32706C12.2313 5.32693 12.4113 5.14733 12.4113 4.92527Z" fill="#FFB74D"/>
<path d="M11.6074 19.0935V20.2478C11.6074 20.4697 11.7874 20.6496 12.0094 20.6496C12.2313 20.6496 12.4113 20.4697 12.4113 20.2477V19.0933C12.4113 18.8714 12.2314 18.6914 12.0094 18.6914C11.7874 18.6915 11.6074 18.8714 11.6074 19.0935Z" fill="#FFB74D"/>
<path d="M20.2477 11.6074H19.0933C18.8714 11.6074 18.6914 11.7873 18.6914 12.0094C18.6914 12.2313 18.8713 12.4113 19.0933 12.4113H20.2477C20.4697 12.4113 20.6496 12.2313 20.6496 12.0094C20.6496 11.7874 20.4697 11.6074 20.2477 11.6074Z" fill="#FFB74D"/>
<path d="M5.3272 12.0094C5.3272 11.7874 5.14733 11.6074 4.92527 11.6074H3.77107C3.54902 11.6074 3.36914 11.7874 3.36914 12.0094C3.36914 12.2313 3.54901 12.4113 3.77107 12.4113H4.9254C5.14733 12.4113 5.3272 12.2313 5.3272 12.0094Z" fill="#FFB74D"/>
<path d="M18.1194 5.89907C17.9623 5.74198 17.7081 5.74198 17.5512 5.89907L16.735 6.71524C16.5779 6.87234 16.5779 7.12667 16.735 7.2835C16.8135 7.36198 16.9162 7.40122 17.0192 7.40122C17.1221 7.40122 17.2248 7.36211 17.3034 7.2835L18.1196 6.46732C18.2763 6.31036 18.2763 6.0559 18.1194 5.89907H18.1194Z" fill="#FFB74D"/>
<path d="M5.89885 18.1194C5.97733 18.1979 6.08005 18.2372 6.18304 18.2372C6.2859 18.2372 6.38862 18.1981 6.46724 18.1194L7.28341 17.3033C7.44051 17.1464 7.44051 16.8918 7.28341 16.735C7.12632 16.5779 6.87212 16.5779 6.71516 16.735L5.89899 17.5512C5.74203 17.7081 5.74203 17.9625 5.89886 18.1194H5.89885Z" fill="#FFB74D"/>
<path d="M17.551 18.1194C17.6295 18.1979 17.7322 18.2372 17.8352 18.2372C17.9381 18.2372 18.0408 18.1981 18.1194 18.1194C18.2765 17.9626 18.2765 17.708 18.1194 17.5512L17.3033 16.735C17.1462 16.5779 16.892 16.5779 16.735 16.735C16.5779 16.8918 16.5779 17.1464 16.735 17.3033L17.551 18.1194Z" fill="#FFB74D"/>
<path d="M6.71524 7.28363C6.79372 7.36212 6.89644 7.40136 6.99943 7.40136C7.10229 7.40136 7.20502 7.36225 7.28363 7.28363C7.44073 7.1268 7.44073 6.87234 7.28363 6.71538L6.46732 5.89907C6.31023 5.74198 6.05603 5.74198 5.89907 5.89907C5.74198 6.0559 5.74198 6.31036 5.89907 6.46732L6.71524 7.28363Z" fill="#FFB74D"/>
</svg>
