<svg width="100" height="100" viewBox="0 0 100 100" fill="none" xmlns="http://www.w3.org/2000/svg">
<path d="M49.8415 34.3935C52.8872 34.3806 55.8269 35.5101 58.0804 37.5586C60.3342 39.6072 61.7378 42.4263 62.0145 45.4593C61.9459 45.5029 61.8756 45.5469 61.808 45.5899C60.7751 46.331 59.5358 46.73 58.2639 46.73C56.9927 46.73 55.7533 46.3315 54.7198 45.5905C53.2823 44.5977 51.5763 44.0659 49.8292 44.0659C48.082 44.0659 46.376 44.5977 44.9386 45.591C43.9051 46.331 42.6658 46.7289 41.3945 46.7289C40.1233 46.7283 38.8839 46.3304 37.8503 45.5905C37.6556 39.5296 43.6489 34.3142 49.8415 34.3935Z" fill="#FFA000"/>
<path d="M83.7499 52.1426C79.3236 52.0578 79.232 54.7419 75.3052 54.8423C71.3844 54.7419 71.28 52.0572 66.8599 52.1426C62.438 52.0572 62.3432 54.7419 58.4213 54.8423C57.1434 54.8725 55.8934 54.4662 54.8783 53.69C53.4409 52.6967 51.7349 52.1649 49.9877 52.1649C48.2406 52.1649 46.5346 52.6967 45.0971 53.69C44.0637 54.43 42.8243 54.8278 41.553 54.8278C40.2818 54.8278 39.0424 54.4294 38.0089 53.6894C36.5714 52.6961 34.8654 52.1637 33.1183 52.1637C31.3711 52.1637 29.6651 52.6961 28.2277 53.69C27.2121 54.4662 25.9621 54.8725 24.6836 54.8423C23.4062 54.8725 22.1563 54.4662 21.1406 53.69C19.7237 52.6532 18.0056 52.1097 16.25 52.1426C15.5597 52.1426 15 52.7023 15 53.3926C15 54.0829 15.5597 54.6426 16.25 54.6426C17.5279 54.6119 18.7779 55.0187 19.793 55.7949C21.23 56.7899 22.9364 57.3228 24.6841 57.3228C26.4319 57.3228 28.1384 56.7898 29.5753 55.7949C30.6082 55.0538 31.847 54.6548 33.1183 54.6554C34.3895 54.6554 35.6289 55.0538 36.6613 55.7949C38.0993 56.7888 39.8053 57.3206 41.553 57.3206C43.3007 57.3206 45.0073 56.7883 46.4447 55.7943C47.4776 55.0544 48.717 54.6559 49.9877 54.6565C51.2589 54.6565 52.4977 55.0544 53.5307 55.7949C54.9631 56.8016 56.6719 57.3418 58.4224 57.3423C60.1736 57.3423 61.8817 56.8022 63.3142 55.7955C64.3454 55.046 65.587 54.6426 66.8622 54.6426C68.1367 54.6426 69.3783 55.046 70.4096 55.7955C71.8493 56.7877 73.5569 57.3195 75.3053 57.3195C77.0542 57.3195 78.7612 56.7877 80.201 55.7955C81.2183 55.0187 82.4706 54.6119 83.7502 54.6426C84.4326 54.6314 84.9801 54.075 84.9801 53.3926C84.9801 52.7101 84.4326 52.1537 83.7502 52.1426L83.7499 52.1426Z" fill="#1A96F0"/>
<path d="M83.7499 43.9297C79.3236 43.8449 79.232 46.529 75.3052 46.6294C71.3844 46.529 71.28 43.8443 66.8599 43.9297C62.438 43.8444 62.3432 46.529 58.4213 46.6294C57.1434 46.6596 55.8934 46.2533 54.8783 45.4771C53.4409 44.4838 51.7349 43.952 49.9877 43.952C48.2406 43.952 46.5346 44.4838 45.0971 45.4771C44.0637 46.2171 42.8243 46.6149 41.553 46.6149C40.2818 46.6149 39.0424 46.2165 38.0089 45.4765C36.5714 44.4832 34.8654 43.9508 33.1183 43.9508C31.3711 43.9508 29.6651 44.4832 28.2277 45.4771C27.2121 46.2533 25.9621 46.6596 24.6836 46.6294C23.4062 46.6596 22.1563 46.2533 21.1406 45.4771C19.7237 44.4403 18.0056 43.8968 16.25 43.9297C15.5597 43.9297 15 44.4894 15 45.1797C15 45.87 15.5597 46.4297 16.25 46.4297C17.5279 46.399 18.7779 46.8058 19.793 47.582C21.23 48.577 22.9364 49.1099 24.6841 49.1099C26.4319 49.1099 28.1384 48.5769 29.5753 47.582C30.6082 46.8409 31.847 46.4419 33.1183 46.4425C34.3895 46.4425 35.6289 46.8409 36.6613 47.582C38.0993 48.5759 39.8053 49.1077 41.553 49.1077C43.3007 49.1077 45.0073 48.5754 46.4447 47.5814C47.4776 46.8415 48.717 46.443 49.9877 46.4436C51.2589 46.4436 52.4977 46.8415 53.5307 47.582C54.9631 48.5887 56.6719 49.1289 58.4224 49.1294C60.1736 49.1294 61.8817 48.5893 63.3142 47.5826C64.3454 46.8331 65.587 46.4297 66.8622 46.4297C68.1367 46.4297 69.3783 46.8331 70.4096 47.5826C71.8493 48.5748 73.5569 49.1066 75.3053 49.1066C77.0542 49.1066 78.7612 48.5748 80.201 47.5826C81.2183 46.8058 82.4706 46.399 83.7502 46.4297C84.4326 46.4185 84.9801 45.8622 84.9801 45.1797C84.9801 44.4972 84.4326 43.9408 83.7502 43.9297L83.7499 43.9297Z" fill="#1A96F0"/>
<path d="M83.7499 60.3731C79.323 60.2888 79.232 62.9735 75.3052 63.0733C71.3839 62.9735 71.28 60.2882 66.8599 60.3731C62.438 60.2882 62.3437 62.9723 58.4213 63.0733C57.1434 63.104 55.8934 62.6972 54.8783 61.9205C53.4409 60.9272 51.7349 60.3953 49.9877 60.3953C48.2406 60.3953 46.5346 60.9271 45.0971 61.9205C44.0637 62.661 42.8243 63.0588 41.553 63.0588C40.2818 63.0588 39.0424 62.6604 38.0089 61.9199C36.5714 60.9266 34.8654 60.3942 33.1183 60.3942C31.3711 60.3942 29.6651 60.9266 28.2277 61.9205C27.2121 62.6973 25.9621 63.1035 24.6836 63.0734C23.4057 63.1041 22.1557 62.6973 21.1406 61.9205C19.7237 60.8836 18.0056 60.3402 16.25 60.373C15.5597 60.373 15 60.9328 15 61.623C15 62.3133 15.5597 62.873 16.25 62.873C17.5279 62.8423 18.7779 63.2492 19.793 64.0259C21.23 65.0209 22.9364 65.5538 24.6841 65.5538C26.4319 65.5538 28.1384 65.0209 29.5753 64.0259C30.6077 63.2843 31.847 62.8853 33.1183 62.8853C34.3895 62.8859 35.6289 63.2843 36.6613 64.0259C38.0993 65.0198 39.8053 65.5522 41.553 65.5517C43.3007 65.5517 45.0073 65.0193 46.4447 64.0259C47.4776 63.2849 48.7164 62.887 49.9877 62.887C51.2584 62.887 52.4971 63.2849 53.5301 64.0254C54.9626 65.0326 56.6713 65.5734 58.4224 65.5734C60.1736 65.5734 61.8817 65.0332 63.3142 64.026C64.3454 63.2765 65.5876 62.873 66.8622 62.873C68.1367 62.873 69.3789 63.2771 70.4096 64.0265C71.8493 65.0193 73.5569 65.5505 75.3053 65.5505C77.0542 65.55 78.7612 65.0187 80.201 64.0259C81.2183 63.2492 82.4706 62.8423 83.7502 62.873C84.4326 62.8619 84.9801 62.3055 84.9801 61.623C84.9801 60.9406 84.4326 60.3842 83.7502 60.373L83.7499 60.3731Z" fill="#1A96F0"/>
</svg>
