<svg width="24" height="24" viewBox="0 0 24 24" fill="none" xmlns="http://www.w3.org/2000/svg">
<path d="M11.961 8.25412C12.692 8.25104 13.3975 8.52211 13.9383 9.01375C14.4793 9.50541 14.8161 10.182 14.8825 10.9099C14.8661 10.9204 14.8492 10.931 14.833 10.9413C14.5851 11.1191 14.2876 11.2149 13.9824 11.2149C13.6773 11.2149 13.3799 11.1193 13.1318 10.9414C12.7868 10.7031 12.3774 10.5755 11.9581 10.5755C11.5388 10.5755 11.1293 10.7031 10.7843 10.9415C10.5363 11.1191 10.2388 11.2146 9.93373 11.2146C9.62865 11.2145 9.3312 11.119 9.08314 10.9414C9.0364 9.48679 10.4748 8.23509 11.961 8.25412Z" fill="#FFB74D"/>
<path d="M20.0996 12.5142C19.0373 12.4938 19.0153 13.138 18.0728 13.1621C17.1319 13.138 17.1068 12.4936 16.046 12.5142C14.9847 12.4937 14.962 13.138 14.0207 13.1621C13.714 13.1693 13.414 13.0718 13.1704 12.8855C12.8254 12.6471 12.416 12.5195 11.9967 12.5195C11.5773 12.5195 11.1679 12.6471 10.8229 12.8855C10.5749 13.0631 10.2774 13.1586 9.97233 13.1586C9.66724 13.1586 9.36979 13.063 9.12174 12.8854C8.77675 12.647 8.36731 12.5192 7.948 12.5192C7.52868 12.5192 7.11924 12.647 6.77426 12.8855C6.53051 13.0718 6.23052 13.1693 5.92367 13.1621C5.6171 13.1693 5.31712 13.0718 5.07335 12.8855C4.7333 12.6367 4.32095 12.5063 3.89961 12.5141C3.73394 12.5141 3.59961 12.6485 3.59961 12.8141C3.59961 12.9798 3.73394 13.1141 3.89961 13.1141C4.20631 13.1068 4.5063 13.2044 4.74993 13.3907C5.09481 13.6295 5.50435 13.7574 5.9238 13.7574C6.34326 13.7574 6.75283 13.6295 7.09768 13.3907C7.34558 13.2128 7.64289 13.1171 7.948 13.1172C8.25309 13.1172 8.55054 13.2128 8.79832 13.3907C9.14344 13.6292 9.55288 13.7569 9.97233 13.7569C10.3918 13.7569 10.8014 13.6291 11.1463 13.3906C11.3942 13.213 11.6917 13.1173 11.9967 13.1175C12.3018 13.1175 12.5991 13.213 12.847 13.3907C13.1908 13.6323 13.6009 13.7619 14.021 13.7621C14.4413 13.7621 14.8512 13.6324 15.195 13.3908C15.4425 13.211 15.7405 13.1141 16.0465 13.1141C16.3524 13.1141 16.6504 13.211 16.8979 13.3908C17.2434 13.629 17.6533 13.7566 18.0729 13.7566C18.4926 13.7566 18.9023 13.629 19.2479 13.3908C19.492 13.2044 19.7925 13.1068 20.0996 13.1141C20.2634 13.1115 20.3948 12.9779 20.3948 12.8141C20.3948 12.6503 20.2634 12.5168 20.0996 12.5141L20.0996 12.5142Z" fill="#1A96F0"/>
<path d="M20.0996 10.5434C19.0373 10.5231 19.0153 11.1673 18.0728 11.1914C17.1319 11.1673 17.1068 10.5229 16.046 10.5434C14.9847 10.523 14.962 11.1673 14.0207 11.1914C13.714 11.1986 13.414 11.1011 13.1704 10.9148C12.8254 10.6764 12.416 10.5488 11.9967 10.5488C11.5773 10.5488 11.1679 10.6764 10.8229 10.9148C10.5749 11.0924 10.2774 11.1879 9.97233 11.1879C9.66724 11.1879 9.36979 11.0923 9.12174 10.9147C8.77675 10.6763 8.36731 10.5485 7.948 10.5485C7.52868 10.5485 7.11924 10.6763 6.77426 10.9148C6.53051 11.1011 6.23052 11.1986 5.92367 11.1914C5.6171 11.1986 5.31712 11.1011 5.07335 10.9148C4.7333 10.666 4.32095 10.5355 3.89961 10.5434C3.73394 10.5434 3.59961 10.6778 3.59961 10.8434C3.59961 11.0091 3.73394 11.1434 3.89961 11.1434C4.20631 11.1361 4.5063 11.2337 4.74993 11.42C5.09481 11.6588 5.50435 11.7867 5.9238 11.7867C6.34326 11.7867 6.75283 11.6588 7.09768 11.42C7.34558 11.2421 7.64289 11.1464 7.948 11.1465C8.25309 11.1465 8.55054 11.2421 8.79832 11.42C9.14344 11.6585 9.55288 11.7862 9.97233 11.7862C10.3918 11.7862 10.8014 11.6584 11.1463 11.4199C11.3942 11.2423 11.6917 11.1466 11.9967 11.1468C12.3018 11.1468 12.5991 11.2423 12.847 11.42C13.1908 11.6616 13.6009 11.7912 14.021 11.7914C14.4413 11.7914 14.8512 11.6617 15.195 11.4201C15.4425 11.2403 15.7405 11.1434 16.0465 11.1434C16.3524 11.1434 16.6504 11.2403 16.8979 11.4201C17.2434 11.6583 17.6533 11.7859 18.0729 11.7859C18.4926 11.7859 18.9023 11.6583 19.2479 11.4201C19.492 11.2337 19.7925 11.1361 20.0996 11.1434C20.2634 11.1408 20.3948 11.0072 20.3948 10.8434C20.3948 10.6796 20.2634 10.5461 20.0996 10.5434L20.0996 10.5434Z" fill="#1A96F0"/>
<path d="M20.0996 14.4888C19.0371 14.4685 19.0153 15.1129 18.0728 15.1368C17.1317 15.1128 17.1068 14.4684 16.046 14.4888C14.9847 14.4684 14.9621 15.1126 14.0207 15.1368C13.714 15.1442 13.414 15.0466 13.1704 14.8601C12.8254 14.6217 12.416 14.4941 11.9967 14.4941C11.5773 14.4941 11.1679 14.6217 10.8229 14.8601C10.5749 15.0379 10.2774 15.1333 9.97233 15.1333C9.66724 15.1333 9.36979 15.0377 9.12174 14.86C8.77675 14.6216 8.36731 14.4938 7.948 14.4938C7.52868 14.4938 7.11924 14.6216 6.77426 14.8601C6.53051 15.0466 6.23052 15.1441 5.92367 15.1368C5.61697 15.1442 5.31698 15.0466 5.07335 14.8601C4.7333 14.6113 4.32095 14.4809 3.89961 14.4887C3.73394 14.4887 3.59961 14.6231 3.59961 14.7887C3.59961 14.9544 3.73394 15.0887 3.89961 15.0887C4.20631 15.0814 4.5063 15.179 4.74993 15.3654C5.09481 15.6042 5.50435 15.7321 5.9238 15.7321C6.34326 15.7321 6.75283 15.6042 7.09768 15.3654C7.34545 15.1875 7.64289 15.0917 7.948 15.0917C8.25309 15.0918 8.55054 15.1875 8.79832 15.3654C9.14344 15.604 9.55288 15.7318 9.97233 15.7316C10.3918 15.7316 10.8014 15.6038 11.1463 15.3654C11.3942 15.1876 11.6916 15.0921 11.9967 15.0921C12.3016 15.0921 12.5989 15.1876 12.8468 15.3653C13.1906 15.6071 13.6007 15.7368 14.021 15.7368C14.4413 15.7368 14.8512 15.6072 15.195 15.3654C15.4425 15.1856 15.7406 15.0888 16.0465 15.0888C16.3524 15.0888 16.6505 15.1857 16.8979 15.3656C17.2434 15.6038 17.6533 15.7313 18.0729 15.7313C18.4926 15.7312 18.9023 15.6037 19.2479 15.3654C19.492 15.179 19.7925 15.0814 20.0996 15.0887C20.2634 15.0861 20.3948 14.9525 20.3948 14.7887C20.3948 14.625 20.2634 14.4914 20.0996 14.4887L20.0996 14.4888Z" fill="#1A96F0"/>
</svg>
