<svg width="200" height="23" viewBox="0 0 200 23" fill="none" xmlns="http://www.w3.org/2000/svg">
<path d="M196.993 0.448182C194.592 -0.376527 191.977 0.90067 191.15 3.29938C189.633 7.71662 186.78 13.1205 181.95 13.8344C177.119 14.5468 169.851 10.1312 164.031 2.10368C163.117 0.842544 161.628 0.128538 160.071 0.207156C158.517 0.285778 157.106 1.1474 156.325 2.49516C152.23 9.579 147.952 13.422 143.629 13.8582C138.476 14.3877 131.967 10.3155 124.33 1.7361C123.369 0.651463 121.955 0.0818773 120.511 0.198983C119.067 0.317715 117.764 1.10711 116.992 2.33296C112.392 9.67023 107.792 13.5354 103.19 13.834C98.0607 14.179 91.9426 10.1533 85.1105 1.89675C84.1558 0.709425 82.6733 0.0708281 81.1538 0.194382C79.7066 0.266584 78.3764 1.01588 77.5661 2.21926C72.4367 9.90157 67.3068 13.9964 63.2346 13.8119C58.1273 13.8119 53.2755 7.53193 50.0999 2.31086H50.1015C49.349 0.996779 47.998 0.136748 46.4898 0.00999003C45.0056 -0.0878841 43.5664 0.537895 42.6245 1.68989C35.9547 9.78623 29.8349 13.8342 24.2224 13.6272C19.0929 13.4427 13.7338 9.51021 8.35051 1.94169L8.35211 1.94329C6.87759 -0.128136 4.00553 -0.612705 1.9341 0.861855C-0.13732 2.33477 -0.620282 5.20844 0.852677 7.27822C8.00552 17.3063 15.7585 22.5291 23.8548 22.8051C31.1231 23.0811 38.2776 19.5383 45.5927 12.0631C51.0208 19.1469 56.7261 22.6897 62.9359 22.8277C69.1469 22.9657 75.5632 19.378 81.6604 11.9008C89.1821 19.6986 96.3818 23.2639 103.558 22.8277C109.93 22.4137 115.865 18.733 121.293 11.8318C129.596 19.9746 137.187 23.5863 144.456 22.8277C150.367 22.2292 155.773 18.7107 160.557 12.3617C166.882 19.2628 173.876 22.9435 180.568 22.9435C181.44 22.9515 182.308 22.8906 183.168 22.7606C188.413 21.9792 195.543 18.4588 199.798 6.10745V6.10584C200.511 3.7745 199.28 1.29223 196.992 0.448546L196.993 0.448182Z" fill="black"/>
</svg>
