<svg width="24" height="24" viewBox="0 0 24 24" fill="none" xmlns="http://www.w3.org/2000/svg">
<path d="M2.19988 11.787C1.9643 11.787 1.77319 11.596 1.77319 11.3603C1.77319 11.1247 1.96431 10.9338 2.19988 10.9338H18.4132C20.534 10.9338 22.2532 9.21451 22.2532 7.09376C22.2532 4.97288 20.534 3.25376 18.4132 3.25376C16.2925 3.25376 14.5732 4.97288 14.5732 7.09376C14.5732 7.32934 14.3821 7.52031 14.1466 7.52031C13.9108 7.52031 13.7199 7.32933 13.7199 7.09376C13.7199 4.50169 15.8212 2.40039 18.4132 2.40039C21.0053 2.40039 23.1066 4.50173 23.1066 7.09376C23.1066 9.6858 21.0054 11.7871 18.4132 11.7871L2.19988 11.787ZM1.34661 8.8004C1.11089 8.8004 0.919922 8.60929 0.919922 8.37372C0.919922 8.138 1.1109 7.94703 1.34661 7.94703H9.02661C9.96905 7.94703 10.7332 7.18297 10.7332 6.24039C10.7332 5.29781 9.96905 4.53375 9.02661 4.53375C8.33606 4.53375 7.72187 4.94744 7.45577 5.57182C7.36336 5.78852 7.11264 5.88936 6.89596 5.79695C6.67913 5.70454 6.57828 5.45396 6.67069 5.23714C7.06995 4.30096 7.9911 3.68036 9.02663 3.68036C10.4404 3.68036 11.5865 4.82653 11.5865 6.2404C11.5865 7.65428 10.4404 8.80045 9.02663 8.80045L1.34661 8.8004ZM3.47983 14.7737C3.24425 14.7737 3.05328 14.5825 3.05328 14.347C3.05328 14.1113 3.24426 13.9203 3.47983 13.9203H16.7066C18.8273 13.9203 20.5466 15.6395 20.5466 17.7603C20.5466 19.881 18.8273 21.6003 16.7066 21.6003C14.5857 21.6003 12.8666 19.881 12.8666 17.7603C12.8666 17.5247 13.0576 17.3336 13.2931 17.3336C13.5288 17.3336 13.7198 17.5247 13.7198 17.7603C13.7198 19.4097 15.057 20.7469 16.7065 20.7469C18.356 20.7469 19.6931 19.4097 19.6931 17.7603C19.6931 16.1108 18.356 14.7737 16.7065 14.7737L3.47983 14.7737Z" fill="#273469"/>
</svg>
